<?xml version="1.0" encoding="UTF-8" standalone="no"?>
<!-- Created with Inkscape (http://www.inkscape.org/) -->

<svg
   width="316.81528mm"
   height="178.69859mm"
   viewBox="0 0 316.81528 178.69859"
   version="1.1"
   id="svg1"
   inkscape:version="1.3 (0e150ed6c4, 2023-07-21)"
   sodipodi:docname="exam1_p1a.svg"
   xmlns:inkscape="http://www.inkscape.org/namespaces/inkscape"
   xmlns:sodipodi="http://sodipodi.sourceforge.net/DTD/sodipodi-0.dtd"
   xmlns="http://www.w3.org/2000/svg"
   xmlns:svg="http://www.w3.org/2000/svg">
  <sodipodi:namedview
     id="namedview1"
     pagecolor="#555555"
     bordercolor="#000000"
     borderopacity="0.25"
     inkscape:showpageshadow="2"
     inkscape:pageopacity="0.0"
     inkscape:pagecheckerboard="0"
     inkscape:deskcolor="#d1d1d1"
     inkscape:document-units="mm"
     inkscape:zoom="0.74646491"
     inkscape:cx="703.98487"
     inkscape:cy="148.03107"
     inkscape:window-width="1258"
     inkscape:window-height="1379"
     inkscape:window-x="2364"
     inkscape:window-y="43"
     inkscape:window-maximized="1"
     inkscape:current-layer="layer1" />
  <defs
     id="defs1" />
  <g
     inkscape:label="Layer 1"
     inkscape:groupmode="layer"
     id="layer1"
     transform="translate(-231.05631,-99.312203)">
    <path
       d="m 238.59122,268.12413 q 0,0.74266 -0.40228,1.28418 -0.3868,0.54152 -1.25324,1.03663 2.07327,1.0521 2.07327,2.92423 0,0.85096 -0.46417,1.57815 -0.46416,0.72719 -1.37701,1.16041 -0.89739,0.43322 -2.18157,0.43322 -1.25324,0 -2.15062,-0.41775 -0.88191,-0.43322 -1.3306,-1.12946 -0.44869,-0.71172 -0.44869,-1.56268 0,-0.89738 0.51058,-1.57816 0.52605,-0.69624 1.45437,-1.09852 -0.85096,-0.54152 -1.20682,-1.08304 -0.34039,-0.557 -0.34039,-1.42344 0,-0.89738 0.46417,-1.56268 0.46416,-0.68077 1.26871,-1.03663 0.82002,-0.37133 1.84118,-0.37133 1.03663,0 1.84118,0.35586 0.80455,0.34038 1.25324,0.99021 0.44869,0.63436 0.44869,1.5008 z m -4.79635,0.12377 q 0,0.557 0.37133,0.92833 0.37133,0.37133 1.19135,0.68077 0.51058,-0.37133 0.71172,-0.74266 0.20113,-0.37133 0.20113,-0.85096 0,-0.60342 -0.30944,-0.95927 -0.30944,-0.35586 -0.91285,-0.35586 -0.60341,0 -0.92833,0.34038 -0.32491,0.32492 -0.32491,0.95927 z m 2.7695,5.1058 q 0,-0.52605 -0.2166,-0.85097 -0.20114,-0.34039 -0.61889,-0.57247 -0.41775,-0.24755 -1.20682,-0.52605 -1.02116,0.64983 -1.02116,1.87213 0,0.69624 0.3868,1.11399 0.40228,0.40227 1.16041,0.40227 0.75813,0 1.12946,-0.40227 0.3868,-0.41775 0.3868,-1.03663 z m 14.46947,-6.25073 0.32491,2.92423 -2.6612,-1.2223 -0.71171,2.19704 2.87781,0.58794 -1.98043,2.16609 1.85665,1.34607 1.45438,-2.53742 1.45438,2.53742 1.85665,-1.34607 -1.98043,-2.16609 2.87781,-0.58794 -0.71172,-2.19704 -2.6612,1.2223 0.32492,-2.92423 z m 21.37002,0.20114 h -3.91444 v 2.32081 q 0.75813,-0.35586 1.57816,-0.35586 0.83549,0 1.51626,0.43322 0.69625,0.41775 1.09852,1.20682 0.40228,0.78908 0.40228,1.84118 0,1.08305 -0.52606,1.94949 -0.52605,0.86644 -1.48532,1.36154 -0.95927,0.47964 -2.19704,0.47964 -1.12946,0 -2.04231,-0.41775 -0.89738,-0.43322 -1.51627,-1.19135 l 1.40796,-1.28418 q 0.38681,0.4951 0.88191,0.75813 0.51058,0.26303 1.08305,0.26303 0.85096,0 1.36154,-0.51058 0.51058,-0.52606 0.51058,-1.36155 0,-1.84118 -1.45437,-1.84118 -0.6653,0 -1.29966,0.35586 h -1.65552 v -5.75562 h 6.52923 z m 15.1193,0.0155 v 3.18725 h 3.12536 v 1.87212 h -3.12536 v 3.18726 h -2.02685 v -3.18726 h -3.10989 v -1.87212 h 3.10989 v -3.18725 z m 15.59893,9.2059 -2.32082,-0.72719 3.9918,-8.40135 h -4.70351 v -1.84118 h 7.17905 v 1.65551 z m 19.65262,-11.32558 1.29966,0.54152 -5.27599,10.98519 -1.28419,-0.54152 z m -4.30125,0.0774 q 1.02116,0 1.6091,0.6653 0.58794,0.6653 0.58794,1.76382 0,1.11399 -0.58794,1.77929 -0.58794,0.64983 -1.6091,0.64983 -1.0521,0 -1.64004,-0.64983 -0.58794,-0.6653 -0.58794,-1.77929 0,-1.08305 0.58794,-1.74835 0.60341,-0.68077 1.64004,-0.68077 z m 0,1.20682 q -0.37133,0 -0.4951,0.29397 -0.12378,0.29397 -0.12378,0.92833 0,0.60341 0.12378,0.91285 0.13925,0.30945 0.4951,0.30945 0.35586,0 0.47964,-0.29397 0.12378,-0.29397 0.12378,-0.92833 0,-0.6653 -0.12378,-0.9438 -0.12378,-0.2785 -0.47964,-0.2785 z m 4.74994,5.04391 q 1.02116,0 1.6091,0.6653 0.58794,0.64983 0.58794,1.76382 0,1.11399 -0.58794,1.76382 -0.58794,0.64983 -1.6091,0.64983 -1.0521,0 -1.64004,-0.64983 -0.58794,-0.64983 -0.58794,-1.76382 0,-1.08305 0.58794,-1.74835 0.60341,-0.68077 1.64004,-0.68077 z m 0,1.19135 q -0.37133,0 -0.49511,0.30944 -0.12377,0.29397 -0.12377,0.92833 0,0.58794 0.12377,0.89738 0.13925,0.30944 0.49511,0.30944 0.35586,0 0.47963,-0.29397 0.12378,-0.29397 0.12378,-0.91285 0,-0.6653 -0.12378,-0.9438 -0.12377,-0.29397 -0.47963,-0.29397 z m 18.69335,-0.52605 v 1.82571 h -1.06757 v 2.25892 h -2.33629 l -0.0155,-2.25892 h -4.4405 v -1.6091 l 2.97065,-7.13264 2.07326,0.77361 -2.52195,6.14242 h 1.93401 l 0.26302,-2.58384 h 2.07327 v 2.58384 z m 9.88973,0.18566 v -1.88759 h 6.71489 v 1.88759 z m 20.45716,-7.10169 q 1.91854,0 2.92423,1.16041 1.02116,1.16041 1.02116,3.12536 0,2.05779 -0.69625,3.48122 -0.69624,1.42344 -2.13515,2.32082 -1.42343,0.89738 -3.69783,1.37702 l -0.51058,-1.71741 q 1.93401,-0.47963 3.00159,-1.26871 1.06757,-0.80455 1.40796,-2.07326 -0.51058,0.44869 -1.03663,0.68077 -0.51058,0.21661 -1.14494,0.21661 -0.83549,0 -1.53173,-0.43322 -0.69625,-0.43322 -1.09852,-1.20682 -0.40228,-0.78908 -0.40228,-1.79476 0,-1.14494 0.51058,-2.01138 0.51058,-0.88191 1.39249,-1.36154 0.88191,-0.49511 1.9959,-0.49511 z m -1.4389,3.79066 q 0,0.92833 0.35585,1.36155 0.37133,0.43322 0.97475,0.43322 0.78907,0 1.53173,-0.61889 0.0155,-1.1604 -0.1083,-1.84118 -0.10831,-0.68077 -0.41775,-1.02115 -0.30944,-0.35586 -0.91285,-0.35586 -0.68077,0 -1.0521,0.51058 -0.37133,0.4951 -0.37133,1.53173 z m 15.92385,8.94288 -1.90307,-0.88191 6.49828,-13.49167 1.8876,0.88191 z m 7.73605,0 -1.90307,-0.88191 6.49828,-13.49167 1.8876,0.88191 z m 20.31171,-12.73354 q 1.11399,0 1.93401,0.37133 0.83549,0.37133 1.26871,1.00569 0.44869,0.61888 0.44869,1.37701 0,0.99022 -0.58794,1.62457 -0.57246,0.63436 -1.60909,0.9438 2.53742,0.34039 2.53742,2.6612 0,0.91286 -0.51058,1.67099 -0.49511,0.74266 -1.43891,1.17588 -0.94379,0.43322 -2.19703,0.43322 -1.17588,0 -2.13515,-0.41775 -0.95927,-0.41774 -1.64005,-1.19135 l 1.37702,-1.28418 q 0.88191,1.02116 2.22798,1.02116 0.82002,0 1.31513,-0.41775 0.49511,-0.41775 0.49511,-1.16041 0,-1.6091 -1.81024,-1.6091 h -0.97474 l 0.2785,-1.67098 h 0.68077 q 0.74266,0 1.17588,-0.35586 0.44869,-0.37133 0.44869,-1.05211 0,-0.60341 -0.43322,-0.94379 -0.43322,-0.35586 -1.12946,-0.35586 -1.16041,0 -2.13515,0.92832 l -1.25324,-1.29965 q 1.50079,-1.45438 3.66689,-1.45438 z m 16.0012,1.82571 0.32491,2.92423 -2.6612,-1.2223 -0.71172,2.19704 2.87781,0.58794 -1.98043,2.16609 1.85666,1.34607 1.45437,-2.53742 1.45438,2.53742 1.85665,-1.34607 -1.98043,-2.16609 2.87781,-0.58794 -0.71171,-2.19704 -2.6612,1.2223 0.32491,-2.92423 z m 8.50965,0 0.32492,2.92423 -2.66121,-1.2223 -0.71171,2.19704 2.87781,0.58794 -1.98043,2.16609 1.85665,1.34607 1.45438,-2.53742 1.45438,2.53742 1.85665,-1.34607 -1.98043,-2.16609 2.87781,-0.58794 -0.71172,-2.19704 -2.6612,1.2223 0.32492,-2.92423 z m 18.45506,-1.82571 q 1.17588,0 2.01137,0.41775 0.83549,0.41774 1.25324,1.12946 0.43322,0.69624 0.43322,1.53174 0,0.88191 -0.40227,1.70193 -0.40228,0.82002 -1.3306,1.84118 -0.91286,1.00569 -2.59932,2.50648 h 4.57974 l -0.26302,1.87212 h -7.11717 v -1.73287 q 1.90307,-1.84118 2.84687,-2.86234 0.9438,-1.03663 1.36154,-1.74835 0.43322,-0.72719 0.43322,-1.36154 0,-0.6653 -0.37133,-1.03663 -0.37133,-0.37133 -1.06757,-0.37133 -0.60342,0 -1.05211,0.26302 -0.44869,0.24756 -0.88191,0.82002 l -1.48532,-1.12946 q 0.63436,-0.88191 1.51627,-1.36154 0.89738,-0.47964 2.13515,-0.47964 z m 18.53864,2.04232 v 3.18725 h 3.12536 v 1.87212 h -3.12536 v 3.18726 h -2.02685 v -3.18726 h -3.10989 v -1.87212 h 3.10989 v -3.18725 z m 16.15593,-2.04232 q 1.90307,0 2.87781,1.46985 0.99022,1.46985 0.99022,4.14652 0,2.69215 -0.99022,4.17747 -0.97474,1.46985 -2.87781,1.46985 -1.90307,0 -2.89328,-1.46985 -0.97474,-1.48532 -0.97474,-4.17747 0,-2.67667 0.97474,-4.14652 0.99021,-1.46985 2.89328,-1.46985 z m 0,1.77929 q -0.82002,0 -1.20682,0.89738 -0.37133,0.88191 -0.37133,2.9397 0,1.34608 0.0928,2.1661 l 2.61478,-5.47713 q -0.18566,-0.29397 -0.44869,-0.40227 -0.26302,-0.12378 -0.68077,-0.12378 z m 0,7.72058 q 0.82002,0 1.19135,-0.88191 0.37133,-0.88191 0.37133,-3.00159 0,-0.85096 -0.0464,-1.50079 l -2.46007,5.09032 q 0.30944,0.29397 0.9438,0.29397 z m 14.87172,3.23367 -1.90307,-0.88191 6.49828,-13.49167 1.8876,0.88191 z m 20.37982,-8.9274 q 0.85096,0 1.53174,0.41774 0.68077,0.41775 1.06757,1.23777 0.40228,0.80455 0.40228,1.90307 0,1.08305 -0.47964,1.98043 -0.46416,0.88191 -1.3306,1.40796 -0.85097,0.51058 -1.9959,0.51058 -2.01137,0 -3.00159,-1.42343 -0.99021,-1.43891 -0.99021,-3.68236 0,-1.81024 0.55699,-3.20273 0.57247,-1.39249 1.62457,-2.16609 1.05211,-0.78908 2.47554,-0.78908 1.31513,0 2.32081,0.69624 l -0.92832,1.48533 q -0.61889,-0.43322 -1.36155,-0.43322 -0.88191,0 -1.46985,0.80455 -0.57246,0.78907 -0.6653,2.22798 0.47964,-0.47964 1.06758,-0.72719 0.58794,-0.24755 1.17588,-0.24755 z m -0.77361,5.7092 q 0.6653,0 0.99022,-0.55699 0.34038,-0.557 0.34038,-1.45438 0,-1.06758 -0.30944,-1.53174 -0.29397,-0.47963 -0.88191,-0.47963 -0.43322,0 -0.85096,0.21661 -0.41775,0.2166 -0.75814,0.61888 0.0309,1.67099 0.35586,2.42912 0.32492,0.75813 1.11399,0.75813 z"
       id="text1"
       style="font-weight:bold;font-size:15.4721px;line-height:0.9;font-family:'Fira Code iCursive S12';-inkscape-font-specification:'Fira Code iCursive S12, Bold';letter-spacing:-0.70246px;fill:#f8f8f2;stroke-width:0.999999;stroke-linecap:round;stroke-opacity:0.998262"
       aria-label="8 * 5 + 7 % 4 - 9//  3**  2 + 0 / 6" />
    <text
       xml:space="preserve"
       style="font-style:normal;font-variant:normal;font-weight:bold;font-stretch:normal;font-size:15.4721px;line-height:0.9;font-family:'Fira Code iCursive S12';-inkscape-font-specification:'Fira Code iCursive S12, Bold';font-variant-ligatures:normal;font-variant-caps:normal;font-variant-numeric:normal;font-variant-east-asian:normal;letter-spacing:-0.70246px;fill:#ffffff;fill-opacity:0.4;stroke-width:0.999999;stroke-linecap:round;stroke-opacity:0.998262"
       x="158.03186"
       y="-9.362236"
       id="text2"><tspan
         sodipodi:role="line"
         id="tspan2"
         style="font-style:normal;font-variant:normal;font-weight:bold;font-stretch:normal;font-size:15.4721px;font-family:'Fira Code iCursive S12';-inkscape-font-specification:'Fira Code iCursive S12, Bold';font-variant-ligatures:normal;font-variant-caps:normal;font-variant-numeric:normal;font-variant-east-asian:normal;stroke-width:0.999999"
         x="158.03186"
         y="-9.362236">1</tspan></text>
    <g
       id="g38"
       class="fragment">
      <path
         d="m 251.54011,237.10596 v 1.82571 h -1.06757 v 2.25893 h -2.33629 l -0.0155,-2.25893 h -4.4405 v -1.6091 l 2.97065,-7.13264 2.07326,0.77361 -2.52195,6.14242 h 1.93401 l 0.26302,-2.58384 h 2.07327 v 2.58384 z m 4.66637,-6.91603 q 1.90306,0 2.87781,1.46985 0.99021,1.46985 0.99021,4.14653 0,2.69214 -0.99021,4.17746 -0.97475,1.46985 -2.87781,1.46985 -1.90307,0 -2.89329,-1.46985 -0.97474,-1.48532 -0.97474,-4.17746 0,-2.67668 0.97474,-4.14653 0.99022,-1.46985 2.89329,-1.46985 z m 0,1.7793 q -0.82003,0 -1.20683,0.89738 -0.37133,0.88191 -0.37133,2.9397 0,1.34607 0.0928,2.16609 l 2.61479,-5.47712 q -0.18567,-0.29397 -0.44869,-0.40228 -0.26303,-0.12377 -0.68077,-0.12377 z m 0,7.72057 q 0.82002,0 1.19135,-0.88191 0.37133,-0.88191 0.37133,-3.00158 0,-0.85097 -0.0464,-1.5008 l -2.46006,5.09032 q 0.30944,0.29397 0.9438,0.29397 z"
         id="text3"
         style="font-weight:bold;font-size:15.4721px;line-height:0.9;font-family:'Fira Code iCursive S12';-inkscape-font-specification:'Fira Code iCursive S12, Bold';letter-spacing:-0.70246px;fill:#66d9ef;stroke-width:0.999999;stroke-linecap:round;stroke-opacity:0.998262"
         aria-label="40" />
      <path
         id="path27"
         style="fill:none;fill-opacity:1;stroke:#ae81ff;stroke-width:1.4;stroke-linecap:round;stroke-opacity:0.998262;stroke-linejoin:bevel;stroke-dasharray:none"
         d="m 268.03255,262.77483 -16.0353,-19.47198 m -16.47835,19.50628 16.47835,-19.50628 0.14906,20.01568" />
    </g>
    <g
       id="g39"
       class="fragment">
      <path
         d="m 319.52067,230.18993 q 1.11399,0 1.93401,0.37133 0.83549,0.37134 1.26871,1.00569 0.44869,0.61889 0.44869,1.37702 0,0.99021 -0.58794,1.62457 -0.57246,0.63435 -1.6091,0.9438 2.53743,0.34038 2.53743,2.6612 0,0.91285 -0.51058,1.67098 -0.49511,0.74267 -1.43891,1.17588 -0.94379,0.43322 -2.19703,0.43322 -1.17588,0 -2.13515,-0.41774 -0.95927,-0.41775 -1.64005,-1.19136 l 1.37702,-1.28418 q 0.88191,1.02116 2.22798,1.02116 0.82002,0 1.31513,-0.41775 0.49511,-0.41774 0.49511,-1.16041 0,-1.60909 -1.81024,-1.60909 h -0.97474 l 0.2785,-1.67099 h 0.68077 q 0.74266,0 1.17588,-0.35586 0.44869,-0.37133 0.44869,-1.0521 0,-0.60341 -0.43322,-0.9438 -0.43322,-0.35586 -1.12946,-0.35586 -1.16041,0 -2.13515,0.92833 l -1.25324,-1.29966 q 1.50079,-1.45438 3.66689,-1.45438 z"
         id="text4"
         style="font-weight:bold;font-size:15.4721px;line-height:0.9;font-family:'Fira Code iCursive S12';-inkscape-font-specification:'Fira Code iCursive S12, Bold';letter-spacing:-0.70246px;fill:#66d9ef;stroke-width:0.999999;stroke-linecap:round;stroke-opacity:0.998262"
         aria-label="3" />
      <path
         id="path28"
         style="fill:none;fill-opacity:1;stroke:#ae81ff;stroke-width:1.4;stroke-linecap:round;stroke-linejoin:bevel;stroke-opacity:0.998262;stroke-dasharray:none"
         d="m 336.99925,262.77483 -16.0353,-19.47198 m -16.47835,19.50628 16.47835,-19.50628 0.14906,20.01568" />
    </g>
    <g
       id="g40"
       class="fragment">
      <path
         d="m 285.64457,190.24491 v 1.82571 H 284.577 v 2.25892 h -2.33629 l -0.0155,-2.25892 h -4.44049 v -1.6091 l 2.97064,-7.13264 2.07326,0.77361 -2.52195,6.14242 h 1.93401 l 0.26303,-2.58384 h 2.07326 v 2.58384 z m 4.23315,-6.91603 q 1.11399,0 1.93401,0.37133 0.83549,0.37133 1.26871,1.00569 0.44869,0.61888 0.44869,1.37701 0,0.99022 -0.58794,1.62458 -0.57246,0.63435 -1.60909,0.94379 2.53742,0.34039 2.53742,2.6612 0,0.91286 -0.51058,1.67099 -0.49511,0.74266 -1.4389,1.17588 -0.9438,0.43322 -2.19704,0.43322 -1.17588,0 -2.13515,-0.41775 -0.95927,-0.41774 -1.64005,-1.19135 l 1.37702,-1.28418 q 0.88191,1.02116 2.22798,1.02116 0.82003,0 1.31513,-0.41775 0.49511,-0.41775 0.49511,-1.16041 0,-1.6091 -1.81024,-1.6091 h -0.97474 l 0.2785,-1.67098 h 0.68077 q 0.74266,0 1.17588,-0.35586 0.44869,-0.37133 0.44869,-1.0521 0,-0.60342 -0.43322,-0.9438 -0.43322,-0.35586 -1.12946,-0.35586 -1.16041,0 -2.13515,0.92832 l -1.25324,-1.29965 q 1.50079,-1.45438 3.66689,-1.45438 z"
         id="text5"
         style="font-weight:bold;font-size:15.4721px;line-height:0.9;font-family:'Fira Code iCursive S12';-inkscape-font-specification:'Fira Code iCursive S12, Bold';letter-spacing:-0.70246px;fill:#66d9ef;stroke-width:0.999999;stroke-linecap:round;stroke-opacity:0.998262"
         aria-label="43" />
      <path
         id="path30"
         style="fill:none;fill-opacity:1;stroke:#ae81ff;stroke-width:1.4;stroke-linecap:round;stroke-linejoin:bevel;stroke-opacity:0.998262;stroke-dasharray:none"
         d="m 319.55161,227.56122 -33.72448,-29.74096 m -33.94974,29.48522 33.94974,-29.48522 0.90106,65.81696" />
    </g>
    <g
       id="g41"
       class="fragment">
      <path
         d="m 436.20526,230.18993 q 1.91854,0 2.92423,1.16041 1.02116,1.16041 1.02116,3.12537 0,2.05779 -0.69625,3.48122 -0.69624,1.42343 -2.13515,2.32081 -1.42343,0.89739 -3.69783,1.37702 l -0.51058,-1.7174 q 1.93401,-0.47964 3.00159,-1.26871 1.06757,-0.80455 1.40796,-2.07327 -0.51058,0.44869 -1.03663,0.68078 -0.51058,0.21661 -1.14494,0.21661 -0.83549,0 -1.53174,-0.43322 -0.69624,-0.43322 -1.09851,-1.20683 -0.40228,-0.78907 -0.40228,-1.79476 0,-1.14494 0.51058,-2.01137 0.51058,-0.88191 1.39249,-1.36155 0.88191,-0.49511 1.9959,-0.49511 z m -1.4389,3.79067 q 0,0.92832 0.35585,1.36154 0.37133,0.43322 0.97475,0.43322 0.78907,0 1.53173,-0.61888 0.0155,-1.16041 -0.1083,-1.84118 -0.10831,-0.68077 -0.41775,-1.02116 -0.30944,-0.35586 -0.91285,-0.35586 -0.68077,0 -1.0521,0.51058 -0.37133,0.49511 -0.37133,1.53174 z"
         id="text6"
         style="font-weight:bold;font-size:15.4721px;line-height:0.9;font-family:'Fira Code iCursive S12';-inkscape-font-specification:'Fira Code iCursive S12, Bold';letter-spacing:-0.70246px;fill:#66d9ef;stroke-width:0.999999;stroke-linecap:round;stroke-opacity:0.998262"
         aria-label="9" />
      <path
         id="path31"
         style="fill:none;fill-opacity:1;stroke:#ae81ff;stroke-width:1.4;stroke-linecap:round;stroke-linejoin:bevel;stroke-opacity:0.998262;stroke-dasharray:none"
         d="m 452.48528,262.77483 -16.0353,-19.47198 m -16.47835,19.50628 16.47835,-19.50628 0.14906,20.01568" />
    </g>
    <g
       id="g42"
       class="fragment">
      <path
         d="m 403.87993,192.47289 h 1.99591 v 1.85665 h -6.96245 v -1.85665 h 2.58384 v -6.46734 l -2.21251,1.39249 -1.03663,-1.68646 3.46575,-2.1042 h 2.16609 z"
         id="text7"
         style="font-weight:bold;font-size:15.4721px;line-height:0.9;font-family:'Fira Code iCursive S12';-inkscape-font-specification:'Fira Code iCursive S12, Bold';letter-spacing:-0.70246px;fill:#66d9ef;stroke-width:0.999999;stroke-linecap:round;stroke-opacity:0.998262"
         aria-label="1" />
      <path
         id="path33"
         style="fill:none;fill-opacity:1;stroke:#ae81ff;stroke-width:1.4;stroke-linecap:round;stroke-linejoin:bevel;stroke-opacity:0.998262;stroke-dasharray:none"
         d="m 402.06196,197.32026 -6.82484,64.68688 m -22.06528,1.63008 28.89012,-66.31696 34.16651,30.14165" />
    </g>
    <g
       id="g43"
       class="fragment">
      <path
         d="m 346.48381,141.93755 v 1.82571 h -1.06758 v 2.25893 h -2.33629 l -0.0155,-2.25893 h -4.44049 v -1.6091 l 2.97064,-7.13264 2.07326,0.77361 -2.52195,6.14242 h 1.93401 l 0.26303,-2.58384 h 2.07326 v 2.58384 z m 4.29503,-6.91603 q 1.17588,0 2.01137,0.41775 0.8355,0.41775 1.25324,1.12946 0.43322,0.69625 0.43322,1.53174 0,0.88191 -0.40227,1.70193 -0.40228,0.82002 -1.3306,1.84118 -0.91286,1.00569 -2.59932,2.50648 h 4.57975 l -0.26303,1.87213 h -7.11717 v -1.73288 q 1.90307,-1.84118 2.84687,-2.86234 0.9438,-1.03663 1.36154,-1.74834 0.43322,-0.72719 0.43322,-1.36155 0,-0.6653 -0.37133,-1.03663 -0.37133,-0.37133 -1.06757,-0.37133 -0.60341,0 -1.0521,0.26302 -0.4487,0.24756 -0.88191,0.82003 l -1.48533,-1.12947 q 0.63436,-0.88191 1.51627,-1.36154 0.89738,-0.47964 2.13515,-0.47964 z"
         id="text8"
         style="font-weight:bold;font-size:15.4721px;line-height:0.9;font-family:'Fira Code iCursive S12';-inkscape-font-specification:'Fira Code iCursive S12, Bold';letter-spacing:-0.70246px;fill:#66d9ef;stroke-width:0.999999;stroke-linecap:round;stroke-opacity:0.998262"
         aria-label="42" />
      <path
         id="path35"
         style="fill:none;fill-opacity:1;stroke:#ae81ff;stroke-width:1.4;stroke-linecap:round;stroke-linejoin:bevel;stroke-opacity:0.998262;stroke-dasharray:none"
         d="M 402.06196,179.46642 346.6741,150.03747 m -60.84697,30.05307 60.84697,-30.05307 8.05012,114.09975" />
    </g>
    <g
       id="g44"
       class="fragment">
      <path
         d="m 501.96994,230.65409 q 1.90307,0 2.87781,1.46985 0.99021,1.46985 0.99021,4.14652 0,2.69215 -0.99021,4.17747 -0.97474,1.46985 -2.87781,1.46985 -1.90307,0 -2.89328,-1.46985 -0.97475,-1.48532 -0.97475,-4.17747 0,-2.67667 0.97475,-4.14652 0.99021,-1.46985 2.89328,-1.46985 z m 0,1.77929 q -0.82002,0 -1.20683,0.89738 -0.37133,0.88191 -0.37133,2.9397 0,1.34608 0.0928,2.1661 l 2.61478,-5.47713 q -0.18566,-0.29397 -0.44869,-0.40227 -0.26303,-0.12378 -0.68077,-0.12378 z m 0,7.72058 q 0.82002,0 1.19135,-0.88191 0.37133,-0.88191 0.37133,-3.00159 0,-0.85096 -0.0464,-1.50079 l -2.46006,5.09032 q 0.30944,0.29397 0.9438,0.29397 z m 6.8634,0.0309 q 0,-0.69625 0.49511,-1.20683 0.51058,-0.51058 1.22229,-0.51058 0.71172,0 1.20683,0.51058 0.51058,0.51058 0.51058,1.20683 0,0.71171 -0.51058,1.22229 -0.49511,0.51058 -1.20683,0.51058 -0.71171,0 -1.22229,-0.51058 -0.49511,-0.51058 -0.49511,-1.22229 z m 10.29821,-9.53082 q 1.90307,0 2.87781,1.46985 0.99021,1.46985 0.99021,4.14652 0,2.69215 -0.99021,4.17747 -0.97474,1.46985 -2.87781,1.46985 -1.90307,0 -2.89328,-1.46985 -0.97475,-1.48532 -0.97475,-4.17747 0,-2.67667 0.97475,-4.14652 0.99021,-1.46985 2.89328,-1.46985 z m 0,1.77929 q -0.82002,0 -1.20682,0.89738 -0.37133,0.88191 -0.37133,2.9397 0,1.34608 0.0928,2.1661 l 2.61478,-5.47713 q -0.18566,-0.29397 -0.44869,-0.40227 -0.26302,-0.12378 -0.68077,-0.12378 z m 0,7.72058 q 0.82002,0 1.19135,-0.88191 0.37133,-0.88191 0.37133,-3.00159 0,-0.85096 -0.0464,-1.50079 l -2.46007,5.09032 q 0.30944,0.29397 0.9438,0.29397 z"
         id="text9"
         style="font-weight:bold;font-size:15.4721px;line-height:0.9;font-family:'Fira Code iCursive S12';-inkscape-font-specification:'Fira Code iCursive S12, Bold';letter-spacing:-0.70246px;fill:#66d9ef;stroke-width:0.999999;stroke-linecap:round;stroke-opacity:0.998262"
         aria-label="0.0" />
      <path
         id="path36"
         style="fill:none;fill-opacity:1;stroke:#ae81ff;stroke-width:1.4;stroke-linecap:round;stroke-linejoin:bevel;stroke-opacity:0.998262;stroke-dasharray:none"
         d="m 526.80757,262.77483 -16.0353,-19.47198 m -16.47835,19.50628 16.47835,-19.50628 0.14906,20.01568" />
    </g>
    <g
       id="g45"
       class="fragment">
      <path
         d="m 454.83924,106.22823 v 1.82571 h -1.06757 v 2.25893 h -2.33629 l -0.0155,-2.25893 h -4.44049 v -1.6091 l 2.97064,-7.132637 2.07326,0.773607 -2.52195,6.14242 h 1.93401 l 0.26303,-2.58384 h 2.07326 v 2.58384 z m 4.29504,-6.916027 q 1.17588,0 2.01137,0.417747 0.83549,0.41775 1.25324,1.12946 0.43322,0.69625 0.43322,1.53174 0,0.88191 -0.40227,1.70193 -0.40228,0.82002 -1.33061,1.84118 -0.91285,1.00569 -2.59931,2.50648 h 4.57974 l -0.26302,1.87213 h -7.11717 v -1.73288 q 1.90307,-1.84118 2.84687,-2.86234 0.9438,-1.03663 1.36154,-1.74834 0.43322,-0.72719 0.43322,-1.36155 0,-0.6653 -0.37133,-1.03663 -0.37133,-0.37133 -1.06757,-0.37133 -0.60342,0 -1.05211,0.26302 -0.44869,0.24756 -0.88191,0.82003 l -1.48532,-1.12947 q 0.63436,-0.88191 1.51627,-1.361542 0.89738,-0.479635 2.13515,-0.479635 z m 7.23473,9.530817 q 0,-0.69625 0.49511,-1.20683 0.51058,-0.51058 1.22229,-0.51058 0.71172,0 1.20683,0.51058 0.51058,0.51058 0.51058,1.20683 0,0.71171 -0.51058,1.22229 -0.49511,0.51058 -1.20683,0.51058 -0.71171,0 -1.22229,-0.51058 -0.49511,-0.51058 -0.49511,-1.22229 z m 10.29821,-9.530817 q 1.90307,0 2.87781,1.469847 0.99022,1.46985 0.99022,4.14653 0,2.69214 -0.99022,4.17746 -0.97474,1.46985 -2.87781,1.46985 -1.90307,0 -2.89328,-1.46985 -0.97474,-1.48532 -0.97474,-4.17746 0,-2.67668 0.97474,-4.14653 0.99021,-1.469847 2.89328,-1.469847 z m 0,1.779287 q -0.82002,0 -1.20682,0.89739 -0.37133,0.88191 -0.37133,2.9397 0,1.34607 0.0928,2.16609 l 2.61478,-5.47712 q -0.18566,-0.29397 -0.44869,-0.40228 -0.26302,-0.12378 -0.68077,-0.12378 z m 0,7.72058 q 0.82002,0 1.19135,-0.88191 0.37133,-0.88191 0.37133,-3.00158 0,-0.85097 -0.0464,-1.5008 l -2.46007,5.09032 q 0.30944,0.29397 0.9438,0.29397 z"
         id="text10"
         style="font-weight:bold;font-size:15.4721px;line-height:0.9;font-family:'Fira Code iCursive S12';-inkscape-font-specification:'Fira Code iCursive S12, Bold';letter-spacing:-0.70246px;fill:#f92672;stroke-width:0.999999;stroke-linecap:round;stroke-opacity:0.998262"
         aria-label="42.0" />
      <path
         id="path38"
         style="fill:none;fill-opacity:1;stroke:#ae81ff;stroke-width:1.4;stroke-linecap:round;stroke-linejoin:bevel;stroke-opacity:0.998262;stroke-dasharray:none"
         d="M 510.55074,228.29799 463.75733,115.64293 m -117.08323,16.97622 117.08323,-16.97622 11.73588,148.1756" />
    </g>
  </g>
</svg>
