<?xml version="1.0" encoding="UTF-8" standalone="no"?>
<!-- Created with Inkscape (http://www.inkscape.org/) -->

<svg
   width="237.08936mm"
   height="165.34872mm"
   viewBox="0 0 237.08936 165.34872"
   version="1.1"
   id="svg1"
   inkscape:version="1.3 (0e150ed6c4, 2023-07-21)"
   sodipodi:docname="exam2_p1a.svg"
   xmlns:inkscape="http://www.inkscape.org/namespaces/inkscape"
   xmlns:sodipodi="http://sodipodi.sourceforge.net/DTD/sodipodi-0.dtd"
   xmlns="http://www.w3.org/2000/svg"
   xmlns:svg="http://www.w3.org/2000/svg">
  <sodipodi:namedview
     id="namedview1"
     pagecolor="#555555"
     bordercolor="#000000"
     borderopacity="0.25"
     inkscape:showpageshadow="2"
     inkscape:pageopacity="0.0"
     inkscape:pagecheckerboard="0"
     inkscape:deskcolor="#d1d1d1"
     inkscape:document-units="mm"
     inkscape:zoom="1.0556608"
     inkscape:cx="201.29572"
     inkscape:cy="85.728295"
     inkscape:window-width="1258"
     inkscape:window-height="1379"
     inkscape:window-x="2364"
     inkscape:window-y="43"
     inkscape:window-maximized="1"
     inkscape:current-layer="layer1" />
  <defs
     id="defs1" />
  <g
     inkscape:label="Layer 1"
     inkscape:groupmode="layer"
     id="layer1"
     transform="translate(-246.48009,-105.11868)">
    <text
       xml:space="preserve"
       style="font-style:normal;font-variant:normal;font-weight:bold;font-stretch:normal;font-size:15.4721px;line-height:0.9;font-family:'Fira Code';-inkscape-font-specification:'Fira Code, Bold';font-variant-ligatures:no-contextual;font-variant-caps:normal;font-variant-numeric:normal;font-variant-east-asian:normal;letter-spacing:-0.70246px;fill:#272822;fill-opacity:1;stroke-width:0.999999;stroke-linecap:round;stroke-opacity:0.998262"
       x="209.13597"
       y="79.39827"
       id="text2"><tspan
         sodipodi:role="line"
         id="tspan2"
         style="font-style:normal;font-variant:normal;font-weight:bold;font-stretch:normal;font-size:15.4721px;font-family:'Fira Code';-inkscape-font-specification:'Fira Code, Bold';font-variant-ligatures:no-contextual;font-variant-caps:normal;font-variant-numeric:normal;font-variant-east-asian:normal;fill:#272822;fill-opacity:1;stroke-width:0.999999"
         x="209.13597"
         y="79.39827">1</tspan></text>
    <path
       d="m 250.23307,257.4153 q 1.25363,0 2.09468,0.43639 0.84898,0.43639 1.26951,1.15842 0.42845,0.7141 0.42845,1.55515 0,0.66649 -0.23009,1.30918 -0.22217,0.63475 -0.7379,1.34885 -0.51574,0.70616 -1.37266,1.57101 -0.84898,0.86485 -2.10262,1.9836 h 4.69718 l -0.26977,1.91219 h -7.3076 v -1.7773 q 1.35679,-1.30918 2.26924,-2.25338 0.9204,-0.94419 1.46787,-1.62655 0.55541,-0.69029 0.79344,-1.2219 0.23803,-0.53161 0.23803,-1.02354 0,-0.66649 -0.38878,-1.05528 -0.38085,-0.38878 -1.08702,-0.38878 -0.62681,0 -1.08701,0.26183 -0.4602,0.26184 -0.88865,0.84899 l -1.53928,-1.15843 q 0.61888,-0.85691 1.52341,-1.36472 0.90452,-0.51573 2.22957,-0.51573 z m 19.05793,2.08675 v 3.26104 h 3.19757 v 1.936 H 269.291 v 3.26104 h -2.09468 v -3.26104 h -3.1817 v -1.936 h 3.1817 v -3.26104 z m 16.21742,-2.08675 q 1.25364,0 2.09469,0.43639 0.84898,0.43639 1.2695,1.15842 0.42846,0.7141 0.42846,1.55515 0,0.66649 -0.2301,1.30918 -0.22216,0.63475 -0.7379,1.34885 -0.51573,0.70616 -1.37265,1.57101 -0.84898,0.86485 -2.10262,1.9836 h 4.69717 l -0.26977,1.91219 h -7.30759 v -1.7773 q 1.35678,-1.30918 2.26924,-2.25338 0.92039,-0.94419 1.46787,-1.62655 0.55541,-0.69029 0.79344,-1.2219 0.23803,-0.53161 0.23803,-1.02354 0,-0.66649 -0.38879,-1.05528 -0.38085,-0.38878 -1.08701,-0.38878 -0.62682,0 -1.08701,0.26183 -0.4602,0.26184 -0.88866,0.84899 l -1.53927,-1.15843 q 0.61888,-0.85691 1.5234,-1.36472 0.90453,-0.51573 2.22957,-0.51573 z m 16.82837,1.87252 h 2.38033 l -0.34118,2.99127 2.73737,-1.25364 0.7379,2.26131 -2.95954,0.59508 2.03121,2.22957 -1.91219,1.38059 -1.48374,-2.60249 -1.48373,2.60249 -1.91219,-1.38059 2.03121,-2.22957 -2.95954,-0.59508 0.7379,-2.26131 2.73737,1.25364 z m 18.44699,-1.87252 q 1.25364,0 2.09468,0.43639 0.84898,0.43639 1.26951,1.15842 0.42846,0.7141 0.42846,1.55515 0,0.66649 -0.2301,1.30918 -0.22216,0.63475 -0.7379,1.34885 -0.51574,0.70616 -1.37265,1.57101 -0.84899,0.86485 -2.10262,1.9836 h 4.69717 l -0.26977,1.91219 h -7.30759 v -1.7773 q 1.35678,-1.30918 2.26924,-2.25338 0.92039,-0.94419 1.46786,-1.62655 0.55541,-0.69029 0.79344,-1.2219 0.23804,-0.53161 0.23804,-1.02354 0,-0.66649 -0.38879,-1.05528 -0.38085,-0.38878 -1.08701,-0.38878 -0.62682,0 -1.08702,0.26183 -0.46019,0.26184 -0.88865,0.84899 l -1.53928,-1.15843 q 0.61889,-0.85691 1.52341,-1.36472 0.90452,-0.51573 2.22957,-0.51573 z m 15.66994,13.0521 -1.95979,-0.89659 6.67283,-13.84554 1.94394,0.89659 z m 8.81884,0 -1.95979,-0.89659 6.67283,-13.84554 1.94394,0.89659 z m 19.60542,-13.0521 q 1.25364,0 2.09468,0.43639 0.84898,0.43639 1.26951,1.15842 0.42846,0.7141 0.42846,1.55515 0,0.66649 -0.2301,1.30918 -0.22216,0.63475 -0.7379,1.34885 -0.51574,0.70616 -1.37265,1.57101 -0.84899,0.86485 -2.10262,1.9836 h 4.69717 l -0.26977,1.91219 h -7.30759 v -1.7773 q 1.35678,-1.30918 2.26924,-2.25338 0.92039,-0.94419 1.46786,-1.62655 0.55541,-0.69029 0.79344,-1.2219 0.23804,-0.53161 0.23804,-1.02354 0,-0.66649 -0.38879,-1.05528 -0.38085,-0.38878 -1.08701,-0.38878 -0.62682,0 -1.08702,0.26183 -0.46019,0.26184 -0.88865,0.84899 l -1.53928,-1.15843 q 0.61889,-0.85691 1.52341,-1.36472 0.90452,-0.51573 2.22957,-0.51573 z m 16.82837,1.87252 h 2.38032 l -0.34118,2.99127 2.73737,-1.25364 0.7379,2.26131 -2.95953,0.59508 2.03121,2.22957 -1.91219,1.38059 -1.48374,-2.60249 -1.48373,2.60249 -1.9122,-1.38059 2.03121,-2.22957 -2.95953,-0.59508 0.7379,-2.26131 2.73737,1.25364 z m 8.81883,0 h 2.38032 l -0.34118,2.99127 2.73738,-1.25364 0.7379,2.26131 -2.95954,0.59508 2.03121,2.22957 -1.91219,1.38059 -1.48374,-2.60249 -1.48373,2.60249 -1.91219,-1.38059 2.0312,-2.22957 -2.95953,-0.59508 0.7379,-2.26131 2.73737,1.25364 z m 18.44699,-1.87252 q 1.25364,0 2.09469,0.43639 0.84898,0.43639 1.2695,1.15842 0.42846,0.7141 0.42846,1.55515 0,0.66649 -0.2301,1.30918 -0.22216,0.63475 -0.7379,1.34885 -0.51574,0.70616 -1.37265,1.57101 -0.84898,0.86485 -2.10262,1.9836 h 4.69717 l -0.26977,1.91219 h -7.30759 v -1.7773 q 1.35678,-1.30918 2.26924,-2.25338 0.92039,-0.94419 1.46787,-1.62655 0.5554,-0.69029 0.79344,-1.2219 0.23803,-0.53161 0.23803,-1.02354 0,-0.66649 -0.38879,-1.05528 -0.38085,-0.38878 -1.08701,-0.38878 -0.62682,0 -1.08702,0.26183 -0.46019,0.26184 -0.88865,0.84899 l -1.53927,-1.15843 q 0.61888,-0.85691 1.5234,-1.36472 0.90452,-0.51573 2.22957,-0.51573 z m 14.58293,7.28379 v -1.95187 h 6.8712 v 1.95187 z m 20.69243,-7.28379 q 1.25364,0 2.09469,0.43639 0.84898,0.43639 1.2695,1.15842 0.42846,0.7141 0.42846,1.55515 0,0.66649 -0.2301,1.30918 -0.22216,0.63475 -0.7379,1.34885 -0.51574,0.70616 -1.37265,1.57101 -0.84898,0.86485 -2.10262,1.9836 h 4.69717 l -0.26977,1.91219 h -7.30759 v -1.7773 q 1.35678,-1.30918 2.26924,-2.25338 0.92039,-0.94419 1.46787,-1.62655 0.5554,-0.69029 0.79344,-1.2219 0.23803,-0.53161 0.23803,-1.02354 0,-0.66649 -0.38879,-1.05528 -0.38085,-0.38878 -1.08701,-0.38878 -0.62682,0 -1.08702,0.26183 -0.46019,0.26184 -0.88865,0.84899 l -1.53927,-1.15843 q 0.61888,-0.85691 1.5234,-1.36472 0.90452,-0.51573 2.22957,-0.51573 z m 20.00214,-0.0873 1.34091,0.55541 -5.4192,11.26686 -1.32505,-0.55541 z m -4.41947,0.0873 q 1.06321,0 1.65829,0.68236 0.59508,0.67442 0.59508,1.80904 0,1.12669 -0.59508,1.80111 -0.59508,0.67443 -1.65829,0.67443 -1.07115,0 -1.67416,-0.67443 -0.59508,-0.67442 -0.59508,-1.80111 0,-1.08701 0.59508,-1.78524 0.60301,-0.70616 1.67416,-0.70616 z m 0,1.22983 q -0.38879,0 -0.51574,0.34118 -0.11901,0.33325 -0.11901,0.92039 0,0.56334 0.13488,0.90452 0.13489,0.34118 0.49987,0.34118 0.39672,0 0.51574,-0.32531 0.11901,-0.33324 0.11901,-0.92039 0,-0.63475 -0.11901,-0.94419 -0.11902,-0.31738 -0.51574,-0.31738 z m 4.87173,5.17324 q 1.06321,0 1.65829,0.68236 0.59508,0.67442 0.59508,1.80904 0,1.12669 -0.59508,1.80111 -0.59508,0.67443 -1.65829,0.67443 -1.07115,0 -1.67416,-0.67443 -0.59508,-0.67442 -0.59508,-1.80111 0,-1.08701 0.59508,-1.78524 0.60301,-0.70616 1.67416,-0.70616 z m 0,1.22983 q -0.38879,0 -0.51574,0.34118 -0.11902,0.33324 -0.11902,0.92039 0,0.56334 0.13489,0.90452 0.13488,0.34118 0.49987,0.34118 0.39672,0 0.51573,-0.32531 0.11902,-0.33324 0.11902,-0.92039 0,-0.63475 -0.11902,-0.94419 -0.11901,-0.31738 -0.51573,-0.31738 z m 14.82096,-7.6329 q 1.25364,0 2.09469,0.43639 0.84898,0.43639 1.2695,1.15842 0.42846,0.7141 0.42846,1.55515 0,0.66649 -0.2301,1.30918 -0.22216,0.63475 -0.7379,1.34885 -0.51574,0.70616 -1.37265,1.57101 -0.84898,0.86485 -2.10262,1.9836 h 4.69717 l -0.26977,1.91219 h -7.30759 v -1.7773 q 1.35678,-1.30918 2.26924,-2.25338 0.92039,-0.94419 1.46787,-1.62655 0.5554,-0.69029 0.79344,-1.2219 0.23803,-0.53161 0.23803,-1.02354 0,-0.66649 -0.38879,-1.05528 -0.38085,-0.38878 -1.08701,-0.38878 -0.62682,0 -1.08702,0.26183 -0.46019,0.26184 -0.88865,0.84899 l -1.53927,-1.15843 q 0.61888,-0.85691 1.5234,-1.36472 0.90452,-0.51573 2.22957,-0.51573 z"
       id="text1"
       style="font-weight:bold;font-size:15.4721px;line-height:0.9;font-family:'Fira Code';-inkscape-font-specification:'Fira Code, Bold';font-variant-ligatures:no-contextual;letter-spacing:-0.70246px;fill:#f8f8f2;stroke-width:0.999999;stroke-linecap:round;stroke-opacity:0.998262"
       aria-label="2 + 2 * 2 // 2 ** 2 - 2 % 2" />
    <g
       id="g17"
       class="fragment">
      <path
         d="m 305.90838,227.45581 v 2.65009 h 1.10289 v 1.88046 h -1.10289 v 2.30891 h -2.40412 l -0.0159,-2.30891 h -4.55435 v -1.66623 l 3.05475,-7.29965 2.13435,0.7855 -2.60248,6.29992 h 1.97566 l 0.29358,-2.65009 z"
         id="text3"
         style="font-weight:bold;font-size:15.4721px;line-height:0.9;font-family:'Fira Code';-inkscape-font-specification:'Fira Code, Bold';font-variant-ligatures:no-contextual;letter-spacing:-0.70246px;fill:#66d9ef;stroke-width:0.999999;stroke-linecap:round;stroke-opacity:0.998262"
         aria-label="4" />
      <path
         id="path9"
         style="fill:none;fill-opacity:1;stroke:#ae81ff;stroke-width:1.5;stroke-linecap:round;stroke-linejoin:bevel;stroke-dasharray:none;stroke-opacity:0.998262"
         d="m 302.97265,237.45127 0.037,18.94995 m -17.06294,-1.52011 17.02594,-17.42984 17.02581,17.44995" />
    </g>
    <g
       id="g18"
       class="fragment">
      <path
         d="m 389.94604,227.45581 v 2.65009 h 1.10289 v 1.88046 h -1.10289 v 2.30891 h -2.40412 l -0.0159,-2.30891 h -4.55435 v -1.66623 l 3.05474,-7.29965 2.13436,0.7855 -2.60249,6.29992 h 1.97567 l 0.29358,-2.65009 z"
         id="text4"
         style="font-weight:bold;font-size:15.4721px;line-height:0.9;font-family:'Fira Code';-inkscape-font-specification:'Fira Code, Bold';font-variant-ligatures:no-contextual;letter-spacing:-0.70246px;fill:#66d9ef;stroke-width:0.999999;stroke-linecap:round;stroke-opacity:0.998262"
         aria-label="4" />
      <path
         id="path10"
         style="fill:none;fill-opacity:1;stroke:#ae81ff;stroke-width:1.5;stroke-linecap:round;stroke-linejoin:bevel;stroke-dasharray:none;stroke-opacity:0.998262"
         d="m 387.01038,237.45127 0.037,18.94995 m -17.06294,-1.52011 17.02594,-17.42984 17.02581,17.44995" />
    </g>
    <g
       id="g19"
       class="fragment">
      <path
         d="m 349.48225,195.68423 v 1.89632 h -7.14891 v -1.89632 h 2.65009 v -6.63317 l -2.2613,1.41233 -1.06321,-1.72177 3.54668,-2.15816 h 2.22163 v 9.10077 z"
         id="text5"
         style="font-weight:bold;font-size:15.4721px;line-height:0.9;font-family:'Fira Code';-inkscape-font-specification:'Fira Code, Bold';font-variant-ligatures:no-contextual;letter-spacing:-0.70246px;fill:#66d9ef;stroke-width:0.999999;stroke-linecap:round;stroke-opacity:0.998262"
         aria-label="1" />
      <path
         id="path12"
         style="fill:none;fill-opacity:1;stroke:#ae81ff;stroke-width:1.5;stroke-linecap:round;stroke-linejoin:bevel;stroke-dasharray:none;stroke-opacity:0.998262"
         d="m 345.57058,200.79106 -0.5791,51.58586 m -42.01883,-32.97164 42.59793,-18.61422 41.43973,19.12478" />
    </g>
    <g
       id="g20"
       class="fragment">
      <path
         d="m 291.87772,145.74214 q 1.19016,0 2.02328,0.38879 0.84104,0.38085 1.27744,1.02354 0.44432,0.63475 0.44432,1.40439 0,1.04734 -0.61888,1.69796 -0.61095,0.64269 -1.62656,0.93626 1.13462,0.15075 1.86459,0.77757 0.72997,0.61889 0.72997,1.95187 0,0.92832 -0.51574,1.69003 -0.5078,0.7617 -1.45993,1.2219 -0.95213,0.45226 -2.27718,0.45226 -1.22983,0 -2.20576,-0.42846 -0.97594,-0.43639 -1.66623,-1.2219 l 1.41233,-1.31711 q 0.47606,0.54747 1.05527,0.80137 0.58715,0.24597 1.23777,0.24597 0.81724,0 1.33298,-0.41259 0.51574,-0.42052 0.51574,-1.20603 0,-0.87278 -0.49194,-1.25364 -0.484,-0.38878 -1.37265,-0.38878 h -0.99973 l 0.28563,-1.7297 h 0.7141 q 0.72997,0 1.19016,-0.35705 0.46813,-0.35705 0.46813,-1.07908 0,-0.61889 -0.44432,-0.97593 -0.44433,-0.35705 -1.15049,-0.35705 -0.65856,0 -1.1981,0.2539 -0.53161,0.2539 -0.99974,0.69823 l -1.28537,-1.33299 q 0.75377,-0.72996 1.69003,-1.10288 0.93626,-0.38085 2.07088,-0.38085 z"
         id="text6"
         style="font-weight:bold;font-size:15.4721px;line-height:0.9;font-family:'Fira Code';-inkscape-font-specification:'Fira Code, Bold';font-variant-ligatures:no-contextual;letter-spacing:-0.70246px;fill:#66d9ef;stroke-width:0.999999;stroke-linecap:round;stroke-opacity:0.998262"
         aria-label="3" />
      <path
         id="path14"
         style="fill:none;fill-opacity:1;stroke:#ae81ff;stroke-width:1.5;stroke-linecap:round;stroke-linejoin:bevel;stroke-dasharray:none;stroke-opacity:0.998262"
         d="m 291.90946,160.13701 -22.55409,95.11191 m -18.87068,-1.372 41.42477,-93.73991 53.66112,22.654" />
    </g>
    <g
       id="g21"
       class="fragment">
      <path
         d="m 462.2384,222.7507 q 1.96773,0 2.96747,1.52341 1.00767,1.51547 1.00767,4.22904 0,2.7215 -1.00767,4.26078 -0.99974,1.53134 -2.96747,1.53134 -1.9836,0 -2.98334,-1.53134 -0.9918,-1.53928 -0.9918,-4.26078 0,-2.71357 0.9918,-4.22904 0.99974,-1.52341 2.98334,-1.52341 z m 0,1.81698 q -0.84105,0 -1.22983,0.90452 -0.38879,0.89659 -0.38879,3.03095 0,0.69823 0.0238,1.2457 0.0238,0.53954 0.0714,0.96006 l 2.68183,-5.60962 q -0.19042,-0.30151 -0.47606,-0.41259 -0.27771,-0.11902 -0.68236,-0.11902 z m 1.60275,3.93547 q 0,-0.91246 -0.0397,-1.53928 l -2.53108,5.22878 q 0.17456,0.16662 0.41259,0.2301 0.24597,0.0635 0.55541,0.0635 0.56334,0 0.91246,-0.38085 0.35704,-0.38085 0.52367,-1.25364 0.16662,-0.88072 0.16662,-2.34858 z"
         id="text7"
         style="font-weight:bold;font-size:15.4721px;line-height:0.9;font-family:'Fira Code';-inkscape-font-specification:'Fira Code, Bold';font-variant-ligatures:no-contextual;letter-spacing:-0.70246px;fill:#66d9ef;stroke-width:0.999999;stroke-linecap:round;stroke-opacity:0.998262"
         aria-label="0" />
      <path
         id="path15"
         style="fill:none;fill-opacity:1;stroke:#ae81ff;stroke-width:1.5;stroke-linecap:round;stroke-linejoin:bevel;stroke-dasharray:none;stroke-opacity:0.998262"
         d="m 462.23846,237.45127 0.037,18.94995 m -17.06294,-1.52011 17.02594,-17.42984 17.02581,17.44995" />
    </g>
    <g
       id="g22"
       class="fragment">
      <path
         d="m 413.03977,105.11868 q 1.19016,0 2.02327,0.38879 0.84105,0.38085 1.27744,1.02354 0.44433,0.63475 0.44433,1.40439 0,1.04734 -0.61888,1.69796 -0.61095,0.64269 -1.62656,0.93626 1.13462,0.15075 1.86459,0.77757 0.72996,0.61889 0.72996,1.95187 0,0.92832 -0.51573,1.69003 -0.5078,0.7617 -1.45993,1.2219 -0.95213,0.45226 -2.27718,0.45226 -1.22983,0 -2.20577,-0.42846 -0.97593,-0.43639 -1.66622,-1.2219 l 1.41232,-1.31711 q 0.47607,0.54747 1.05528,0.80137 0.58715,0.24597 1.23777,0.24597 0.81724,0 1.33298,-0.41259 0.51574,-0.42052 0.51574,-1.20603 0,-0.87278 -0.49194,-1.25364 -0.484,-0.38878 -1.37265,-0.38878 h -0.99974 l 0.28564,-1.7297 h 0.7141 q 0.72997,0 1.19016,-0.35705 0.46813,-0.35705 0.46813,-1.07908 0,-0.61889 -0.44433,-0.97593 -0.44432,-0.35705 -1.15049,-0.35705 -0.65855,0 -1.19809,0.2539 -0.53161,0.2539 -0.99974,0.69823 l -1.28537,-1.33298 q 0.75377,-0.72997 1.69003,-1.10289 0.93626,-0.38085 2.07088,-0.38085 z"
         id="text8"
         style="font-weight:bold;font-size:15.4721px;line-height:0.9;font-family:'Fira Code';-inkscape-font-specification:'Fira Code, Bold';font-variant-ligatures:no-contextual;letter-spacing:-0.70246px;fill:#f92672;stroke-width:0.999999;stroke-linecap:round;stroke-opacity:0.998262"
         aria-label="3" />
      <path
         id="path17"
         style="fill:none;fill-opacity:1;stroke:#ae81ff;stroke-width:1.5;stroke-linecap:round;stroke-linejoin:bevel;stroke-dasharray:none;stroke-opacity:0.998262"
         d="m 413.0715,120.52739 14.07481,135.19788 M 291.90946,142.73128 413.0715,120.52739 l 49.1669,98.28675" />
    </g>
  </g>
</svg>
