<?xml version="1.0" encoding="UTF-8" standalone="no"?>
<!-- Created with Inkscape (http://www.inkscape.org/) -->

<svg
   width="386.02573mm"
   height="164.34329mm"
   viewBox="0 0 386.02573 164.34329"
   version="1.1"
   id="svg1"
   inkscape:version="1.3 (0e150ed6c4, 2023-07-21)"
   sodipodi:docname="exam1_p1b.svg"
   xmlns:inkscape="http://www.inkscape.org/namespaces/inkscape"
   xmlns:sodipodi="http://sodipodi.sourceforge.net/DTD/sodipodi-0.dtd"
   xmlns="http://www.w3.org/2000/svg"
   xmlns:svg="http://www.w3.org/2000/svg">
  <sodipodi:namedview
     id="namedview1"
     pagecolor="#555555"
     bordercolor="#000000"
     borderopacity="0.25"
     inkscape:showpageshadow="2"
     inkscape:pageopacity="0.0"
     inkscape:pagecheckerboard="0"
     inkscape:deskcolor="#d1d1d1"
     inkscape:document-units="mm"
     inkscape:zoom="1.0556608"
     inkscape:cx="601.51899"
     inkscape:cy="250.55397"
     inkscape:window-width="2560"
     inkscape:window-height="1413"
     inkscape:window-x="1080"
     inkscape:window-y="27"
     inkscape:window-maximized="1"
     inkscape:current-layer="layer1" />
  <defs
     id="defs1" />
  <g
     inkscape:label="Layer 1"
     inkscape:groupmode="layer"
     id="layer1"
     transform="translate(-232.37795,-113.66749)">
    <text
       xml:space="preserve"
       style="font-style:normal;font-variant:normal;font-weight:bold;font-stretch:normal;font-size:15.4721px;line-height:0.9;font-family:'Fira Code';-inkscape-font-specification:'Fira Code, Bold';font-variant-ligatures:no-contextual;font-variant-caps:normal;font-variant-numeric:normal;font-variant-east-asian:normal;letter-spacing:-0.70246px;fill:#272822;fill-opacity:1;stroke-width:0.999999;stroke-linecap:round;stroke-opacity:0.998262"
       x="179.0206"
       y="71.891838"
       id="text2"><tspan
         sodipodi:role="line"
         id="tspan2"
         style="font-style:normal;font-variant:normal;font-weight:bold;font-stretch:normal;font-size:15.4721px;font-family:'Fira Code';-inkscape-font-specification:'Fira Code, Bold';font-variant-ligatures:no-contextual;font-variant-caps:normal;font-variant-numeric:normal;font-variant-east-asian:normal;fill:#272822;fill-opacity:1;stroke-width:0.999999"
         x="179.0206"
         y="71.891838">1</tspan></text>
    <path
       d="m 232.37795,275.51144 v -8.42634 h 2.1899 l 0.17456,0.97593 q 0.56334,-0.63475 1.19016,-0.94419 0.62682,-0.30944 1.42819,-0.30944 1.07908,0 1.69797,0.65855 0.61888,0.65856 0.61888,1.85665 v 6.18884 h -2.50727 v -5.4668 q 0,-0.77758 -0.17456,-1.07908 -0.16662,-0.30945 -0.63475,-0.30945 -0.39672,0 -0.76171,0.2539 -0.35704,0.25391 -0.71409,0.70617 v 5.89526 z m 12.46867,-8.70404 q 1.30124,0 2.2137,0.5554 0.91246,0.55541 1.39646,1.56308 0.484,0.99974 0.484,2.34859 0,2.11055 -1.07908,3.30865 -1.07908,1.19809 -3.01508,1.19809 -1.936,0 -3.01508,-1.18222 -1.07907,-1.18223 -1.07907,-3.30865 0,-1.34092 0.48399,-2.34859 0.49194,-1.00767 1.40439,-1.57101 0.9204,-0.56334 2.20577,-0.56334 z m 0,1.84871 q -0.76964,0 -1.14255,0.63476 -0.36499,0.62681 -0.36499,1.99947 0,1.39645 0.36499,2.02327 0.37291,0.62682 1.14255,0.62682 0.76964,0 1.13462,-0.62682 0.37292,-0.62682 0.37292,-2.03914 0,-1.36472 -0.37292,-1.99154 -0.36498,-0.62682 -1.13462,-0.62682 z m 12.75431,6.3634 q -0.49194,0.31738 -1.19016,0.53954 -0.69823,0.22216 -1.57102,0.22216 -1.65035,0 -2.45173,-0.84104 -0.80138,-0.84899 -0.80138,-2.30098 v -3.82439 h -1.76937 v -1.7297 h 1.76937 v -1.82491 l 2.50728,-0.30151 v 2.12642 h 2.71357 l -0.24597,1.7297 h -2.4676 v 3.82439 q 0,0.62682 0.28564,0.89659 0.28564,0.26977 0.91245,0.26977 0.44433,0 0.80931,-0.10315 0.37292,-0.11108 0.66649,-0.27771 z m 13.07539,-5.06215 q 0,0.98386 0.15075,1.81698 0.15076,0.82518 0.49987,1.60275 0.34912,0.77757 0.92833,1.58688 0.57921,0.80138 1.43613,1.7297 l -1.45994,1.31711 q -1.25363,-1.07908 -2.17402,-2.27717 -0.9204,-1.1981 -1.42026,-2.61836 -0.49987,-1.42026 -0.49987,-3.15789 0,-1.73764 0.49987,-3.1579 0.49986,-1.42026 1.42026,-2.61835 0.92039,-1.1981 2.17402,-2.27718 l 1.45994,1.31711 q -1.06322,1.15843 -1.72971,2.20577 -0.66649,1.03941 -0.97593,2.13435 -0.30944,1.08702 -0.30944,2.3962 z m 12.36552,-1.28538 v 2.6501 h 1.10288 v 1.88045 h -1.10288 v 2.30891 h -2.40413 l -0.0159,-2.30891 h -4.55436 v -1.66623 l 3.05475,-7.29965 2.13436,0.7855 -2.60249,6.29993 h 1.97567 l 0.29357,-2.6501 z m 17.28063,-2.88019 1.09495,1.7297 -5.14943,3.00714 5.14943,2.95161 -1.13462,1.78524 -6.1809,-3.84026 v -1.77731 z m 15.01139,-1.55514 q 1.34885,0 2.24544,0.55541 0.89659,0.5554 1.34885,1.54721 0.45226,0.98386 0.45226,2.28511 0,2.11055 -0.7141,3.57841 -0.7141,1.45994 -2.19783,2.38826 -1.48373,0.92039 -3.79265,1.39646 l -0.51573,-1.76144 q 1.94393,-0.49193 3.04681,-1.30124 1.10288,-0.80931 1.4758,-2.11056 -0.484,0.42846 -1.02354,0.66649 -0.53161,0.2301 -1.2219,0.2301 -0.86485,0 -1.57101,-0.43639 -0.70616,-0.43639 -1.12669,-1.22983 -0.41259,-0.79345 -0.41259,-1.85666 0,-1.19016 0.52367,-2.07881 0.53161,-0.88866 1.43613,-1.38059 0.91246,-0.49193 2.04708,-0.49193 z m -1.48374,3.87992 q 0,1.01561 0.39672,1.4282 0.40466,0.41259 0.968,0.41259 0.45226,0 0.83312,-0.15869 0.38085,-0.16662 0.74583,-0.484 0.0159,-1.66623 -0.26183,-2.47554 -0.26977,-0.81724 -1.21397,-0.81724 -0.67442,0 -1.07115,0.5078 -0.39672,0.5078 -0.39672,1.58688 z m 10.99287,1.84079 q 0,-1.30918 -0.30944,-2.3962 -0.30944,-1.09494 -0.97593,-2.13435 -0.65856,-1.04734 -1.7297,-2.20577 l 1.45993,-1.31711 q 1.25364,1.07908 2.17403,2.27718 0.92039,1.19809 1.42026,2.61835 0.49986,1.42026 0.49986,3.1579 0,1.73763 -0.49986,3.15789 -0.49987,1.42026 -1.42026,2.61836 -0.92039,1.19809 -2.17403,2.27717 l -1.45993,-1.31711 q 0.85691,-0.92832 1.43613,-1.7297 0.57921,-0.80931 0.92832,-1.58688 0.34912,-0.77757 0.49987,-1.60275 0.15075,-0.83312 0.15075,-1.81698 z m 17.01086,-3.14996 q 1.30125,0 2.21371,0.5554 0.91245,0.55541 1.39645,1.56308 0.484,0.99974 0.484,2.34859 0,2.11055 -1.07908,3.30865 -1.07908,1.19809 -3.01508,1.19809 -1.93599,0 -3.01507,-1.18222 -1.07908,-1.18223 -1.07908,-3.30865 0,-1.34092 0.484,-2.34859 0.49193,-1.00767 1.40439,-1.57101 0.92039,-0.56334 2.20576,-0.56334 z m 0,1.84871 q -0.76963,0 -1.14255,0.63476 -0.36498,0.62681 -0.36498,1.99947 0,1.39645 0.36498,2.02327 0.37292,0.62682 1.14255,0.62682 0.76964,0 1.13463,-0.62682 0.37291,-0.62682 0.37291,-2.03914 0,-1.36472 -0.37291,-1.99154 -0.36499,-0.62682 -1.13463,-0.62682 z m 5.24836,6.85533 v -1.68209 h 1.11082 v -5.07802 h -1.11082 v -1.66623 h 3.02301 l 0.4602,1.89632 q 0.45226,-1.08701 1.15049,-1.61862 0.70616,-0.5316 1.72176,-0.5316 0.42846,0 0.76171,0.0714 0.33324,0.0635 0.62681,0.18249 l -0.46813,3.52288 h -1.57101 v -1.55515 q -0.7141,0.12695 -1.25364,0.77758 -0.53954,0.64268 -0.83311,1.58688 v 2.41206 h 1.66623 v 1.68209 z m 20.93839,-1.5234 q 0.62682,0 1.00767,-0.19836 0.38879,-0.19836 0.38879,-0.59508 0,-0.26977 -0.15075,-0.45227 -0.15076,-0.18249 -0.57921,-0.34911 -0.42846,-0.16662 -1.26951,-0.39672 -1.15842,-0.30944 -1.88839,-0.88865 -0.72203,-0.57922 -0.72203,-1.69797 0,-1.12668 0.93626,-1.86458 0.94419,-0.7379 2.7215,-0.7379 1.12669,0 1.9598,0.29357 0.84105,0.28564 1.452,0.72996 l -0.99974,1.47581 q -0.52367,-0.32532 -1.12668,-0.51574 -0.60302,-0.19836 -1.21397,-0.19836 -1.20603,0 -1.20603,0.65062 0,0.21423 0.15075,0.37292 0.15869,0.15075 0.58715,0.31737 0.42846,0.15869 1.25364,0.39672 0.81724,0.2301 1.42026,0.53161 0.61095,0.30151 0.94419,0.80931 0.33325,0.49987 0.33325,1.32505 0,0.92039 -0.54748,1.54721 -0.54747,0.61888 -1.45199,0.92832 -0.90453,0.30944 -1.98361,0.30944 -1.2219,0 -2.15816,-0.34911 -0.93626,-0.34911 -1.59481,-0.92039 l 1.26157,-1.41233 q 0.49193,0.38086 1.11082,0.63476 0.62681,0.2539 1.36471,0.2539 z m 13.02407,1.03147 q -0.49193,0.31738 -1.19016,0.53954 -0.69823,0.22216 -1.57101,0.22216 -1.65036,0 -2.45173,-0.84104 -0.80138,-0.84899 -0.80138,-2.30098 v -3.82439 h -1.76937 v -1.7297 h 1.76937 v -1.82491 l 2.50728,-0.30151 v 2.12642 h 2.71356 l -0.24596,1.7297 h -2.4676 v 3.82439 q 0,0.62682 0.28563,0.89659 0.28564,0.26977 0.91246,0.26977 0.44433,0 0.80931,-0.10315 0.37292,-0.11108 0.66649,-0.27771 z m 1.3129,0.49193 v -1.68209 h 1.11082 v -5.07802 h -1.11082 v -1.66623 h 3.02301 l 0.4602,1.89632 q 0.45226,-1.08701 1.15049,-1.61862 0.70616,-0.5316 1.72176,-0.5316 0.42846,0 0.76171,0.0714 0.33324,0.0635 0.62681,0.18249 l -0.46813,3.52288 h -1.57101 v -1.55515 q -0.7141,0.12695 -1.25364,0.77758 -0.53954,0.64268 -0.83311,1.58688 v 2.41206 h 1.66623 v 1.68209 z m 11.7625,-5.55408 q 0,0.98386 0.15075,1.81698 0.15076,0.82518 0.49987,1.60275 0.34911,0.77757 0.92833,1.58688 0.57921,0.80138 1.43612,1.7297 l -1.45993,1.31711 q -1.25363,-1.07908 -2.17403,-2.27717 -0.92039,-1.1981 -1.42025,-2.61836 -0.49987,-1.42026 -0.49987,-3.15789 0,-1.73764 0.49987,-3.1579 0.49986,-1.42026 1.42025,-2.61835 0.9204,-1.1981 2.17403,-2.27718 l 1.45993,1.31711 q -1.06321,1.15843 -1.7297,2.20577 -0.66649,1.03941 -0.97593,2.13435 -0.30944,1.08702 -0.30944,2.3962 z m 12.85746,-5.44301 -0.2777,1.79318 h -4.02275 v 2.37239 q 0.40466,-0.19043 0.83311,-0.26977 0.42846,-0.0793 0.79344,-0.0793 0.84899,0 1.54721,0.42846 0.70617,0.42846 1.11876,1.22983 0.42052,0.80138 0.42052,1.9122 0,1.11081 -0.54747,1.99153 -0.53954,0.88072 -1.50754,1.38853 -0.968,0.49986 -2.26131,0.49986 -1.19809,0 -2.11849,-0.44432 -0.92039,-0.45226 -1.53134,-1.1981 l 1.44407,-1.31711 q 0.39672,0.5078 0.91245,0.77757 0.52367,0.26184 1.09495,0.26184 0.87279,0 1.39646,-0.53161 0.5316,-0.5316 0.5316,-1.38852 0,-1.01561 -0.41259,-1.44406 -0.40465,-0.4364 -1.07114,-0.4364 -0.30151,0 -0.64269,0.0794 -0.34118,0.0793 -0.70616,0.28564 h -1.69003 v -5.91114 z m 13.03572,1.59482 h 2.38033 l -0.34118,2.99127 2.73737,-1.25364 0.7379,2.26131 -2.95954,0.59508 2.03121,2.22957 -1.91219,1.38059 -1.48374,-2.60249 -1.48373,2.60249 -1.91219,-1.38059 2.03121,-2.22957 -2.95954,-0.59508 0.7379,-2.26131 2.73737,1.25364 z m 18.44699,-1.87252 q 1.25364,0 2.09469,0.43639 0.84898,0.43639 1.2695,1.15842 0.42846,0.7141 0.42846,1.55515 0,0.66649 -0.2301,1.30918 -0.22216,0.63475 -0.7379,1.34885 -0.51573,0.70616 -1.37265,1.57101 -0.84898,0.86485 -2.10262,1.9836 h 4.69717 l -0.26977,1.91219 h -7.30759 v -1.7773 q 1.35678,-1.30918 2.26924,-2.25338 0.92039,-0.94419 1.46787,-1.62655 0.55541,-0.69029 0.79344,-1.2219 0.23803,-0.53161 0.23803,-1.02354 0,-0.66649 -0.38878,-1.05528 -0.38086,-0.38878 -1.08702,-0.38878 -0.62682,0 -1.08701,0.26183 -0.4602,0.26184 -0.88866,0.84899 l -1.53927,-1.15843 q 0.61888,-0.85691 1.5234,-1.36472 0.90453,-0.51573 2.22957,-0.51573 z m 9.82651,5.72071 q 0,-1.30918 -0.30945,-2.3962 -0.30944,-1.09494 -0.97593,-2.13435 -0.65855,-1.04734 -1.7297,-2.20577 l 1.45993,-1.31711 q 1.25364,1.07908 2.17403,2.27718 0.92039,1.19809 1.42026,2.61835 0.49987,1.42026 0.49987,3.1579 0,1.73763 -0.49987,3.15789 -0.49987,1.42026 -1.42026,2.61836 -0.92039,1.19809 -2.17403,2.27717 l -1.45993,-1.31711 q 0.85692,-0.92832 1.43613,-1.7297 0.57921,-0.80931 0.92832,-1.58688 0.34912,-0.77757 0.49987,-1.60275 0.15076,-0.83312 0.15076,-1.81698 z m 18.34384,-5.44301 -0.31738,6.95054 h -2.02327 l -0.32531,-6.95054 z m -1.33298,8.39461 q 0.60301,0 1.0156,0.42846 0.42053,0.42052 0.42053,1.00767 0,0.58714 -0.42053,1.0156 -0.41259,0.42052 -1.0156,0.42052 -0.58715,0 -1.01561,-0.42052 -0.42052,-0.42846 -0.42052,-1.0156 0,-0.58715 0.42052,-1.00767 0.42846,-0.42846 1.01561,-0.42846 z m 12.42105,-4.98281 v 1.9598 h -7.20444 v -1.9598 z m 0,3.34038 v 1.94394 h -7.20444 v -1.94394 z m 13.76569,2.72151 q 0.62682,0 1.00767,-0.19836 0.38879,-0.19836 0.38879,-0.59508 0,-0.26977 -0.15076,-0.45227 -0.15075,-0.18249 -0.57921,-0.34911 -0.42846,-0.16662 -1.26951,-0.39672 -1.15842,-0.30944 -1.88839,-0.88865 -0.72203,-0.57922 -0.72203,-1.69797 0,-1.12668 0.93626,-1.86458 0.9442,-0.7379 2.72151,-0.7379 1.12668,0 1.9598,0.29357 0.84104,0.28564 1.45199,0.72996 l -0.99973,1.47581 q -0.52367,-0.32532 -1.12669,-0.51574 -0.60301,-0.19836 -1.21396,-0.19836 -1.20603,0 -1.20603,0.65062 0,0.21423 0.15075,0.37292 0.15869,0.15075 0.58715,0.31737 0.42845,0.15869 1.25363,0.39672 0.81725,0.2301 1.42026,0.53161 0.61095,0.30151 0.9442,0.80931 0.33324,0.49987 0.33324,1.32505 0,0.92039 -0.54747,1.54721 -0.54748,0.61888 -1.452,0.92832 -0.90452,0.30944 -1.9836,0.30944 -1.2219,0 -2.15816,-0.34911 -0.93626,-0.34911 -1.59482,-0.92039 l 1.26157,-1.41233 q 0.49194,0.38086 1.11082,0.63476 0.62682,0.2539 1.36472,0.2539 z m 13.02408,1.03147 q -0.49193,0.31738 -1.19016,0.53954 -0.69822,0.22216 -1.57101,0.22216 -1.65036,0 -2.45173,-0.84104 -0.80138,-0.84899 -0.80138,-2.30098 v -3.82439 h -1.76937 v -1.7297 h 1.76937 v -1.82491 l 2.50728,-0.30151 v 2.12642 h 2.71356 l -0.24596,1.7297 h -2.4676 v 3.82439 q 0,0.62682 0.28563,0.89659 0.28564,0.26977 0.91246,0.26977 0.44433,0 0.80931,-0.10315 0.37292,-0.11108 0.66649,-0.27771 z m 1.3129,0.49193 v -1.68209 h 1.11082 v -5.07802 h -1.11082 v -1.66623 h 3.02301 l 0.4602,1.89632 q 0.45226,-1.08701 1.15049,-1.61862 0.70616,-0.5316 1.72176,-0.5316 0.42846,0 0.76171,0.0714 0.33324,0.0635 0.62681,0.18249 l -0.46813,3.52288 h -1.57101 v -1.55515 q -0.7141,0.12695 -1.25364,0.77758 -0.53954,0.64268 -0.83311,1.58688 v 2.41206 h 1.66623 v 1.68209 z m 11.76248,-5.55408 q 0,0.98386 0.15076,1.81698 0.15075,0.82518 0.49987,1.60275 0.34911,0.77757 0.92832,1.58688 0.57921,0.80138 1.43613,1.7297 l -1.45993,1.31711 q -1.25364,-1.07908 -2.17403,-2.27717 -0.92039,-1.1981 -1.42026,-2.61836 -0.49987,-1.42026 -0.49987,-3.15789 0,-1.73764 0.49987,-3.1579 0.49987,-1.42026 1.42026,-2.61835 0.92039,-1.1981 2.17403,-2.27718 l 1.45993,1.31711 q -1.06321,1.15843 -1.7297,2.20577 -0.66649,1.03941 -0.97593,2.13435 -0.30945,1.08702 -0.30945,2.3962 z m 12.85747,-5.44301 -0.27771,1.79318 h -4.02274 v 2.37239 q 0.40465,-0.19043 0.83311,-0.26977 0.42846,-0.0793 0.79344,-0.0793 0.84898,0 1.54721,0.42846 0.70616,0.42846 1.11875,1.22983 0.42053,0.80138 0.42053,1.9122 0,1.11081 -0.54748,1.99153 -0.53954,0.88072 -1.50754,1.38853 -0.96799,0.49986 -2.2613,0.49986 -1.1981,0 -2.11849,-0.44432 -0.92039,-0.45226 -1.53134,-1.1981 l 1.44406,-1.31711 q 0.39672,0.5078 0.91246,0.77757 0.52367,0.26184 1.09495,0.26184 0.87278,0 1.39645,-0.53161 0.53161,-0.5316 0.53161,-1.38852 0,-1.01561 -0.41259,-1.44406 -0.40466,-0.4364 -1.07115,-0.4364 -0.3015,0 -0.64268,0.0794 -0.34118,0.0793 -0.70617,0.28564 h -1.69003 v -5.91114 z m 6.03387,5.44301 q 0,-1.30918 -0.30945,-2.3962 -0.30944,-1.09494 -0.97593,-2.13435 -0.65855,-1.04734 -1.7297,-2.20577 l 1.45993,-1.31711 q 1.25364,1.07908 2.17403,2.27718 0.92039,1.19809 1.42026,2.61835 0.49987,1.42026 0.49987,3.1579 0,1.73763 -0.49987,3.15789 -0.49987,1.42026 -1.42026,2.61836 -0.92039,1.19809 -2.17403,2.27717 l -1.45993,-1.31711 q 0.85692,-0.92832 1.43613,-1.7297 0.57921,-0.80931 0.92832,-1.58688 0.34912,-0.77757 0.49987,-1.60275 0.15076,-0.83312 0.15076,-1.81698 z m 18.05025,-3.63396 v 3.26104 h 3.19757 v 1.936 h -3.19757 v 3.26104 h -2.09468 v -3.26104 h -3.1817 v -1.936 h 3.1817 v -3.26104 z m 16.32852,7.66464 q 0.62682,0 1.00767,-0.19836 0.38878,-0.19836 0.38878,-0.59508 0,-0.26977 -0.15075,-0.45227 -0.15075,-0.18249 -0.57921,-0.34911 -0.42846,-0.16662 -1.26951,-0.39672 -1.15842,-0.30944 -1.88839,-0.88865 -0.72203,-0.57922 -0.72203,-1.69797 0,-1.12668 0.93626,-1.86458 0.9442,-0.7379 2.7215,-0.7379 1.12669,0 1.9598,0.29357 0.84105,0.28564 1.452,0.72996 l -0.99973,1.47581 q -0.52368,-0.32532 -1.12669,-0.51574 -0.60302,-0.19836 -1.21397,-0.19836 -1.20603,0 -1.20603,0.65062 0,0.21423 0.15076,0.37292 0.15869,0.15075 0.58714,0.31737 0.42846,0.15869 1.25364,0.39672 0.81725,0.2301 1.42026,0.53161 0.61095,0.30151 0.9442,0.80931 0.33324,0.49987 0.33324,1.32505 0,0.92039 -0.54747,1.54721 -0.54748,0.61888 -1.452,0.92832 -0.90452,0.30944 -1.9836,0.30944 -1.2219,0 -2.15816,-0.34911 -0.93626,-0.34911 -1.59482,-0.92039 l 1.26157,-1.41233 q 0.49194,0.38086 1.11082,0.63476 0.62682,0.2539 1.36472,0.2539 z m 13.02405,1.03147 q -0.49193,0.31738 -1.19016,0.53954 -0.69823,0.22216 -1.57101,0.22216 -1.65036,0 -2.45174,-0.84104 -0.80137,-0.84899 -0.80137,-2.30098 v -3.82439 h -1.76937 v -1.7297 h 1.76937 v -1.82491 l 2.50727,-0.30151 v 2.12642 h 2.71357 l -0.24597,1.7297 h -2.4676 v 3.82439 q 0,0.62682 0.28564,0.89659 0.28564,0.26977 0.91246,0.26977 0.44433,0 0.80931,-0.10315 0.37292,-0.11108 0.66649,-0.27771 z m 1.3129,0.49193 v -1.68209 h 1.11082 v -5.07802 h -1.11082 v -1.66623 h 3.02301 l 0.46019,1.89632 q 0.45227,-1.08701 1.15049,-1.61862 0.70617,-0.5316 1.72177,-0.5316 0.42846,0 0.7617,0.0714 0.33325,0.0635 0.62682,0.18249 l -0.46813,3.52288 h -1.57101 v -1.55515 q -0.7141,0.12695 -1.25364,0.77758 -0.53954,0.64268 -0.83311,1.58688 v 2.41206 h 1.66623 v 1.68209 z m 11.76251,-5.55408 q 0,0.98386 0.15076,1.81698 0.15075,0.82518 0.49986,1.60275 0.34912,0.77757 0.92833,1.58688 0.57921,0.80138 1.43613,1.7297 l -1.45993,1.31711 q -1.25364,-1.07908 -2.17403,-2.27717 -0.92039,-1.1981 -1.42026,-2.61836 -0.49987,-1.42026 -0.49987,-3.15789 0,-1.73764 0.49987,-3.1579 0.49987,-1.42026 1.42026,-2.61835 0.92039,-1.1981 2.17403,-2.27718 l 1.45993,1.31711 q -1.06321,1.15843 -1.7297,2.20577 -0.66649,1.03941 -0.97594,2.13435 -0.30944,1.08702 -0.30944,2.3962 z m 9.06482,-5.72071 q 1.25363,0 2.09468,0.43639 0.84898,0.43639 1.26951,1.15842 0.42845,0.7141 0.42845,1.55515 0,0.66649 -0.23009,1.30918 -0.22217,0.63475 -0.7379,1.34885 -0.51574,0.70616 -1.37266,1.57101 -0.84898,0.86485 -2.10262,1.9836 h 4.69718 l -0.26977,1.91219 h -7.3076 v -1.7773 q 1.35679,-1.30918 2.26924,-2.25338 0.9204,-0.94419 1.46787,-1.62655 0.55541,-0.69029 0.79344,-1.2219 0.23803,-0.53161 0.23803,-1.02354 0,-0.66649 -0.38878,-1.05528 -0.38085,-0.38878 -1.08702,-0.38878 -0.62681,0 -1.08701,0.26183 -0.4602,0.26184 -0.88865,0.84899 l -1.53928,-1.15843 q 0.61888,-0.85691 1.52341,-1.36472 0.90452,-0.51573 2.22957,-0.51573 z m 9.82648,5.72071 q 0,-1.30918 -0.30944,-2.3962 -0.30944,-1.09494 -0.97593,-2.13435 -0.65856,-1.04734 -1.7297,-2.20577 l 1.45993,-1.31711 q 1.25364,1.07908 2.17403,2.27718 0.92039,1.19809 1.42026,2.61835 0.49986,1.42026 0.49986,3.1579 0,1.73763 -0.49986,3.15789 -0.49987,1.42026 -1.42026,2.61836 -0.92039,1.19809 -2.17403,2.27717 l -1.45993,-1.31711 q 0.85691,-0.92832 1.43613,-1.7297 0.57921,-0.80931 0.92832,-1.58688 0.34912,-0.77757 0.49987,-1.60275 0.15075,-0.83312 0.15075,-1.81698 z"
       id="text45"
       style="font-weight:bold;font-size:15.4721px;line-height:0.9;font-family:'Fira Code';-inkscape-font-specification:'Fira Code, Bold';font-variant-ligatures:no-contextual;letter-spacing:-0.70246px;fill:#f8f8f2;stroke-width:0.999999;stroke-linecap:round;stroke-opacity:0.998262"
       aria-label="not (4 &lt; 9) or str(5 * 2) != str(5) + str(2)" />
    <g
       id="g66"
       class="fragment">
      <path
         d="m 286.56165,234.70079 v 9.00555 h -2.60249 v -9.00555 h -3.08649 v -1.99154 h 8.90241 l -0.26977,1.99154 z m 3.96298,9.00555 v -1.68209 h 1.11081 v -5.07802 h -1.11081 V 235.28 h 3.02301 l 0.46019,1.89632 q 0.45226,-1.08701 1.15049,-1.61861 0.70616,-0.53161 1.72177,-0.53161 0.42846,0 0.7617,0.0714 0.33325,0.0635 0.62682,0.18249 l -0.46813,3.52288 h -1.57101 v -1.55515 q -0.7141,0.12696 -1.25364,0.77758 -0.53954,0.64268 -0.83311,1.58688 v 2.41206 h 1.66622 v 1.68209 z M 301.77139,235.28 v 5.76832 q 0,0.61095 0.22217,0.84104 0.2301,0.2301 0.63475,0.2301 0.38879,0 0.77757,-0.24596 0.38879,-0.24597 0.65062,-0.66649 V 235.28 h 2.50728 v 8.42634 h -2.1899 l -0.11108,-0.98386 q -0.42846,0.61888 -1.12669,0.93626 -0.69823,0.31737 -1.45993,0.31737 -1.2219,0 -1.81698,-0.70616 -0.59508,-0.71409 -0.59508,-1.91219 V 235.28 Z m 8.4856,4.94314 q 0.12695,1.03147 0.67442,1.48373 0.54748,0.44433 1.34885,0.44433 0.57922,0 1.11876,-0.19043 0.53954,-0.19042 1.0394,-0.5078 l 1.00767,1.36472 q -0.59508,0.5078 -1.44406,0.83311 -0.84105,0.32531 -1.92013,0.32531 -1.44406,0 -2.41999,-0.57127 -0.97593,-0.57921 -1.46787,-1.58689 -0.49193,-1.00767 -0.49193,-2.31684 0,-1.24571 0.47606,-2.26131 0.47607,-1.02354 1.38853,-1.62655 0.92039,-0.61095 2.24543,-0.61095 1.20603,0 2.08675,0.51573 0.88866,0.51574 1.37266,1.48374 0.49193,0.968 0.49193,2.32478 0,0.21423 -0.0159,0.4602 -0.008,0.24596 -0.0317,0.43639 z m 1.55514,-3.53875 q -0.67442,0 -1.08701,0.484 -0.41259,0.484 -0.49987,1.54721 h 3.09442 q -0.008,-0.92039 -0.35705,-1.4758 -0.34911,-0.55541 -1.15049,-0.55541 z"
         id="text46"
         style="font-weight:bold;font-size:15.4721px;line-height:0.9;font-family:'Fira Code';-inkscape-font-specification:'Fira Code, Bold';font-variant-ligatures:no-contextual;letter-spacing:-0.70246px;fill:#ffe792;stroke-width:0.999999;stroke-linecap:round;stroke-opacity:0.998262"
         aria-label="True" />
      <path
         id="path55"
         style="fill:none;fill-opacity:1;stroke:#ae81ff;stroke-width:1.4;stroke-linecap:round;stroke-linejoin:bevel;stroke-dasharray:none;stroke-opacity:0.998262"
         d="m 298.31807,246.52386 v 16.34006 m -17.4454,-2.30919 17.4454,-14.03087 17.4454,14.28818" />
    </g>
    <g
       id="g67"
       class="fragment">
      <path
         d="m 249.5461,197.17597 v 2.91192 h 3.85612 v 1.86459 h -3.85612 v 4.36393 h -2.61042 v -10.9971 h 7.22825 l -0.26977,1.85666 z m 12.69877,6.71251 q 0,0.47606 0.12695,0.69029 0.13488,0.21423 0.42846,0.32531 l -0.51574,1.65036 q -0.74584,-0.0714 -1.26157,-0.32531 -0.5078,-0.26184 -0.80138,-0.78551 -0.484,0.57921 -1.23777,0.86485 -0.75376,0.27771 -1.53927,0.27771 -1.30124,0 -2.07882,-0.7379 -0.76963,-0.74584 -0.76963,-1.9122 0,-1.37265 1.07114,-2.11848 1.07908,-0.74584 3.03095,-0.74584 h 1.13462 v -0.31738 q 0,-1.2933 -1.66623,-1.2933 -0.40465,0 -1.03941,0.11901 -0.63475,0.11108 -1.2695,0.32531 l -0.57922,-1.66622 q 0.81725,-0.30945 1.69797,-0.46813 0.88865,-0.15869 1.58688,-0.15869 1.88046,0 2.77704,0.76964 0.90453,0.7617 0.90453,2.20576 z m -3.93547,0.90452 q 0.40465,0 0.84898,-0.23803 0.44433,-0.24597 0.67443,-0.6903 v -1.36472 h -0.61889 q -1.04734,0 -1.53927,0.32532 -0.49194,0.31737 -0.49194,0.93626 0,0.484 0.29358,0.7617 0.3015,0.26977 0.83311,0.26977 z m 10.05661,-10.25126 v 9.12457 q 0,0.50781 0.28564,0.72997 0.29357,0.21423 0.80137,0.21423 0.32531,0 0.62682,-0.0714 0.30151,-0.0793 0.56334,-0.18249 l 0.60302,1.67416 q -0.42846,0.22216 -1.03148,0.38878 -0.60301,0.16663 -1.40439,0.16663 -1.5234,0 -2.2375,-0.87279 -0.7141,-0.88072 -0.7141,-2.35652 v -7.1013 h -2.48347 v -1.71383 z m 7.80323,10.25126 q 0.62682,0 1.00767,-0.19836 0.38879,-0.19836 0.38879,-0.59508 0,-0.26977 -0.15076,-0.45226 -0.15075,-0.18249 -0.57921,-0.34912 -0.42846,-0.16662 -1.2695,-0.39672 -1.15843,-0.30944 -1.88839,-0.88865 -0.72203,-0.57921 -0.72203,-1.69797 0,-1.12668 0.93626,-1.86458 0.94419,-0.7379 2.7215,-0.7379 1.12669,0 1.9598,0.29357 0.84105,0.28564 1.452,0.72997 l -0.99974,1.4758 q -0.52367,-0.32531 -1.12669,-0.51574 -0.60301,-0.19836 -1.21396,-0.19836 -1.20603,0 -1.20603,0.65062 0,0.21423 0.15075,0.37292 0.15869,0.15075 0.58715,0.31738 0.42846,0.15868 1.25364,0.39672 0.81724,0.23009 1.42025,0.5316 0.61095,0.30151 0.9442,0.80931 0.33324,0.49987 0.33324,1.32505 0,0.92039 -0.54747,1.54721 -0.54747,0.61888 -1.452,0.92832 -0.90452,0.30945 -1.9836,0.30945 -1.2219,0 -2.15816,-0.34912 -0.93626,-0.34911 -1.59482,-0.92039 l 1.26158,-1.41232 q 0.49193,0.38085 1.11081,0.63475 0.62682,0.2539 1.36472,0.2539 z m 7.61281,-1.9598 q 0.12695,1.03147 0.67442,1.48373 0.54748,0.44433 1.34885,0.44433 0.57922,0 1.11876,-0.19042 0.53954,-0.19043 1.0394,-0.50781 l 1.00767,1.36472 q -0.59508,0.5078 -1.44406,0.83312 -0.84105,0.32531 -1.92013,0.32531 -1.44406,0 -2.41999,-0.57128 -0.97593,-0.57921 -1.46787,-1.58688 -0.49193,-1.00767 -0.49193,-2.31685 0,-1.2457 0.47606,-2.26131 0.47607,-1.02354 1.38853,-1.62655 0.92039,-0.61095 2.24543,-0.61095 1.20603,0 2.08675,0.51573 0.88866,0.51574 1.37266,1.48374 0.49193,0.968 0.49193,2.32478 0,0.21423 -0.0159,0.4602 -0.008,0.24596 -0.0317,0.43639 z m 1.55514,-3.53875 q -0.67442,0 -1.08701,0.484 -0.41259,0.484 -0.49987,1.54721 h 3.09442 q -0.008,-0.92039 -0.35705,-1.4758 -0.34911,-0.55541 -1.15049,-0.55541 z"
         id="text47"
         style="font-weight:bold;font-size:15.4721px;line-height:0.9;font-family:'Fira Code';-inkscape-font-specification:'Fira Code, Bold';font-variant-ligatures:no-contextual;letter-spacing:-0.70246px;fill:#ffe792;stroke-width:0.999999;stroke-linecap:round;stroke-opacity:0.998262"
         aria-label="False" />
      <path
         style="fill:none;fill-opacity:1;stroke:#ae81ff;stroke-width:1.4;stroke-linecap:round;stroke-linejoin:bevel;stroke-dasharray:none;stroke-opacity:0.998262"
         d="m 245.39467,261.90393 22.71744,-50.78926 30.20596,19.08525"
         id="path56"
         sodipodi:nodetypes="ccc" />
    </g>
    <g
       id="g68"
       class="fragment">
      <path
         d="m 420.99091,241.81002 v 1.89632 h -7.1489 v -1.89632 h 2.65009 v -6.63317 l -2.26131,1.41233 -1.06321,-1.72177 3.54669,-2.15816 h 2.22163 v 9.10077 z m 4.83577,-9.37847 q 1.96773,0 2.96747,1.5234 1.00767,1.51548 1.00767,4.22904 0,2.72151 -1.00767,4.26078 -0.99974,1.53134 -2.96747,1.53134 -1.9836,0 -2.98334,-1.53134 -0.9918,-1.53927 -0.9918,-4.26078 0,-2.71356 0.9918,-4.22904 0.99974,-1.5234 2.98334,-1.5234 z m 0,1.81698 q -0.84105,0 -1.22984,0.90452 -0.38878,0.89659 -0.38878,3.03094 0,0.69823 0.0238,1.24571 0.0238,0.53954 0.0714,0.96006 l 2.68183,-5.60963 q -0.19042,-0.3015 -0.47606,-0.41259 -0.27771,-0.11901 -0.68236,-0.11901 z m 1.60275,3.93546 q 0,-0.91245 -0.0397,-1.53927 l -2.53108,5.22878 q 0.17456,0.16662 0.41259,0.23009 0.24597,0.0635 0.55541,0.0635 0.56334,0 0.91245,-0.38085 0.35705,-0.38085 0.52368,-1.25364 0.16662,-0.88072 0.16662,-2.34859 z"
         id="text48"
         style="font-weight:bold;font-size:15.4721px;line-height:0.9;font-family:'Fira Code';-inkscape-font-specification:'Fira Code, Bold';font-variant-ligatures:no-contextual;letter-spacing:-0.70246px;fill:#66d9ef;stroke-width:0.999999;stroke-linecap:round;stroke-opacity:0.998262"
         aria-label="10" />
      <path
         id="path57"
         style="fill:none;fill-opacity:1;stroke:#ae81ff;stroke-width:1.4;stroke-linecap:round;stroke-linejoin:bevel;stroke-dasharray:none;stroke-opacity:0.998262"
         d="m 421.4847,246.52386 v 16.34006 m -17.4454,-2.30919 17.4454,-14.03087 17.4454,14.28818" />
    </g>
    <g
       id="g69"
       class="fragment">
      <path
         d="m 384.31254,198.72714 -0.3015,-4.43534 h 2.37239 l -0.29358,4.43534 z m 3.03095,0 -0.29357,-4.43534 h 2.38825 l -0.3015,4.43534 z m 12.18303,5.443 v 1.89633 h -7.14891 v -1.89633 h 2.6501 v -6.63316 l -2.26131,1.41232 -1.06321,-1.72177 3.54668,-2.15816 h 2.22164 v 9.10077 z m 4.83576,-9.37847 q 1.96774,0 2.96747,1.52341 1.00767,1.51547 1.00767,4.22904 0,2.7215 -1.00767,4.26078 -0.99973,1.53134 -2.96747,1.53134 -1.9836,0 -2.98334,-1.53134 -0.9918,-1.53928 -0.9918,-4.26078 0,-2.71357 0.9918,-4.22904 0.99974,-1.52341 2.98334,-1.52341 z m 0,1.81698 q -0.84104,0 -1.22983,0.90452 -0.38879,0.89659 -0.38879,3.03095 0,0.69823 0.0238,1.2457 0.0238,0.53954 0.0714,0.96006 l 2.68183,-5.60962 q -0.19043,-0.30151 -0.47607,-0.41259 -0.2777,-0.11902 -0.68236,-0.11902 z m 1.60275,3.93547 q 0,-0.91246 -0.0397,-1.53928 l -2.53107,5.22878 q 0.17455,0.16662 0.41258,0.2301 0.24597,0.0635 0.55541,0.0635 0.56335,0 0.91246,-0.38085 0.35705,-0.38085 0.52367,-1.25364 0.16662,-0.88072 0.16662,-2.34858 z m 4.80403,-1.81698 -0.30151,-4.43534 h 2.37239 l -0.29357,4.43534 z m 3.03095,0 -0.29358,-4.43534 h 2.38826 l -0.30151,4.43534 z"
         id="text49"
         style="font-weight:bold;font-size:15.4721px;line-height:0.9;font-family:'Fira Code';-inkscape-font-specification:'Fira Code, Bold';font-variant-ligatures:no-contextual;letter-spacing:-0.70246px;fill:#a6e22e;stroke-width:0.999999;stroke-linecap:round;stroke-opacity:0.998262"
         aria-label="&quot;10&quot;" />
      <path
         style="fill:none;fill-opacity:1;stroke:#ae81ff;stroke-width:1.4;stroke-linecap:round;stroke-linejoin:bevel;stroke-dasharray:none;stroke-opacity:0.998262"
         d="m 378.69561,261.90393 21.25725,-51.60248 21.53184,18.71244"
         id="path58" />
    </g>
    <g
       id="g70"
       class="fragment">
      <path
         d="m 501.33232,236.61695 -0.30151,-4.43533 h 2.37239 l -0.29357,4.43533 z m 3.03094,0 -0.29357,-4.43533 h 2.38826 l -0.30151,4.43533 z m 11.61176,-3.65776 -0.27771,1.79318 h -4.02274 v 2.37239 q 0.40465,-0.19043 0.83311,-0.26977 0.42846,-0.0793 0.79344,-0.0793 0.84898,0 1.54721,0.42846 0.70616,0.42846 1.11875,1.22983 0.42053,0.80138 0.42053,1.9122 0,1.11081 -0.54748,1.99153 -0.53954,0.88072 -1.50754,1.38853 -0.968,0.49986 -2.2613,0.49986 -1.1981,0 -2.11849,-0.44432 -0.92039,-0.45226 -1.53134,-1.1981 l 1.44406,-1.31711 q 0.39672,0.5078 0.91246,0.77757 0.52367,0.26184 1.09495,0.26184 0.87278,0 1.39645,-0.53161 0.53161,-0.5316 0.53161,-1.38852 0,-1.01561 -0.41259,-1.44406 -0.40466,-0.4364 -1.07115,-0.4364 -0.3015,0 -0.64268,0.0794 -0.34118,0.0793 -0.70617,0.28564 h -1.69003 v -5.91114 z m 2.99498,3.65776 -0.30151,-4.43533 h 2.37239 l -0.29357,4.43533 z m 3.03094,0 -0.29357,-4.43533 h 2.38826 l -0.30151,4.43533 z"
         id="text50"
         style="font-weight:bold;font-size:15.4721px;line-height:0.9;font-family:'Fira Code';-inkscape-font-specification:'Fira Code, Bold';font-variant-ligatures:no-contextual;letter-spacing:-0.70246px;fill:#a6e22e;stroke-width:0.999999;stroke-linecap:round;stroke-opacity:0.998262"
         aria-label="&quot;5&quot;" />
      <path
         style="fill:none;fill-opacity:1;stroke:#ae81ff;stroke-width:1.4;stroke-linecap:round;stroke-linejoin:bevel;stroke-dasharray:none;stroke-opacity:0.998262"
         d="m 503.01939,262.60393 9.54381,-14.8647 13.85748,14.1647"
         id="path59" />
    </g>
    <g
       id="g71"
       class="fragment">
      <path
         d="m 581.00728,236.61695 -0.30151,-4.43533 h 2.37239 l -0.29358,4.43533 z m 3.03094,0 -0.29357,-4.43533 h 2.38826 l -0.30151,4.43533 z m 7.81911,-3.93546 q 1.25363,0 2.09468,0.43639 0.84898,0.43639 1.26951,1.15842 0.42845,0.7141 0.42845,1.55515 0,0.66649 -0.23009,1.30918 -0.22217,0.63475 -0.7379,1.34884 -0.51574,0.70617 -1.37266,1.57102 -0.84898,0.86485 -2.10262,1.9836 h 4.69717 l -0.26977,1.91219 h -7.30759 v -1.7773 q 1.35679,-1.30918 2.26924,-2.25338 0.9204,-0.94419 1.46787,-1.62655 0.55541,-0.69029 0.79344,-1.2219 0.23803,-0.53161 0.23803,-1.02354 0,-0.66649 -0.38878,-1.05528 -0.38085,-0.38878 -1.08702,-0.38878 -0.62682,0 -1.08701,0.26183 -0.4602,0.26184 -0.88866,0.84899 l -1.53927,-1.15843 q 0.61888,-0.85691 1.52341,-1.36472 0.90452,-0.51573 2.22957,-0.51573 z m 6.78763,3.93546 -0.30151,-4.43533 h 2.37239 l -0.29358,4.43533 z m 3.03094,0 -0.29357,-4.43533 h 2.38825 l -0.3015,4.43533 z"
         id="text51"
         style="font-weight:bold;font-size:15.4721px;line-height:0.9;font-family:'Fira Code';-inkscape-font-specification:'Fira Code, Bold';font-variant-ligatures:no-contextual;letter-spacing:-0.70246px;fill:#a6e22e;stroke-width:0.999999;stroke-linecap:round;stroke-opacity:0.998262"
         aria-label="&quot;2&quot;" />
      <path
         style="fill:none;fill-opacity:1;stroke:#ae81ff;stroke-width:1.4;stroke-linecap:round;stroke-linejoin:bevel;stroke-dasharray:none;stroke-opacity:0.998262"
         d="m 581.96788,261.90393 10.27028,-14.65422 13.8217,14.65422"
         id="path60" />
    </g>
    <g
       id="g72"
       class="fragment">
      <path
         d="m 538.14955,198.72714 -0.30151,-4.43534 h 2.37239 l -0.29357,4.43534 z m 3.03094,0 -0.29357,-4.43534 h 2.38826 l -0.30151,4.43534 z m 11.61176,-3.65777 -0.27771,1.79318 h -4.02274 v 2.37239 q 0.40465,-0.19043 0.83311,-0.26977 0.42846,-0.0793 0.79344,-0.0793 0.84898,0 1.54721,0.42845 0.70616,0.42846 1.11875,1.22984 0.42053,0.80137 0.42053,1.91219 0,1.11082 -0.54748,1.99154 -0.53954,0.88072 -1.50754,1.38852 -0.96799,0.49987 -2.2613,0.49987 -1.1981,0 -2.11849,-0.44433 -0.92039,-0.45226 -1.53134,-1.1981 l 1.44406,-1.31711 q 0.39672,0.5078 0.91246,0.77757 0.52367,0.26184 1.09495,0.26184 0.87278,0 1.39645,-0.53161 0.53161,-0.5316 0.53161,-1.38852 0,-1.0156 -0.41259,-1.44406 -0.40466,-0.43639 -1.07115,-0.43639 -0.3015,0 -0.64268,0.0793 -0.34118,0.0794 -0.70617,0.28564 h -1.69003 v -5.91114 z m 5.02619,-0.2777 q 1.25363,0 2.09468,0.43639 0.84898,0.4364 1.26951,1.15843 0.42846,0.71409 0.42846,1.55514 0,0.66649 -0.2301,1.30918 -0.22217,0.63475 -0.7379,1.34885 -0.51574,0.70616 -1.37266,1.57101 -0.84898,0.86485 -2.10261,1.9836 h 4.69717 l -0.26977,1.9122 h -7.3076 v -1.77731 q 1.35679,-1.30918 2.26925,-2.25337 0.92039,-0.9442 1.46786,-1.62656 0.55541,-0.69029 0.79344,-1.2219 0.23804,-0.5316 0.23804,-1.02354 0,-0.66649 -0.38879,-1.05527 -0.38085,-0.38879 -1.08702,-0.38879 -0.62681,0 -1.08701,0.26184 -0.4602,0.26183 -0.88865,0.84898 l -1.53928,-1.15842 q 0.61888,-0.85692 1.52341,-1.36472 0.90452,-0.51574 2.22957,-0.51574 z m 6.78763,3.93547 -0.30151,-4.43534 h 2.37239 l -0.29357,4.43534 z m 3.03094,0 -0.29357,-4.43534 h 2.38826 l -0.30151,4.43534 z"
         id="text52"
         style="font-weight:bold;font-size:15.4721px;line-height:0.9;font-family:'Fira Code';-inkscape-font-specification:'Fira Code, Bold';font-variant-ligatures:no-contextual;letter-spacing:-0.70246px;fill:#a6e22e;stroke-width:0.999999;stroke-linecap:round;stroke-opacity:0.998262"
         aria-label="&quot;52&quot;" />
      <path
         id="path62"
         style="fill:none;fill-opacity:1;stroke:#ae81ff;stroke-width:1.4;stroke-linecap:round;stroke-linejoin:bevel;stroke-dasharray:none;stroke-opacity:0.998262"
         d="m 552.8444,209.77309 0.94546,53.53084 m -41.22666,-33.70288 40.2812,-19.82796 39.39376,19.55292" />
    </g>
    <g
       id="g73"
       class="fragment">
      <path
         d="m 463.14346,153.24353 v 9.00555 h -2.60248 v -9.00555 h -3.08649 v -1.99154 h 8.90241 l -0.26977,1.99154 z m 3.96298,9.00555 v -1.68209 h 1.11082 v -5.07802 h -1.11082 v -1.66623 h 3.02301 l 0.4602,1.89632 q 0.45226,-1.08701 1.15049,-1.61861 0.70616,-0.53161 1.72177,-0.53161 0.42845,0 0.7617,0.0714 0.33324,0.0635 0.62682,0.18249 l -0.46813,3.52288 h -1.57102 v -1.55515 q -0.71409,0.12695 -1.25363,0.77758 -0.53954,0.64268 -0.83312,1.58688 v 2.41206 h 1.66623 v 1.68209 z m 11.24677,-8.42634 v 5.76832 q 0,0.61095 0.22217,0.84104 0.23009,0.2301 0.63475,0.2301 0.38878,0 0.77757,-0.24596 0.38879,-0.24597 0.65062,-0.66649 v -5.92701 h 2.50728 v 8.42634 h -2.1899 l -0.11108,-0.98386 q -0.42846,0.61888 -1.12669,0.93626 -0.69823,0.31737 -1.45993,0.31737 -1.2219,0 -1.81698,-0.70616 -0.59508,-0.7141 -0.59508,-1.91219 v -6.07776 z m 8.4856,4.94314 q 0.12695,1.03147 0.67442,1.48373 0.54748,0.44433 1.34885,0.44433 0.57921,0 1.11875,-0.19043 0.53954,-0.19042 1.03941,-0.5078 l 1.00767,1.36472 q -0.59508,0.5078 -1.44406,0.83311 -0.84105,0.32531 -1.92013,0.32531 -1.44406,0 -2.41999,-0.57127 -0.97594,-0.57922 -1.46787,-1.58689 -0.49193,-1.00767 -0.49193,-2.31684 0,-1.24571 0.47606,-2.26131 0.47607,-1.02354 1.38852,-1.62655 0.92039,-0.61095 2.24544,-0.61095 1.20603,0 2.08675,0.51573 0.88866,0.51574 1.37265,1.48374 0.49194,0.968 0.49194,2.32478 0,0.21423 -0.0159,0.4602 -0.008,0.24596 -0.0317,0.43639 z m 1.55514,-3.53875 q -0.67442,0 -1.08701,0.484 -0.41259,0.484 -0.49987,1.54721 h 3.09442 q -0.008,-0.92039 -0.35705,-1.4758 -0.34911,-0.55541 -1.15049,-0.55541 z"
         id="text53"
         style="font-weight:bold;font-size:15.4721px;line-height:0.9;font-family:'Fira Code';-inkscape-font-specification:'Fira Code, Bold';font-variant-ligatures:no-contextual;letter-spacing:-0.70246px;fill:#ffe792;stroke-width:0.999999;stroke-linecap:round;stroke-opacity:0.998262"
         aria-label="True" />
      <path
         id="path64"
         style="fill:none;fill-opacity:1;stroke:#ae81ff;stroke-width:1.4;stroke-linecap:round;stroke-linejoin:bevel;stroke-dasharray:none;stroke-opacity:0.998262"
         d="m 474.89989,165.95806 -3.67045,97.34587 m -71.27658,-71.44049 74.94703,-25.90538 77.2445,25.19799" />
    </g>
    <g
       id="g74"
       class="fragment">
      <path
         d="m 333.49673,115.65903 v 9.00555 h -2.60248 v -9.00555 h -3.08649 v -1.99154 h 8.90241 l -0.26977,1.99154 z m 3.96298,9.00555 v -1.68209 h 1.11082 v -5.07803 h -1.11082 v -1.66622 h 3.02302 l 0.46019,1.89632 q 0.45226,-1.08701 1.15049,-1.61862 0.70616,-0.5316 1.72177,-0.5316 0.42846,0 0.7617,0.0714 0.33325,0.0635 0.62682,0.18249 l -0.46813,3.52288 h -1.57101 v -1.55515 q -0.7141,0.12695 -1.25364,0.77757 -0.53954,0.64269 -0.83311,1.58689 v 2.41206 h 1.66622 v 1.68209 z m 11.24677,-8.42634 v 5.76831 q 0,0.61095 0.22217,0.84105 0.23009,0.2301 0.63475,0.2301 0.38879,0 0.77757,-0.24597 0.38879,-0.24596 0.65062,-0.66649 v -5.927 h 2.50728 v 8.42634 h -2.1899 l -0.11108,-0.98387 q -0.42846,0.61889 -1.12669,0.93626 -0.69823,0.31738 -1.45993,0.31738 -1.2219,0 -1.81698,-0.70616 -0.59508,-0.7141 -0.59508,-1.91219 v -6.07776 z m 8.4856,4.94314 q 0.12695,1.03147 0.67442,1.48373 0.54748,0.44433 1.34885,0.44433 0.57921,0 1.11875,-0.19043 0.53954,-0.19042 1.03941,-0.5078 l 1.00767,1.36472 q -0.59508,0.5078 -1.44406,0.83311 -0.84105,0.32531 -1.92013,0.32531 -1.44406,0 -2.41999,-0.57128 -0.97594,-0.57921 -1.46787,-1.58688 -0.49193,-1.00767 -0.49193,-2.31685 0,-1.2457 0.47606,-2.2613 0.47607,-1.02354 1.38852,-1.62656 0.9204,-0.61095 2.24544,-0.61095 1.20603,0 2.08675,0.51574 0.88866,0.51574 1.37266,1.48373 0.49193,0.968 0.49193,2.32479 0,0.21423 -0.0159,0.46019 -0.008,0.24597 -0.0317,0.4364 z m 1.55514,-3.53875 q -0.67442,0 -1.08701,0.484 -0.41259,0.484 -0.49987,1.54721 h 3.09442 q -0.008,-0.92039 -0.35705,-1.4758 -0.34911,-0.55541 -1.15049,-0.55541 z"
         id="text54"
         style="font-weight:bold;font-size:15.4721px;line-height:0.9;font-family:'Fira Code';-inkscape-font-specification:'Fira Code, Bold';font-variant-ligatures:no-contextual;letter-spacing:-0.70246px;fill:#f92672;stroke-width:0.999999;stroke-linecap:round;stroke-opacity:0.998262"
         aria-label="True" />
      <path
         id="path66"
         style="fill:none;fill-opacity:1;stroke:#ae81ff;stroke-width:1.4;stroke-linecap:round;stroke-linejoin:bevel;stroke-dasharray:none;stroke-opacity:0.998262"
         d="m 345.25316,128.12392 v 135.44 m -77.14106,-72.23952 77.14106,-63.20048 128.60626,21.33394" />
    </g>
  </g>
</svg>
