<?xml version="1.0" encoding="UTF-8" standalone="no"?>
<!-- Created with Inkscape (http://www.inkscape.org/) -->

<svg
   width="374.56845mm"
   height="173.40028mm"
   viewBox="0 0 374.56846 173.40028"
   version="1.1"
   id="svg1"
   inkscape:version="1.3 (0e150ed6c4, 2023-07-21)"
   sodipodi:docname="exam1_p1c.svg"
   xmlns:inkscape="http://www.inkscape.org/namespaces/inkscape"
   xmlns:sodipodi="http://sodipodi.sourceforge.net/DTD/sodipodi-0.dtd"
   xmlns="http://www.w3.org/2000/svg"
   xmlns:svg="http://www.w3.org/2000/svg">
  <sodipodi:namedview
     id="namedview1"
     pagecolor="#555555"
     bordercolor="#000000"
     borderopacity="0.25"
     inkscape:showpageshadow="2"
     inkscape:pageopacity="0.0"
     inkscape:pagecheckerboard="0"
     inkscape:deskcolor="#d1d1d1"
     inkscape:document-units="mm"
     inkscape:zoom="1.0556608"
     inkscape:cx="626.14811"
     inkscape:cy="399.27599"
     inkscape:window-width="2560"
     inkscape:window-height="1413"
     inkscape:window-x="1080"
     inkscape:window-y="27"
     inkscape:window-maximized="1"
     inkscape:current-layer="layer1" />
  <defs
     id="defs1" />
  <g
     inkscape:label="Layer 1"
     inkscape:groupmode="layer"
     id="layer1"
     transform="translate(-242.68484,-94.06538)">
    <text
       xml:space="preserve"
       style="font-style:normal;font-variant:normal;font-weight:bold;font-stretch:normal;font-size:15.4721px;line-height:0.9;font-family:'Fira Code';-inkscape-font-specification:'Fira Code, Bold';font-variant-ligatures:no-contextual;font-variant-caps:normal;font-variant-numeric:normal;font-variant-east-asian:normal;letter-spacing:-0.70246px;fill:#272822;fill-opacity:1;stroke-width:0.999999;stroke-linecap:round;stroke-opacity:0.998262"
       x="179.0206"
       y="71.891838"
       id="text2"><tspan
         sodipodi:role="line"
         id="tspan2"
         style="font-style:normal;font-variant:normal;font-weight:bold;font-stretch:normal;font-size:15.4721px;font-family:'Fira Code';-inkscape-font-specification:'Fira Code, Bold';font-variant-ligatures:no-contextual;font-variant-caps:normal;font-variant-numeric:normal;font-variant-east-asian:normal;fill:#272822;fill-opacity:1;stroke-width:0.999999"
         x="179.0206"
         y="71.891838">1</tspan></text>
    <g
       id="g74">
      <rect
         style="fill:none;fill-opacity:1;stroke:#f8f8f2;stroke-width:1.4;stroke-linecap:round;stroke-linejoin:bevel;stroke-dasharray:none;stroke-opacity:0.998262"
         id="rect74"
         width="23.273029"
         height="23.273029"
         x="243.38484"
         y="119.03864"
         ry="0.9701345" />
      <path
         d="m 254.94995,124.89891 q 1.96773,0 2.96747,1.52341 1.00767,1.51547 1.00767,4.22904 0,2.7215 -1.00767,4.26077 -0.99974,1.53135 -2.96747,1.53135 -1.98361,0 -2.98334,-1.53135 -0.9918,-1.53927 -0.9918,-4.26077 0,-2.71357 0.9918,-4.22904 0.99973,-1.52341 2.98334,-1.52341 z m 0,1.81698 q -0.84105,0 -1.22984,0.90452 -0.38878,0.89659 -0.38878,3.03095 0,0.69822 0.0238,1.2457 0.0238,0.53954 0.0714,0.96006 l 2.68183,-5.60963 q -0.19043,-0.3015 -0.47606,-0.41258 -0.27771,-0.11902 -0.68236,-0.11902 z m 1.60275,3.93547 q 0,-0.91246 -0.0397,-1.53928 l -2.53108,5.22878 q 0.17456,0.16662 0.41259,0.2301 0.24596,0.0635 0.55541,0.0635 0.56334,0 0.91245,-0.38085 0.35705,-0.38085 0.52368,-1.25364 0.16662,-0.88072 0.16662,-2.34858 z"
         id="text74"
         style="font-weight:bold;font-size:15.4721px;line-height:0.9;font-family:'Fira Code';-inkscape-font-specification:'Fira Code, Bold';font-variant-ligatures:no-contextual;letter-spacing:-0.70246px;fill:#f8f8f2;stroke-width:0.999999;stroke-linecap:round;stroke-opacity:0.998262"
         aria-label="0" />
    </g>
    <g
       id="g75"
       transform="translate(23.273026)">
      <rect
         style="fill:none;fill-opacity:1;stroke:#f8f8f2;stroke-width:1.4;stroke-linecap:round;stroke-linejoin:bevel;stroke-dasharray:none;stroke-opacity:0.998262"
         id="rect75"
         width="23.273029"
         height="23.273029"
         x="243.38484"
         y="119.03864"
         ry="0.9701345" />
      <path
         d="m 258.93302,134.27738 v 1.89633 h -7.1489 v -1.89633 h 2.65009 v -6.63317 l -2.26131,1.41233 -1.06321,-1.72177 3.54668,-2.15816 h 2.22164 v 9.10077 z"
         id="text75"
         style="font-weight:bold;font-size:15.4721px;line-height:0.9;font-family:'Fira Code';-inkscape-font-specification:'Fira Code, Bold';font-variant-ligatures:no-contextual;letter-spacing:-0.70246px;fill:#f8f8f2;stroke-width:0.999999;stroke-linecap:round;stroke-opacity:0.998262"
         aria-label="1" />
    </g>
    <g
       id="g76"
       transform="translate(46.546052)">
      <rect
         style="fill:none;fill-opacity:1;stroke:#f8f8f2;stroke-width:1.4;stroke-linecap:round;stroke-linejoin:bevel;stroke-dasharray:none;stroke-opacity:0.998262"
         id="rect76"
         width="23.273029"
         height="23.273029"
         x="243.38484"
         y="119.03864"
         ry="0.9701345" />
      <path
         d="m 254.5691,124.89891 q 1.25363,0 2.09468,0.43639 0.84898,0.43639 1.26951,1.15843 0.42845,0.71409 0.42845,1.55514 0,0.66649 -0.23009,1.30918 -0.22217,0.63475 -0.7379,1.34885 -0.51574,0.70616 -1.37266,1.57101 -0.84898,0.86485 -2.10262,1.9836 h 4.69717 l -0.26977,1.9122 h -7.30759 v -1.77731 q 1.35679,-1.30918 2.26924,-2.25337 0.9204,-0.9442 1.46787,-1.62656 0.55541,-0.69029 0.79344,-1.2219 0.23803,-0.5316 0.23803,-1.02354 0,-0.66649 -0.38878,-1.05527 -0.38085,-0.38879 -1.08702,-0.38879 -0.62682,0 -1.08701,0.26184 -0.4602,0.26183 -0.88866,0.84898 l -1.53927,-1.15843 q 0.61888,-0.85691 1.52341,-1.36471 0.90452,-0.51574 2.22957,-0.51574 z"
         id="text76"
         style="font-weight:bold;font-size:15.4721px;line-height:0.9;font-family:'Fira Code';-inkscape-font-specification:'Fira Code, Bold';font-variant-ligatures:no-contextual;letter-spacing:-0.70246px;fill:#f8f8f2;stroke-width:0.999999;stroke-linecap:round;stroke-opacity:0.998262"
         aria-label="2" />
    </g>
    <g
       id="g77"
       transform="translate(69.819078)">
      <rect
         style="fill:none;fill-opacity:1;stroke:#f8f8f2;stroke-width:1.4;stroke-linecap:round;stroke-linejoin:bevel;stroke-dasharray:none;stroke-opacity:0.998262"
         id="rect77"
         width="23.273029"
         height="23.273029"
         x="243.38484"
         y="119.03864"
         ry="0.9701345" />
      <path
         d="m 254.50562,124.89891 q 1.19016,0 2.02327,0.38879 0.84105,0.38085 1.27744,1.02353 0.44433,0.63476 0.44433,1.40439 0,1.04735 -0.61888,1.69797 -0.61095,0.64269 -1.62656,0.93626 1.13462,0.15075 1.86459,0.77757 0.72997,0.61889 0.72997,1.95187 0,0.92832 -0.51574,1.69003 -0.5078,0.7617 -1.45993,1.22189 -0.95213,0.45227 -2.27718,0.45227 -1.22983,0 -2.20576,-0.42846 -0.97594,-0.43639 -1.66623,-1.2219 l 1.41232,-1.31711 q 0.47607,0.54747 1.05528,0.80137 0.58715,0.24597 1.23777,0.24597 0.81724,0 1.33298,-0.41259 0.51574,-0.42052 0.51574,-1.20603 0,-0.87279 -0.49194,-1.25364 -0.484,-0.38878 -1.37265,-0.38878 h -0.99974 l 0.28564,-1.72971 h 0.7141 q 0.72997,0 1.19016,-0.35704 0.46813,-0.35705 0.46813,-1.07908 0,-0.61889 -0.44433,-0.97594 -0.44432,-0.35704 -1.15048,-0.35704 -0.65856,0 -1.1981,0.2539 -0.53161,0.2539 -0.99974,0.69822 l -1.28537,-1.33298 q 0.75377,-0.72996 1.69003,-1.10288 0.93626,-0.38085 2.07088,-0.38085 z"
         id="text77"
         style="font-weight:bold;font-size:15.4721px;line-height:0.9;font-family:'Fira Code';-inkscape-font-specification:'Fira Code, Bold';font-variant-ligatures:no-contextual;letter-spacing:-0.70246px;fill:#f8f8f2;stroke-width:0.999999;stroke-linecap:round;stroke-opacity:0.998262"
         aria-label="3" />
    </g>
    <g
       id="g78"
       transform="translate(93.092104)">
      <rect
         style="fill:none;fill-opacity:1;stroke:#f8f8f2;stroke-width:1.4;stroke-linecap:round;stroke-linejoin:bevel;stroke-dasharray:none;stroke-opacity:0.998262"
         id="rect78"
         width="23.273029"
         height="23.273029"
         x="243.38484"
         y="119.03864"
         ry="0.9701345" />
      <path
         d="m 257.86981,129.33424 v 2.6501 h 1.10288 v 1.88045 h -1.10288 v 2.30892 h -2.40413 l -0.0159,-2.30892 h -4.55435 v -1.66622 l 3.05475,-7.29966 2.13436,0.78551 -2.60249,6.29992 h 1.97567 l 0.29357,-2.6501 z"
         id="text78"
         style="font-weight:bold;font-size:15.4721px;line-height:0.9;font-family:'Fira Code';-inkscape-font-specification:'Fira Code, Bold';font-variant-ligatures:no-contextual;letter-spacing:-0.70246px;fill:#f8f8f2;stroke-width:0.999999;stroke-linecap:round;stroke-opacity:0.998262"
         aria-label="4" />
    </g>
    <g
       id="g79"
       transform="translate(116.36513)">
      <rect
         style="fill:none;fill-opacity:1;stroke:#f8f8f2;stroke-width:1.4;stroke-linecap:round;stroke-linejoin:bevel;stroke-dasharray:none;stroke-opacity:0.998262"
         id="rect79"
         width="23.273029"
         height="23.273029"
         x="243.38484"
         y="119.03864"
         ry="0.9701345" />
      <path
         d="m 258.36174,125.17661 -0.2777,1.79318 h -4.02275 v 2.37239 q 0.40466,-0.19043 0.83312,-0.26977 0.42845,-0.0793 0.79344,-0.0793 0.84898,0 1.54721,0.42846 0.70616,0.42846 1.11875,1.22984 0.42052,0.80137 0.42052,1.91219 0,1.11082 -0.54747,1.99154 -0.53954,0.88072 -1.50754,1.38852 -0.968,0.49987 -2.26131,0.49987 -1.19809,0 -2.11848,-0.44433 -0.9204,-0.45226 -1.53135,-1.1981 l 1.44407,-1.31711 q 0.39672,0.5078 0.91245,0.77757 0.52368,0.26184 1.09495,0.26184 0.87279,0 1.39646,-0.53161 0.5316,-0.5316 0.5316,-1.38852 0,-1.0156 -0.41258,-1.44406 -0.40466,-0.43639 -1.07115,-0.43639 -0.30151,0 -0.64269,0.0793 -0.34118,0.0793 -0.70616,0.28564 h -1.69003 v -5.91114 z"
         id="text79"
         style="font-weight:bold;font-size:15.4721px;line-height:0.9;font-family:'Fira Code';-inkscape-font-specification:'Fira Code, Bold';font-variant-ligatures:no-contextual;letter-spacing:-0.70246px;fill:#f8f8f2;stroke-width:0.999999;stroke-linecap:round;stroke-opacity:0.998262"
         aria-label="5" />
    </g>
    <g
       id="g80"
       transform="translate(139.63816)">
      <rect
         style="fill:none;fill-opacity:1;stroke:#f8f8f2;stroke-width:1.4;stroke-linecap:round;stroke-linejoin:bevel;stroke-dasharray:none;stroke-opacity:0.998262"
         id="rect80"
         width="23.273029"
         height="23.273029"
         x="243.38484"
         y="119.03864"
         ry="0.9701345" />
      <path
         d="m 255.75132,124.89891 q 0.72997,0 1.32505,0.19042 0.60301,0.19043 1.06321,0.51574 l -0.95213,1.52341 q -0.31738,-0.2301 -0.68236,-0.33325 -0.35705,-0.11108 -0.70616,-0.11108 -0.89659,0 -1.50754,0.80138 -0.60301,0.80137 -0.69823,2.31684 0.49194,-0.51573 1.10289,-0.75376 0.61888,-0.24597 1.20603,-0.24597 0.85691,0 1.55514,0.42846 0.69823,0.42052 1.11082,1.23776 0.41259,0.80931 0.41259,1.97567 0,1.10289 -0.47607,2.01534 -0.47606,0.90453 -1.35678,1.44407 -0.87279,0.53954 -2.07088,0.53954 -1.09495,0 -1.87252,-0.41259 -0.77758,-0.42053 -1.26951,-1.14256 -0.49193,-0.72996 -0.72203,-1.67416 -0.2301,-0.95213 -0.2301,-2.01534 0,-1.85665 0.57128,-3.27691 0.57921,-1.42026 1.64242,-2.22164 1.07115,-0.80137 2.55488,-0.80137 z m -0.49987,5.63343 q -0.92832,0 -1.65829,0.84105 0.0238,1.65036 0.34912,2.4676 0.32531,0.80931 1.16635,0.80931 0.70617,0 1.03148,-0.60302 0.33324,-0.60301 0.33324,-1.45993 0,-1.12668 -0.32531,-1.58688 -0.31737,-0.46813 -0.89659,-0.46813 z"
         id="text80"
         style="font-weight:bold;font-size:15.4721px;line-height:0.9;font-family:'Fira Code';-inkscape-font-specification:'Fira Code, Bold';font-variant-ligatures:no-contextual;letter-spacing:-0.70246px;fill:#f8f8f2;stroke-width:0.999999;stroke-linecap:round;stroke-opacity:0.998262"
         aria-label="6" />
    </g>
    <g
       id="g81"
       transform="translate(162.91119)">
      <rect
         style="fill:none;fill-opacity:1;stroke:#f8f8f2;stroke-width:1.4;stroke-linecap:round;stroke-linejoin:bevel;stroke-dasharray:none;stroke-opacity:0.998262"
         id="rect81"
         width="23.273029"
         height="23.273029"
         x="243.38484"
         y="119.03864"
         ry="0.9701345" />
      <path
         d="m 254.37867,136.42761 -2.38032,-0.7379 4.10209,-8.62471 h -4.83206 v -1.88839 h 7.37107 v 1.69797 z"
         id="text81"
         style="font-weight:bold;font-size:15.4721px;line-height:0.9;font-family:'Fira Code';-inkscape-font-specification:'Fira Code, Bold';font-variant-ligatures:no-contextual;letter-spacing:-0.70246px;fill:#f8f8f2;stroke-width:0.999999;stroke-linecap:round;stroke-opacity:0.998262"
         aria-label="7" />
    </g>
    <g
       id="g82"
       transform="translate(186.18422)">
      <rect
         style="fill:none;fill-opacity:1;stroke:#f8f8f2;stroke-width:1.4;stroke-linecap:round;stroke-linejoin:bevel;stroke-dasharray:none;stroke-opacity:0.998262"
         id="rect82"
         width="23.273029"
         height="23.273029"
         x="243.38484"
         y="119.03864"
         ry="0.9701345" />
      <path
         d="m 258.60771,127.81084 q 0,0.76964 -0.41259,1.32504 -0.41259,0.55541 -1.29331,1.05528 1.11082,0.55541 1.61862,1.31711 0.51574,0.75377 0.51574,1.6821 0,0.84898 -0.46813,1.59481 -0.4602,0.7379 -1.38059,1.1981 -0.91246,0.4602 -2.28511,0.4602 -1.34092,0 -2.24544,-0.44433 -0.89659,-0.44433 -1.34885,-1.16636 -0.44432,-0.72997 -0.44432,-1.57895 0,-0.94419 0.54747,-1.64242 0.54747,-0.69823 1.4758,-1.10288 -0.84105,-0.53954 -1.2219,-1.09495 -0.37292,-0.56334 -0.37292,-1.4758 0,-0.93626 0.484,-1.61862 0.484,-0.68236 1.30918,-1.04734 0.83311,-0.37292 1.88046,-0.37292 1.07114,0 1.88839,0.35705 0.82517,0.34911 1.28537,1.00767 0.46813,0.65062 0.46813,1.54721 z m -4.92727,0.12695 q 0,0.57921 0.38879,0.96006 0.38878,0.37292 1.21396,0.68236 0.53954,-0.39672 0.7379,-0.77757 0.19836,-0.38879 0.19836,-0.84898 0,-0.58715 -0.31737,-0.968 -0.30945,-0.38085 -0.93626,-0.38085 -0.61095,0 -0.95213,0.34118 -0.33325,0.33324 -0.33325,0.9918 z m 2.84845,5.23671 q 0,-0.54748 -0.22216,-0.88866 -0.21423,-0.34117 -0.67442,-0.58714 -0.4602,-0.2539 -1.20603,-0.51574 -0.484,0.30944 -0.76964,0.78551 -0.28564,0.47606 -0.28564,1.13462 0,0.68236 0.39672,1.11875 0.40465,0.42846 1.1981,0.42846 0.81724,0 1.19016,-0.43639 0.37291,-0.44433 0.37291,-1.03941 z"
         id="text82"
         style="font-weight:bold;font-size:15.4721px;line-height:0.9;font-family:'Fira Code';-inkscape-font-specification:'Fira Code, Bold';font-variant-ligatures:no-contextual;letter-spacing:-0.70246px;fill:#f8f8f2;stroke-width:0.999999;stroke-linecap:round;stroke-opacity:0.998262"
         aria-label="8" />
    </g>
    <g
       id="g83"
       transform="translate(209.45725)">
      <rect
         style="fill:none;fill-opacity:1;stroke:#f8f8f2;stroke-width:1.4;stroke-linecap:round;stroke-linejoin:bevel;stroke-dasharray:none;stroke-opacity:0.998262"
         id="rect83"
         width="23.273029"
         height="23.273029"
         x="243.38484"
         y="119.03864"
         ry="0.9701345" />
      <path
         d="m 254.88647,124.89891 q 1.34885,0 2.24544,0.55541 0.89659,0.55541 1.34885,1.54721 0.45226,0.98386 0.45226,2.28511 0,2.11055 -0.7141,3.57842 -0.71409,1.45993 -2.19783,2.38825 -1.48373,0.9204 -3.79265,1.39646 l -0.51573,-1.76144 q 1.94393,-0.49193 3.04681,-1.30124 1.10288,-0.80931 1.4758,-2.11055 -0.484,0.42845 -1.02354,0.66649 -0.5316,0.23009 -1.2219,0.23009 -0.86485,0 -1.57101,-0.43639 -0.70616,-0.43639 -1.12669,-1.22983 -0.41259,-0.79344 -0.41259,-1.85665 0,-1.19017 0.52368,-2.07882 0.5316,-0.88865 1.43612,-1.38059 0.91246,-0.49193 2.04708,-0.49193 z m -1.48373,3.87993 q 0,1.0156 0.39672,1.42819 0.40465,0.41259 0.968,0.41259 0.45226,0 0.83311,-0.15869 0.38085,-0.16662 0.74583,-0.484 0.0159,-1.66622 -0.26183,-2.47553 -0.26977,-0.81725 -1.21397,-0.81725 -0.67442,0 -1.07114,0.5078 -0.39672,0.50781 -0.39672,1.58689 z"
         id="text83"
         style="font-weight:bold;font-size:15.4721px;line-height:0.9;font-family:'Fira Code';-inkscape-font-specification:'Fira Code, Bold';font-variant-ligatures:no-contextual;letter-spacing:-0.70246px;fill:#f8f8f2;stroke-width:0.999999;stroke-linecap:round;stroke-opacity:0.998262"
         aria-label="9" />
    </g>
    <g
       id="g84"
       transform="translate(232.73028)">
      <rect
         style="fill:none;fill-opacity:1;stroke:#f8f8f2;stroke-width:1.4;stroke-linecap:round;stroke-linejoin:bevel;stroke-dasharray:none;stroke-opacity:0.998262"
         id="rect84"
         width="23.273029"
         height="23.273029"
         x="243.38484"
         y="119.03864"
         ry="0.9701345" />
      <path
         d="m 256.53683,133.80132 h -3.22137 l -0.57921,2.37239 h -2.72151 l 3.36419,-10.9971 h 3.1579 l 3.36419,10.9971 h -2.78498 z m -2.80878,-1.88839 h 2.38032 l -1.19016,-4.8638 z"
         id="text84"
         style="font-weight:bold;font-size:15.4721px;line-height:0.9;font-family:'Fira Code';-inkscape-font-specification:'Fira Code, Bold';font-variant-ligatures:no-contextual;letter-spacing:-0.70246px;fill:#f8f8f2;stroke-width:0.999999;stroke-linecap:round;stroke-opacity:0.998262"
         aria-label="A" />
    </g>
    <g
       id="g85"
       transform="translate(256.00331)">
      <rect
         style="fill:none;fill-opacity:1;stroke:#f8f8f2;stroke-width:1.4;stroke-linecap:round;stroke-linejoin:bevel;stroke-dasharray:none;stroke-opacity:0.998262"
         id="rect85"
         width="23.273029"
         height="23.273029"
         x="243.38484"
         y="119.03864"
         ry="0.9701345" />
      <path
         d="m 259.2504,132.95234 q 0,0.95212 -0.36499,1.57894 -0.36498,0.62682 -0.99973,0.98387 -0.63475,0.35705 -1.452,0.5078 -0.80931,0.15076 -1.7059,0.15076 h -3.64983 v -10.9971 h 3.48321 q 1.13462,0 2.08675,0.2539 0.96006,0.25391 1.53928,0.87279 0.58714,0.61095 0.58714,1.68209 0,0.98387 -0.60301,1.57102 -0.60302,0.58714 -1.41233,0.79344 0.58715,0.0952 1.15843,0.37292 0.57921,0.26977 0.95213,0.80931 0.38085,0.53954 0.38085,1.42026 z m -3.09442,-4.70511 q 0,-0.65062 -0.41259,-0.93626 -0.40466,-0.29357 -1.26157,-0.29357 h -0.80138 v 2.54694 h 0.88072 q 0.84105,0 1.21397,-0.30944 0.38085,-0.30944 0.38085,-1.00767 z m 0.41259,4.60196 q 0,-0.87279 -0.49987,-1.20603 -0.49193,-0.33325 -1.31711,-0.33325 h -1.07115 v 2.96747 h 0.96006 q 0.50781,0 0.9442,-0.10315 0.44433,-0.11108 0.7141,-0.42052 0.26977,-0.30944 0.26977,-0.90452 z"
         id="text85"
         style="font-weight:bold;font-size:15.4721px;line-height:0.9;font-family:'Fira Code';-inkscape-font-specification:'Fira Code, Bold';font-variant-ligatures:no-contextual;letter-spacing:-0.70246px;fill:#f8f8f2;stroke-width:0.999999;stroke-linecap:round;stroke-opacity:0.998262"
         aria-label="B" />
    </g>
    <g
       id="g86"
       transform="translate(279.27634)">
      <rect
         style="fill:none;fill-opacity:1;stroke:#f8f8f2;stroke-width:1.4;stroke-linecap:round;stroke-linejoin:bevel;stroke-dasharray:none;stroke-opacity:0.998262"
         id="rect86"
         width="23.273029"
         height="23.273029"
         x="243.38484"
         y="119.03864"
         ry="0.9701345" />
      <path
         d="m 255.87034,124.89891 q 1.18223,0 2.0074,0.31738 0.83312,0.30944 1.52341,0.88071 l -1.27744,1.53928 q -0.45226,-0.37292 -0.99973,-0.58715 -0.54748,-0.22216 -1.19017,-0.22216 -0.69029,0 -1.26157,0.39672 -0.57128,0.38879 -0.91245,1.23777 -0.34118,0.84105 -0.34118,2.1899 0,1.9836 0.71409,2.88812 0.72203,0.89659 1.84872,0.89659 0.82518,0 1.37265,-0.30944 0.54748,-0.30944 1.00767,-0.67443 l 1.18223,1.50754 q -0.61888,0.61095 -1.52341,1.04734 -0.90452,0.4364 -2.18196,0.4364 -1.49167,0 -2.65009,-0.65856 -1.15049,-0.66649 -1.80905,-1.95187 -0.65062,-1.2933 -0.65062,-3.18169 0,-1.84079 0.67443,-3.12616 0.68235,-1.28538 1.84871,-1.95187 1.16636,-0.67442 2.61836,-0.67442 z"
         id="text86"
         style="font-weight:bold;font-size:15.4721px;line-height:0.9;font-family:'Fira Code';-inkscape-font-specification:'Fira Code, Bold';font-variant-ligatures:no-contextual;letter-spacing:-0.70246px;fill:#f8f8f2;stroke-width:0.999999;stroke-linecap:round;stroke-opacity:0.998262"
         aria-label="C" />
    </g>
    <g
       id="g87"
       transform="translate(302.54937)">
      <rect
         style="fill:none;fill-opacity:1;stroke:#f8f8f2;stroke-width:1.4;stroke-linecap:round;stroke-linejoin:bevel;stroke-dasharray:none;stroke-opacity:0.998262"
         id="rect87"
         width="23.273029"
         height="23.273029"
         x="243.38484"
         y="119.03864"
         ry="0.9701345" />
      <path
         d="m 259.30594,130.61962 q 0,1.67416 -0.44433,2.76117 -0.43639,1.08702 -1.19016,1.69797 -0.75377,0.60301 -1.71383,0.84898 -0.95213,0.24597 -1.97567,0.24597 h -2.96747 v -10.9971 h 2.77704 q 1.05528,0 2.03915,0.22217 0.9918,0.21423 1.76937,0.80137 0.78551,0.57921 1.2457,1.65036 0.4602,1.06321 0.4602,2.76911 z m -2.6977,0 q 0,-1.48374 -0.32531,-2.24544 -0.31738,-0.7617 -0.87279,-1.03147 -0.54747,-0.27771 -1.23777,-0.27771 h -0.5554 v 7.22825 h 0.5554 q 0.72204,0 1.26951,-0.30944 0.54747,-0.31738 0.85692,-1.11875 0.30944,-0.80138 0.30944,-2.24544 z"
         id="text87"
         style="font-weight:bold;font-size:15.4721px;line-height:0.9;font-family:'Fira Code';-inkscape-font-specification:'Fira Code, Bold';font-variant-ligatures:no-contextual;letter-spacing:-0.70246px;fill:#f8f8f2;stroke-width:0.999999;stroke-linecap:round;stroke-opacity:0.998262"
         aria-label="D" />
    </g>
    <g
       id="g88"
       transform="translate(325.8224)">
      <rect
         style="fill:none;fill-opacity:1;stroke:#f8f8f2;stroke-width:1.4;stroke-linecap:round;stroke-linejoin:bevel;stroke-dasharray:none;stroke-opacity:0.998262"
         id="rect88"
         width="23.273029"
         height="23.273029"
         x="243.38484"
         y="119.03864"
         ry="0.9701345" />
      <path
         d="m 254.26759,127.03327 v 2.64215 h 3.80851 v 1.82492 h -3.80851 v 2.80878 h 4.59402 v 1.86459 h -7.19651 v -10.9971 h 7.18858 l -0.26184,1.85666 z"
         id="text88"
         style="font-weight:bold;font-size:15.4721px;line-height:0.9;font-family:'Fira Code';-inkscape-font-specification:'Fira Code, Bold';font-variant-ligatures:no-contextual;letter-spacing:-0.70246px;fill:#f8f8f2;stroke-width:0.999999;stroke-linecap:round;stroke-opacity:0.998262"
         aria-label="E" />
    </g>
    <g
       id="g89"
       transform="translate(349.09543)">
      <rect
         style="fill:none;fill-opacity:1;stroke:#f8f8f2;stroke-width:1.4;stroke-linecap:round;stroke-linejoin:bevel;stroke-dasharray:none;stroke-opacity:0.998262"
         id="rect89"
         width="23.273029"
         height="23.273029"
         x="243.38484"
         y="119.03864"
         ry="0.9701345" />
      <path
         d="m 254.51355,127.03327 v 2.91192 h 3.85613 v 1.86459 h -3.85613 v 4.36393 h -2.61042 v -10.9971 h 7.22825 l -0.26977,1.85666 z"
         id="text89"
         style="font-weight:bold;font-size:15.4721px;line-height:0.9;font-family:'Fira Code';-inkscape-font-specification:'Fira Code, Bold';font-variant-ligatures:no-contextual;letter-spacing:-0.70246px;fill:#f8f8f2;stroke-width:0.999999;stroke-linecap:round;stroke-opacity:0.998262"
         aria-label="F" />
    </g>
    <g
       id="g137">
      <path
         d="m 254.98603,145.84642 q 0.97347,0 1.46806,0.75366 0.49852,0.74974 0.49852,2.09219 0,1.34638 -0.49852,2.10789 -0.49459,0.75759 -1.46806,0.75759 -0.98133,0 -1.47592,-0.75759 -0.49066,-0.76151 -0.49066,-2.10789 0,-1.34245 0.49066,-2.09219 0.49459,-0.75366 1.47592,-0.75366 z m 0,0.8989 q -0.41608,0 -0.60842,0.44748 -0.19234,0.44356 -0.19234,1.49947 0,0.34543 0.0118,0.61628 0.0118,0.26692 0.0353,0.47496 l 1.32675,-2.7752 q -0.0942,-0.14916 -0.23551,-0.20411 -0.13739,-0.0589 -0.33758,-0.0589 z m 0.79291,1.94695 q 0,-0.45141 -0.0196,-0.76151 l -1.25217,2.58678 q 0.0864,0.0824 0.20412,0.11383 0.12168,0.0314 0.27477,0.0314 0.2787,0 0.45141,-0.18842 0.17664,-0.18841 0.25907,-0.6202 0.0824,-0.43571 0.0824,-1.16189 z"
         id="text90"
         style="font-weight:bold;font-size:7.65435px;line-height:0.9;font-family:'Fira Code';-inkscape-font-specification:'Fira Code, Bold';font-variant-ligatures:no-contextual;letter-spacing:-0.347521px;fill:#a6e22e;stroke-linecap:round;stroke-opacity:0.998262"
         aria-label="0" />
      <path
         d="m 280.26261,150.48614 v 0.93815 h -3.5367 v -0.93815 h 1.31105 v -3.28156 l -1.11871,0.6987 -0.52599,-0.85179 1.75461,-1.06768 h 1.09908 v 4.50233 z"
         id="text91"
         style="font-weight:bold;font-size:7.65435px;line-height:0.9;font-family:'Fira Code';-inkscape-font-specification:'Fira Code, Bold';font-variant-ligatures:no-contextual;letter-spacing:-0.347521px;fill:#a6e22e;stroke-linecap:round;stroke-opacity:0.998262"
         aria-label="1" />
      <path
         d="m 301.40978,145.84642 q 0.6202,0 1.03628,0.2159 0.42001,0.21589 0.62805,0.57309 0.21197,0.35328 0.21197,0.76936 0,0.32973 -0.11384,0.64768 -0.1099,0.31402 -0.36505,0.6673 -0.25514,0.34935 -0.67908,0.77721 -0.42001,0.42786 -1.0402,0.98133 h 2.32378 l -0.13346,0.946 h -3.61521 v -0.87927 q 0.67123,-0.64768 1.12264,-1.11479 0.45533,-0.46711 0.72618,-0.80469 0.27477,-0.3415 0.39253,-0.6045 0.11776,-0.26299 0.11776,-0.50636 0,-0.32973 -0.19234,-0.52207 -0.18842,-0.19234 -0.53777,-0.19234 -0.3101,0 -0.53777,0.12954 -0.22766,0.12953 -0.43963,0.42001 l -0.76151,-0.5731 q 0.30617,-0.42393 0.75366,-0.67515 0.44748,-0.25515 1.10301,-0.25515 z"
         id="text92"
         style="font-weight:bold;font-size:7.65435px;line-height:0.9;font-family:'Fira Code';-inkscape-font-specification:'Fira Code, Bold';font-variant-ligatures:no-contextual;letter-spacing:-0.347521px;fill:#a6e22e;stroke-linecap:round;stroke-opacity:0.998262"
         aria-label="2" />
      <path
         d="m 324.68447,145.84642 q 0.5888,0 1.00095,0.19234 0.41609,0.18842 0.63198,0.50637 0.21982,0.31402 0.21982,0.69478 0,0.51814 -0.30618,0.84001 -0.30225,0.31795 -0.80469,0.46319 0.56132,0.0746 0.92245,0.38468 0.36113,0.30617 0.36113,0.96563 0,0.45926 -0.25515,0.83609 -0.25122,0.37683 -0.72225,0.60449 -0.47104,0.22375 -1.12657,0.22375 -0.60842,0 -1.09123,-0.21197 -0.48281,-0.21589 -0.82432,-0.6045 l 0.69871,-0.6516 q 0.23552,0.27085 0.52206,0.39646 0.29048,0.12168 0.61235,0.12168 0.40431,0 0.65945,-0.20411 0.25515,-0.20805 0.25515,-0.59665 0,-0.43178 -0.24337,-0.6202 -0.23944,-0.19234 -0.67908,-0.19234 h -0.49459 l 0.14131,-0.85572 h 0.35328 q 0.36113,0 0.5888,-0.17664 0.23159,-0.17663 0.23159,-0.53384 0,-0.30617 -0.21982,-0.48281 -0.21981,-0.17664 -0.56917,-0.17664 -0.3258,0 -0.59272,0.12561 -0.26299,0.12561 -0.49459,0.34543 l -0.6359,-0.65945 q 0.37291,-0.36113 0.83609,-0.54562 0.46319,-0.18842 1.02451,-0.18842 z"
         id="text93"
         style="font-weight:bold;font-size:7.65435px;line-height:0.9;font-family:'Fira Code';-inkscape-font-specification:'Fira Code, Bold';font-variant-ligatures:no-contextual;letter-spacing:-0.347521px;fill:#a6e22e;stroke-linecap:round;stroke-opacity:0.998262"
         aria-label="3" />
      <path
         d="m 349.65489,148.04067 v 1.31105 h 0.54562 v 0.9303 h -0.54562 v 1.14227 h -1.18937 l -0.008,-1.14227 h -2.25312 v -0.82431 l 1.51124,-3.61129 1.05591,0.38861 -1.2875,3.11669 h 0.9774 l 0.14523,-1.31105 z"
         id="text94"
         style="font-weight:bold;font-size:7.65435px;line-height:0.9;font-family:'Fira Code';-inkscape-font-specification:'Fira Code, Bold';font-variant-ligatures:no-contextual;letter-spacing:-0.347521px;fill:#a6e22e;stroke-linecap:round;stroke-opacity:0.998262"
         aria-label="4" />
      <path
         d="m 373.20435,145.98381 -0.13738,0.88712 h -1.99013 v 1.17367 q 0.20019,-0.0942 0.41215,-0.13346 0.21197,-0.0393 0.39253,-0.0393 0.42001,0 0.76544,0.21197 0.34935,0.21197 0.55347,0.60842 0.20804,0.39646 0.20804,0.946 0,0.54954 -0.27085,0.98525 -0.26692,0.43571 -0.74581,0.68693 -0.47888,0.2473 -1.11871,0.2473 -0.59272,0 -1.04806,-0.21982 -0.45533,-0.22374 -0.75758,-0.59272 l 0.71441,-0.6516 q 0.19626,0.25122 0.45141,0.38468 0.25907,0.12953 0.54169,0.12953 0.43178,0 0.69085,-0.26299 0.263,-0.263 0.263,-0.68693 0,-0.50244 -0.20412,-0.71441 -0.20019,-0.21589 -0.52991,-0.21589 -0.14917,0 -0.31795,0.0393 -0.16879,0.0393 -0.34936,0.14131 h -0.83609 v -2.92435 z"
         id="text95"
         style="font-weight:bold;font-size:7.65435px;line-height:0.9;font-family:'Fira Code';-inkscape-font-specification:'Fira Code, Bold';font-variant-ligatures:no-contextual;letter-spacing:-0.347521px;fill:#a6e22e;stroke-linecap:round;stroke-opacity:0.998262"
         aria-label="5" />
      <path
         d="m 395.21902,145.84642 q 0.36113,0 0.65552,0.0942 0.29833,0.0942 0.52599,0.25515 l -0.47103,0.75366 q -0.15701,-0.11384 -0.33758,-0.16487 -0.17664,-0.0549 -0.34935,-0.0549 -0.44356,0 -0.74581,0.39645 -0.29832,0.39646 -0.34543,1.14619 0.24337,-0.25514 0.54562,-0.3729 0.30618,-0.12168 0.59665,-0.12168 0.42393,0 0.76936,0.21196 0.34543,0.20804 0.54954,0.61235 0.20412,0.40038 0.20412,0.9774 0,0.54562 -0.23552,0.99703 -0.23552,0.44748 -0.67123,0.71441 -0.43178,0.26692 -1.0245,0.26692 -0.5417,0 -0.92638,-0.20412 -0.38468,-0.20804 -0.62805,-0.56524 -0.24336,-0.36113 -0.3572,-0.82824 -0.11383,-0.47104 -0.11383,-0.99703 0,-0.91852 0.28262,-1.62115 0.28655,-0.70263 0.81254,-1.09909 0.52991,-0.39646 1.26395,-0.39646 z m -0.2473,2.78697 q -0.45926,0 -0.82039,0.41608 0.0118,0.81647 0.17272,1.22078 0.16093,0.40038 0.57702,0.40038 0.34935,0 0.51029,-0.29833 0.16486,-0.29832 0.16486,-0.72225 0,-0.5574 -0.16094,-0.78506 -0.15701,-0.2316 -0.44356,-0.2316 z"
         id="text96"
         style="font-weight:bold;font-size:7.65435px;line-height:0.9;font-family:'Fira Code';-inkscape-font-specification:'Fira Code, Bold';font-variant-ligatures:no-contextual;letter-spacing:-0.347521px;fill:#a6e22e;stroke-linecap:round;stroke-opacity:0.998262"
         aria-label="6" />
      <path
         d="m 417.84603,151.5499 -1.17759,-0.36506 2.02938,-4.26681 h -2.39051 v -0.93422 h 3.64661 v 0.84002 z"
         id="text97"
         style="font-weight:bold;font-size:7.65435px;line-height:0.9;font-family:'Fira Code';-inkscape-font-specification:'Fira Code, Bold';font-variant-ligatures:no-contextual;letter-spacing:-0.347521px;fill:#a6e22e;stroke-linecap:round;stroke-opacity:0.998262"
         aria-label="7" />
      <path
         d="m 443.24431,147.28701 q 0,0.38076 -0.20412,0.65553 -0.20411,0.27477 -0.63982,0.52206 0.54954,0.27478 0.80076,0.65161 0.25515,0.3729 0.25515,0.83216 0,0.42001 -0.2316,0.78899 -0.22766,0.36505 -0.683,0.59272 -0.45141,0.22767 -1.13049,0.22767 -0.66337,0 -1.11086,-0.21982 -0.44356,-0.21982 -0.6673,-0.57702 -0.21982,-0.36113 -0.21982,-0.78114 0,-0.46711 0.27085,-0.81254 0.27084,-0.34542 0.7301,-0.54561 -0.41608,-0.26692 -0.60449,-0.5417 -0.18449,-0.27869 -0.18449,-0.7301 0,-0.46319 0.23944,-0.80077 0.23944,-0.33757 0.64768,-0.51814 0.41215,-0.18449 0.93029,-0.18449 0.52992,0 0.93423,0.17664 0.40823,0.17272 0.6359,0.49852 0.23159,0.32187 0.23159,0.76543 z m -2.43762,0.0628 q 0,0.28654 0.19234,0.47496 0.19234,0.18449 0.60058,0.33758 0.26692,-0.19627 0.36505,-0.38468 0.0981,-0.19234 0.0981,-0.42001 0,-0.29048 -0.15701,-0.47889 -0.15309,-0.18842 -0.46319,-0.18842 -0.30224,0 -0.47103,0.16879 -0.16487,0.16487 -0.16487,0.49067 z m 1.40919,2.5907 q 0,-0.27085 -0.10991,-0.43963 -0.10598,-0.16879 -0.33365,-0.29048 -0.22767,-0.12561 -0.59665,-0.25514 -0.23944,0.15308 -0.38075,0.3886 -0.14131,0.23552 -0.14131,0.56132 0,0.33758 0.19626,0.55347 0.20019,0.21197 0.59272,0.21197 0.40431,0 0.5888,-0.2159 0.18449,-0.21981 0.18449,-0.51421 z"
         id="text98"
         style="font-weight:bold;font-size:7.65435px;line-height:0.9;font-family:'Fira Code';-inkscape-font-specification:'Fira Code, Bold';font-variant-ligatures:no-contextual;letter-spacing:-0.347521px;fill:#a6e22e;stroke-linecap:round;stroke-opacity:0.998262"
         aria-label="8" />
      <path
         d="m 464.70943,145.84642 q 0.66731,0 1.11086,0.27478 0.44356,0.27477 0.66731,0.76543 0.22374,0.48674 0.22374,1.13049 0,1.04413 -0.35328,1.77031 -0.35328,0.72226 -1.08731,1.18152 -0.73403,0.45534 -1.8763,0.69085 l -0.25514,-0.87141 q 0.9617,-0.24337 1.50732,-0.64375 0.54562,-0.40039 0.73011,-1.04414 -0.23945,0.21197 -0.50637,0.32973 -0.263,0.11383 -0.6045,0.11383 -0.42786,0 -0.77721,-0.21589 -0.34935,-0.21589 -0.55739,-0.60842 -0.20412,-0.39253 -0.20412,-0.91852 0,-0.5888 0.25907,-1.02843 0.263,-0.43964 0.71048,-0.68301 0.45141,-0.24337 1.01273,-0.24337 z m -0.73403,1.91948 q 0,0.50244 0.19627,0.70655 0.20019,0.20412 0.47888,0.20412 0.22375,0 0.41216,-0.0785 0.18842,-0.0824 0.36898,-0.23944 0.008,-0.82431 -0.12954,-1.2247 -0.13346,-0.4043 -0.60057,-0.4043 -0.33365,0 -0.52991,0.25122 -0.19627,0.25122 -0.19627,0.78506 z"
         id="text99"
         style="font-weight:bold;font-size:7.65435px;line-height:0.9;font-family:'Fira Code';-inkscape-font-specification:'Fira Code, Bold';font-variant-ligatures:no-contextual;letter-spacing:-0.347521px;fill:#a6e22e;stroke-linecap:round;stroke-opacity:0.998262"
         aria-label="9" />
      <path
         d="m 487.44388,150.48614 v 0.93815 h -3.5367 v -0.93815 h 1.31105 v -3.28156 l -1.11871,0.6987 -0.52599,-0.85179 1.75461,-1.06768 h 1.09909 v 4.50233 z m 2.39235,-4.63972 q 0.97348,0 1.46807,0.75366 0.49851,0.74974 0.49851,2.09219 0,1.34638 -0.49851,2.10789 -0.49459,0.75759 -1.46807,0.75759 -0.98133,0 -1.47591,-0.75759 -0.49067,-0.76151 -0.49067,-2.10789 0,-1.34245 0.49067,-2.09219 0.49458,-0.75366 1.47591,-0.75366 z m 0,0.8989 q -0.41608,0 -0.60842,0.44748 -0.19234,0.44356 -0.19234,1.49947 0,0.34543 0.0118,0.61628 0.0118,0.26692 0.0353,0.47496 l 1.32676,-2.7752 q -0.0942,-0.14916 -0.23552,-0.20411 -0.13739,-0.0589 -0.33758,-0.0589 z m 0.79291,1.94695 q 0,-0.45141 -0.0196,-0.76151 l -1.25218,2.58678 q 0.0864,0.0824 0.20412,0.11383 0.12168,0.0314 0.27477,0.0314 0.2787,0 0.45141,-0.18842 0.17664,-0.18841 0.25907,-0.6202 0.0824,-0.43571 0.0824,-1.16189 z"
         id="text100"
         style="font-weight:bold;font-size:7.65435px;line-height:0.9;font-family:'Fira Code';-inkscape-font-specification:'Fira Code, Bold';font-variant-ligatures:no-contextual;letter-spacing:-0.347521px;fill:#a6e22e;stroke-linecap:round;stroke-opacity:0.998262"
         aria-label="10" />
      <path
         d="m 510.92124,150.48614 v 0.93815 h -3.5367 v -0.93815 h 1.31105 v -3.28156 l -1.11871,0.6987 -0.52599,-0.85179 1.75461,-1.06768 h 1.09908 v 4.50233 z m 4.36285,0 v 0.93815 h -3.5367 v -0.93815 h 1.31105 v -3.28156 l -1.11871,0.6987 -0.52599,-0.85179 1.75461,-1.06768 h 1.09909 v 4.50233 z"
         id="text101"
         style="font-weight:bold;font-size:7.65435px;line-height:0.9;font-family:'Fira Code';-inkscape-font-specification:'Fira Code, Bold';font-variant-ligatures:no-contextual;letter-spacing:-0.347521px;fill:#a6e22e;stroke-linecap:round;stroke-opacity:0.998262"
         aria-label="11" />
      <path
         d="m 534.12995,150.48614 v 0.93815 h -3.5367 v -0.93815 h 1.31105 v -3.28156 l -1.11871,0.6987 -0.52599,-0.85179 1.75461,-1.06768 h 1.09908 v 4.50233 z m 2.20393,-4.63972 q 0.6202,0 1.03628,0.2159 0.42001,0.21589 0.62805,0.57309 0.21197,0.35328 0.21197,0.76936 0,0.32973 -0.11384,0.64768 -0.1099,0.31402 -0.36505,0.6673 -0.25514,0.34935 -0.67908,0.77721 -0.42,0.42786 -1.0402,0.98133 h 2.32378 l -0.13346,0.946 h -3.61521 v -0.87927 q 0.67123,-0.64768 1.12264,-1.11479 0.45533,-0.46711 0.72618,-0.80469 0.27477,-0.3415 0.39253,-0.6045 0.11776,-0.26299 0.11776,-0.50636 0,-0.32973 -0.19234,-0.52207 -0.18842,-0.19234 -0.53777,-0.19234 -0.3101,0 -0.53776,0.12954 -0.22767,0.12953 -0.43964,0.42001 l -0.76151,-0.5731 q 0.30618,-0.42393 0.75366,-0.67515 0.44749,-0.25515 1.10301,-0.25515 z"
         id="text102"
         style="font-weight:bold;font-size:7.65435px;line-height:0.9;font-family:'Fira Code';-inkscape-font-specification:'Fira Code, Bold';font-variant-ligatures:no-contextual;letter-spacing:-0.347521px;fill:#a6e22e;stroke-linecap:round;stroke-opacity:0.998262"
         aria-label="12" />
      <path
         d="m 557.40693,150.48614 v 0.93815 h -3.53671 v -0.93815 h 1.31106 v -3.28156 l -1.11872,0.6987 -0.52599,-0.85179 1.75462,-1.06768 h 1.09908 v 4.50233 z m 2.17253,-4.63972 q 0.58879,0 1.00095,0.19234 0.41608,0.18842 0.63197,0.50637 0.21982,0.31402 0.21982,0.69478 0,0.51814 -0.30617,0.84001 -0.30225,0.31795 -0.80469,0.46319 0.56132,0.0746 0.92245,0.38468 0.36113,0.30617 0.36113,0.96563 0,0.45926 -0.25515,0.83609 -0.25122,0.37683 -0.72226,0.60449 -0.47103,0.22375 -1.12656,0.22375 -0.60842,0 -1.09123,-0.21197 -0.48282,-0.21589 -0.82432,-0.6045 l 0.69871,-0.6516 q 0.23551,0.27085 0.52206,0.39646 0.29047,0.12168 0.61235,0.12168 0.40431,0 0.65945,-0.20411 0.25515,-0.20805 0.25515,-0.59665 0,-0.43178 -0.24337,-0.6202 -0.23945,-0.19234 -0.67908,-0.19234 h -0.49459 l 0.14131,-0.85572 h 0.35328 q 0.36113,0 0.58879,-0.17664 0.2316,-0.17663 0.2316,-0.53384 0,-0.30617 -0.21982,-0.48281 -0.21982,-0.17664 -0.56917,-0.17664 -0.3258,0 -0.59272,0.12561 -0.263,0.12561 -0.49459,0.34543 l -0.6359,-0.65945 q 0.37291,-0.36113 0.83609,-0.54562 0.46319,-0.18842 1.02451,-0.18842 z"
         id="text103"
         style="font-weight:bold;font-size:7.65435px;line-height:0.9;font-family:'Fira Code';-inkscape-font-specification:'Fira Code, Bold';font-variant-ligatures:no-contextual;letter-spacing:-0.347521px;fill:#a6e22e;stroke-linecap:round;stroke-opacity:0.998262"
         aria-label="13" />
      <path
         d="m 580.82972,150.48614 v 0.93815 h -3.5367 v -0.93815 h 1.31105 v -3.28156 l -1.11871,0.6987 -0.526,-0.85179 1.75462,-1.06768 h 1.09908 v 4.50233 z m 3.83686,-2.44547 v 1.31105 h 0.54562 v 0.9303 h -0.54562 v 1.14227 h -1.18937 l -0.008,-1.14227 h -2.25313 v -0.82431 l 1.51125,-3.61129 1.0559,0.38861 -1.2875,3.11669 h 0.9774 l 0.14524,-1.31105 z"
         id="text104"
         style="font-weight:bold;font-size:7.65435px;line-height:0.9;font-family:'Fira Code';-inkscape-font-specification:'Fira Code, Bold';font-variant-ligatures:no-contextual;letter-spacing:-0.347521px;fill:#a6e22e;stroke-linecap:round;stroke-opacity:0.998262"
         aria-label="14" />
      <path
         d="m 604.40571,150.48614 v 0.93815 H 600.869 v -0.93815 h 1.31106 v -3.28156 l -1.11872,0.6987 -0.52599,-0.85179 1.75462,-1.06768 h 1.09908 v 4.50233 z m 4.08023,-4.50233 -0.13739,0.88712 h -1.99013 v 1.17367 q 0.20019,-0.0942 0.41216,-0.13346 0.21196,-0.0393 0.39253,-0.0393 0.42,0 0.76543,0.21197 0.34935,0.21197 0.55347,0.60842 0.20804,0.39646 0.20804,0.946 0,0.54954 -0.27084,0.98525 -0.26693,0.43571 -0.74581,0.68693 -0.47889,0.2473 -1.11872,0.2473 -0.59272,0 -1.04805,-0.21982 -0.45534,-0.22374 -0.75759,-0.59272 l 0.71441,-0.6516 q 0.19626,0.25122 0.45141,0.38468 0.25907,0.12953 0.54169,0.12953 0.43179,0 0.69086,-0.26299 0.26299,-0.263 0.26299,-0.68693 0,-0.50244 -0.20411,-0.71441 -0.2002,-0.21589 -0.52992,-0.21589 -0.14916,0 -0.31795,0.0393 -0.16879,0.0393 -0.34935,0.14131 h -0.83609 v -2.92435 z"
         id="text105"
         style="font-weight:bold;font-size:7.65435px;line-height:0.9;font-family:'Fira Code';-inkscape-font-specification:'Fira Code, Bold';font-variant-ligatures:no-contextual;letter-spacing:-0.347521px;fill:#a6e22e;stroke-linecap:round;stroke-opacity:0.998262"
         aria-label="15" />
    </g>
    <g
       id="g138">
      <path
         d="m 248.77631,159.95738 v -0.96563 h 3.39932 v 0.96563 z m 8.03302,1.03628 v 0.93815 h -3.5367 v -0.93815 h 1.31105 v -3.28156 l -1.11871,0.69871 -0.52599,-0.85179 1.75461,-1.06769 h 1.09908 v 4.50233 z m 2.7888,-4.63971 q 0.36113,0 0.65553,0.0942 0.29832,0.0942 0.52599,0.25515 l -0.47104,0.75366 q -0.15701,-0.11384 -0.33757,-0.16487 -0.17664,-0.0549 -0.34936,-0.0549 -0.44356,0 -0.7458,0.39646 -0.29833,0.39645 -0.34543,1.14619 0.24337,-0.25515 0.54562,-0.37291 0.30617,-0.12168 0.59664,-0.12168 0.42394,0 0.76936,0.21196 0.34543,0.20805 0.54955,0.61235 0.20411,0.40038 0.20411,0.9774 0,0.54562 -0.23552,0.99703 -0.23551,0.44749 -0.67122,0.71441 -0.43179,0.26692 -1.02451,0.26692 -0.54169,0 -0.92637,-0.20412 -0.38468,-0.20804 -0.62805,-0.56524 -0.24337,-0.36113 -0.3572,-0.82824 -0.11384,-0.47104 -0.11384,-0.99703 0,-0.91852 0.28262,-1.62115 0.28655,-0.70263 0.81254,-1.09909 0.52992,-0.39645 1.26395,-0.39645 z m -0.24729,2.78696 q -0.45926,0 -0.82039,0.41609 0.0118,0.81646 0.17271,1.22077 0.16094,0.40038 0.57702,0.40038 0.34935,0 0.51029,-0.29832 0.16487,-0.29833 0.16487,-0.72226 0,-0.55739 -0.16094,-0.78506 -0.15701,-0.2316 -0.44356,-0.2316 z"
         id="text106"
         style="font-weight:bold;font-size:7.65435px;line-height:0.9;font-family:'Fira Code';-inkscape-font-specification:'Fira Code, Bold';font-variant-ligatures:no-contextual;letter-spacing:-0.347521px;fill:#66d9ef;stroke-linecap:round;stroke-opacity:0.998262"
         aria-label="-16" />
      <path
         d="m 272.16874,159.95738 v -0.96563 h 3.39932 v 0.96563 z m 8.03301,1.03628 v 0.93815 h -3.5367 v -0.93815 h 1.31106 v -3.28156 l -1.11872,0.69871 -0.52599,-0.85179 1.75461,-1.06769 h 1.09909 v 4.50233 z m 4.08023,-4.50233 -0.13738,0.88712 h -1.99013 v 1.17367 q 0.20019,-0.0942 0.41215,-0.13346 0.21197,-0.0392 0.39254,-0.0392 0.42,0 0.76543,0.21196 0.34935,0.21197 0.55347,0.60842 0.20804,0.39646 0.20804,0.946 0,0.54955 -0.27085,0.98526 -0.26692,0.4357 -0.7458,0.68692 -0.47889,0.2473 -1.11872,0.2473 -0.59272,0 -1.04805,-0.21982 -0.45534,-0.22374 -0.75759,-0.59272 l 0.71441,-0.6516 q 0.19626,0.25122 0.45141,0.38468 0.25907,0.12953 0.54169,0.12953 0.43178,0 0.69085,-0.26299 0.263,-0.263 0.263,-0.68693 0,-0.50244 -0.20412,-0.71441 -0.20019,-0.21589 -0.52991,-0.21589 -0.14916,0 -0.31795,0.0393 -0.16879,0.0392 -0.34935,0.14131 h -0.8361 v -2.92436 z"
         id="text107"
         style="font-weight:bold;font-size:7.65435px;line-height:0.9;font-family:'Fira Code';-inkscape-font-specification:'Fira Code, Bold';font-variant-ligatures:no-contextual;letter-spacing:-0.347521px;fill:#66d9ef;stroke-linecap:round;stroke-opacity:0.998262"
         aria-label="-15" />
      <path
         d="m 295.27467,159.95738 v -0.96563 h 3.39931 v 0.96563 z m 8.03301,1.03628 v 0.93815 h -3.5367 v -0.93815 h 1.31105 v -3.28156 l -1.11871,0.69871 -0.52599,-0.85179 1.75461,-1.06769 h 1.09909 v 4.50233 z m 3.83686,-2.44547 v 1.31106 h 0.54562 v 0.93029 h -0.54562 v 1.14227 h -1.18937 l -0.008,-1.14227 h -2.25312 v -0.82431 l 1.51124,-3.61128 1.05591,0.3886 -1.2875,3.1167 h 0.9774 l 0.14523,-1.31106 z"
         id="text108"
         style="font-weight:bold;font-size:7.65435px;line-height:0.9;font-family:'Fira Code';-inkscape-font-specification:'Fira Code, Bold';font-variant-ligatures:no-contextual;letter-spacing:-0.347521px;fill:#66d9ef;stroke-linecap:round;stroke-opacity:0.998262"
         aria-label="-14" />
      <path
         d="m 318.72492,159.95738 v -0.96563 h 3.39932 v 0.96563 z m 8.03302,1.03628 v 0.93815 h -3.5367 v -0.93815 h 1.31105 v -3.28156 l -1.11871,0.69871 -0.526,-0.85179 1.75462,-1.06769 h 1.09908 v 4.50233 z m 2.17253,-4.63971 q 0.58879,0 1.00095,0.19234 0.41608,0.18841 0.63198,0.50636 0.21981,0.31403 0.21981,0.69478 0,0.51814 -0.30617,0.84002 -0.30225,0.31795 -0.80469,0.46318 0.56132,0.0746 0.92245,0.38468 0.36113,0.30618 0.36113,0.96563 0,0.45926 -0.25515,0.83609 -0.25122,0.37683 -0.72226,0.6045 -0.47103,0.22374 -1.12656,0.22374 -0.60842,0 -1.09123,-0.21197 -0.48282,-0.21589 -0.82432,-0.6045 l 0.69871,-0.6516 q 0.23551,0.27085 0.52206,0.39646 0.29047,0.12168 0.61235,0.12168 0.40431,0 0.65945,-0.20411 0.25515,-0.20804 0.25515,-0.59665 0,-0.43178 -0.24337,-0.6202 -0.23945,-0.19234 -0.67908,-0.19234 h -0.49459 l 0.14131,-0.85571 h 0.35328 q 0.36113,0 0.5888,-0.17664 0.23159,-0.17664 0.23159,-0.53384 0,-0.30618 -0.21982,-0.48282 -0.21982,-0.17664 -0.56917,-0.17664 -0.3258,0 -0.59272,0.12561 -0.263,0.12561 -0.49459,0.34543 l -0.6359,-0.65945 q 0.37291,-0.36113 0.83609,-0.54562 0.46319,-0.18841 1.02451,-0.18841 z"
         id="text109"
         style="font-weight:bold;font-size:7.65435px;line-height:0.9;font-family:'Fira Code';-inkscape-font-specification:'Fira Code, Bold';font-variant-ligatures:no-contextual;letter-spacing:-0.347521px;fill:#66d9ef;stroke-linecap:round;stroke-opacity:0.998262"
         aria-label="-13" />
      <path
         d="m 342.08311,159.95738 v -0.96563 h 3.39931 v 0.96563 z m 8.03301,1.03628 v 0.93815 h -3.5367 v -0.93815 h 1.31105 v -3.28156 l -1.11871,0.69871 -0.52599,-0.85179 1.75461,-1.06769 h 1.09909 v 4.50233 z m 2.20393,-4.63971 q 0.6202,0 1.03629,0.21589 0.42,0.21589 0.62805,0.57309 0.21196,0.35328 0.21196,0.76936 0,0.32973 -0.11383,0.64768 -0.10991,0.31402 -0.36506,0.6673 -0.25514,0.34935 -0.67907,0.77721 -0.42001,0.42786 -1.04021,0.98133 h 2.32378 l -0.13346,0.946 h -3.61521 v -0.87927 q 0.67123,-0.64768 1.12264,-1.11479 0.45534,-0.46711 0.72618,-0.80469 0.27477,-0.3415 0.39253,-0.60449 0.11776,-0.263 0.11776,-0.50637 0,-0.32972 -0.19234,-0.52206 -0.18841,-0.19234 -0.53776,-0.19234 -0.3101,0 -0.53777,0.12953 -0.22767,0.12954 -0.43964,0.42001 l -0.76151,-0.5731 q 0.30618,-0.42393 0.75366,-0.67515 0.44749,-0.25514 1.10301,-0.25514 z"
         id="text110"
         style="font-weight:bold;font-size:7.65435px;line-height:0.9;font-family:'Fira Code';-inkscape-font-specification:'Fira Code, Bold';font-variant-ligatures:no-contextual;letter-spacing:-0.347521px;fill:#66d9ef;stroke-linecap:round;stroke-opacity:0.998262"
         aria-label="-12" />
      <path
         d="m 365.24003,159.95738 v -0.96563 h 3.39932 v 0.96563 z m 8.03301,1.03628 v 0.93815 h -3.5367 v -0.93815 h 1.31105 v -3.28156 l -1.11871,0.69871 -0.52599,-0.85179 1.75461,-1.06769 h 1.09909 v 4.50233 z m 4.36286,0 v 0.93815 h -3.53671 v -0.93815 h 1.31106 v -3.28156 l -1.11872,0.69871 -0.52599,-0.85179 1.75461,-1.06769 h 1.09909 v 4.50233 z"
         id="text111"
         style="font-weight:bold;font-size:7.65435px;line-height:0.9;font-family:'Fira Code';-inkscape-font-specification:'Fira Code, Bold';font-variant-ligatures:no-contextual;letter-spacing:-0.347521px;fill:#66d9ef;stroke-linecap:round;stroke-opacity:0.998262"
         aria-label="-11" />
      <path
         d="m 388.64228,159.95738 v -0.96563 h 3.39932 v 0.96563 z m 8.03302,1.03628 v 0.93815 h -3.53671 v -0.93815 h 1.31106 v -3.28156 l -1.11872,0.69871 -0.52599,-0.85179 1.75462,-1.06769 h 1.09908 v 4.50233 z m 2.39234,-4.63971 q 0.97348,0 1.46807,0.75366 0.49851,0.74973 0.49851,2.09218 0,1.34638 -0.49851,2.10789 -0.49459,0.75759 -1.46807,0.75759 -0.98132,0 -1.47591,-0.75759 -0.49067,-0.76151 -0.49067,-2.10789 0,-1.34245 0.49067,-2.09218 0.49459,-0.75366 1.47591,-0.75366 z m 0,0.89889 q -0.41608,0 -0.60842,0.44749 -0.19234,0.44356 -0.19234,1.49946 0,0.34543 0.0118,0.61628 0.0118,0.26692 0.0353,0.47496 l 1.32676,-2.77519 q -0.0942,-0.14916 -0.23552,-0.20412 -0.13739,-0.0589 -0.33758,-0.0589 z m 0.79292,1.94695 q 0,-0.45141 -0.0196,-0.76151 l -1.25217,2.58678 q 0.0864,0.0824 0.20411,0.11384 0.12169,0.0314 0.27477,0.0314 0.2787,0 0.45141,-0.18842 0.17664,-0.18841 0.25907,-0.62019 0.0824,-0.43571 0.0824,-1.1619 z"
         id="text112"
         style="font-weight:bold;font-size:7.65435px;line-height:0.9;font-family:'Fira Code';-inkscape-font-specification:'Fira Code, Bold';font-variant-ligatures:no-contextual;letter-spacing:-0.347521px;fill:#66d9ef;stroke-linecap:round;stroke-opacity:0.998262"
         aria-label="-10" />
      <path
         d="m 414.11411,159.95738 v -0.96563 h 3.39932 v 0.96563 z m 6.03111,-3.60343 q 0.6673,0 1.11086,0.27477 0.44356,0.27477 0.66731,0.76543 0.22374,0.48674 0.22374,1.13049 0,1.04413 -0.35328,1.77032 -0.35328,0.72225 -1.08731,1.18151 -0.73403,0.45534 -1.8763,0.69086 l -0.25514,-0.87142 q 0.9617,-0.24337 1.50732,-0.64375 0.54561,-0.40038 0.7301,-1.04413 -0.23944,0.21196 -0.50636,0.32972 -0.263,0.11384 -0.6045,0.11384 -0.42786,0 -0.77721,-0.2159 -0.34935,-0.21589 -0.55739,-0.60842 -0.20412,-0.39253 -0.20412,-0.91852 0,-0.5888 0.25907,-1.02843 0.263,-0.43964 0.71048,-0.683 0.45141,-0.24337 1.01273,-0.24337 z m -0.73403,1.91947 q 0,0.50244 0.19626,0.70656 0.20019,0.20411 0.47889,0.20411 0.22374,0 0.41216,-0.0785 0.18841,-0.0824 0.36898,-0.23945 0.008,-0.82431 -0.12954,-1.22469 -0.13346,-0.40431 -0.60057,-0.40431 -0.33365,0 -0.52992,0.25122 -0.19626,0.25122 -0.19626,0.78506 z"
         id="text113"
         style="font-weight:bold;font-size:7.65435px;line-height:0.9;font-family:'Fira Code';-inkscape-font-specification:'Fira Code, Bold';font-variant-ligatures:no-contextual;letter-spacing:-0.347521px;fill:#66d9ef;stroke-linecap:round;stroke-opacity:0.998262"
         aria-label="-9" />
      <path
         d="m 437.16355,159.95738 v -0.96563 h 3.39932 v 0.96563 z m 7.87208,-2.16285 q 0,0.38076 -0.20412,0.65553 -0.20411,0.27477 -0.63982,0.52207 0.54954,0.27477 0.80076,0.6516 0.25515,0.3729 0.25515,0.83216 0,0.42001 -0.2316,0.78899 -0.22767,0.36505 -0.683,0.59272 -0.45141,0.22767 -1.13049,0.22767 -0.66338,0 -1.11086,-0.21982 -0.44356,-0.21982 -0.6673,-0.57702 -0.21982,-0.36113 -0.21982,-0.78113 0,-0.46712 0.27085,-0.81254 0.27084,-0.34543 0.7301,-0.54562 -0.41608,-0.26692 -0.6045,-0.54169 -0.18448,-0.2787 -0.18448,-0.73011 0,-0.46319 0.23944,-0.80076 0.23944,-0.33758 0.64768,-0.51814 0.41215,-0.18449 0.93029,-0.18449 0.52992,0 0.93423,0.17664 0.40823,0.17271 0.6359,0.49851 0.23159,0.32187 0.23159,0.76543 z m -2.43762,0.0628 q 0,0.28655 0.19234,0.47496 0.19234,0.18449 0.60058,0.33758 0.26692,-0.19627 0.36505,-0.38468 0.0981,-0.19234 0.0981,-0.42001 0,-0.29047 -0.15701,-0.47889 -0.15309,-0.18841 -0.46319,-0.18841 -0.30225,0 -0.47103,0.16879 -0.16487,0.16486 -0.16487,0.49066 z m 1.40919,2.5907 q 0,-0.27084 -0.10991,-0.43963 -0.10598,-0.16879 -0.33365,-0.29048 -0.22767,-0.1256 -0.59665,-0.25514 -0.23944,0.15309 -0.38075,0.38861 -0.14131,0.23551 -0.14131,0.56131 0,0.33758 0.19626,0.55347 0.20019,0.21197 0.59272,0.21197 0.40431,0 0.5888,-0.21589 0.18449,-0.21982 0.18449,-0.51422 z"
         id="text114"
         style="font-weight:bold;font-size:7.65435px;line-height:0.9;font-family:'Fira Code';-inkscape-font-specification:'Fira Code, Bold';font-variant-ligatures:no-contextual;letter-spacing:-0.347521px;fill:#66d9ef;stroke-linecap:round;stroke-opacity:0.998262"
         aria-label="-8" />
      <path
         d="m 460.41966,159.95738 v -0.96563 h 3.39931 v 0.96563 z m 5.77988,2.10004 -1.17759,-0.36506 2.02939,-4.2668 h -2.39052 v -0.93423 h 3.64661 v 0.84002 z"
         id="text115"
         style="font-weight:bold;font-size:7.65435px;line-height:0.9;font-family:'Fira Code';-inkscape-font-specification:'Fira Code, Bold';font-variant-ligatures:no-contextual;letter-spacing:-0.347521px;fill:#66d9ef;stroke-linecap:round;stroke-opacity:0.998262"
         aria-label="-7" />
      <path
         d="m 483.74626,159.95738 v -0.96563 h 3.39931 v 0.96563 z m 6.45896,-3.60343 q 0.36113,0 0.65553,0.0942 0.29832,0.0942 0.52599,0.25515 l -0.47104,0.75366 q -0.15701,-0.11384 -0.33757,-0.16487 -0.17664,-0.0549 -0.34936,-0.0549 -0.44356,0 -0.74581,0.39646 -0.29832,0.39645 -0.34542,1.14619 0.24337,-0.25515 0.54562,-0.37291 0.30617,-0.12168 0.59664,-0.12168 0.42394,0 0.76936,0.21196 0.34543,0.20805 0.54955,0.61235 0.20411,0.40038 0.20411,0.9774 0,0.54562 -0.23552,0.99703 -0.23552,0.44749 -0.67122,0.71441 -0.43179,0.26692 -1.02451,0.26692 -0.54169,0 -0.92637,-0.20412 -0.38468,-0.20804 -0.62805,-0.56524 -0.24337,-0.36113 -0.3572,-0.82824 -0.11384,-0.47104 -0.11384,-0.99703 0,-0.91852 0.28262,-1.62115 0.28655,-0.70263 0.81254,-1.09909 0.52992,-0.39645 1.26395,-0.39645 z m -0.24729,2.78696 q -0.45926,0 -0.82039,0.41609 0.0118,0.81646 0.17271,1.22077 0.16094,0.40038 0.57702,0.40038 0.34935,0 0.51029,-0.29832 0.16486,-0.29833 0.16486,-0.72226 0,-0.55739 -0.16093,-0.78506 -0.15702,-0.2316 -0.44356,-0.2316 z"
         id="text116"
         style="font-weight:bold;font-size:7.65435px;line-height:0.9;font-family:'Fira Code';-inkscape-font-specification:'Fira Code, Bold';font-variant-ligatures:no-contextual;letter-spacing:-0.347521px;fill:#66d9ef;stroke-linecap:round;stroke-opacity:0.998262"
         aria-label="-6" />
      <path
         d="m 507.25108,159.95738 v -0.96563 h 3.39931 v 0.96563 z m 7.75039,-3.46605 -0.13739,0.88712 h -1.99013 v 1.17367 q 0.20019,-0.0942 0.41216,-0.13346 0.21197,-0.0392 0.39253,-0.0392 0.42001,0 0.76544,0.21196 0.34935,0.21197 0.55346,0.60842 0.20804,0.39646 0.20804,0.946 0,0.54955 -0.27084,0.98526 -0.26692,0.4357 -0.74581,0.68692 -0.47889,0.2473 -1.11871,0.2473 -0.59272,0 -1.04806,-0.21982 -0.45534,-0.22374 -0.75758,-0.59272 l 0.7144,-0.6516 q 0.19627,0.25122 0.45141,0.38468 0.25907,0.12953 0.54169,0.12953 0.43179,0 0.69086,-0.26299 0.26299,-0.263 0.26299,-0.68693 0,-0.50244 -0.20411,-0.71441 -0.20019,-0.21589 -0.52992,-0.21589 -0.14916,0 -0.31795,0.0393 -0.16879,0.0392 -0.34935,0.14131 h -0.83609 v -2.92436 z"
         id="text117"
         style="font-weight:bold;font-size:7.65435px;line-height:0.9;font-family:'Fira Code';-inkscape-font-specification:'Fira Code, Bold';font-variant-ligatures:no-contextual;letter-spacing:-0.347521px;fill:#66d9ef;stroke-linecap:round;stroke-opacity:0.998262"
         aria-label="-5" />
      <path
         d="m 530.45979,159.95738 v -0.96563 h 3.39931 v 0.96563 z m 7.50702,-1.40919 v 1.31106 h 0.54562 v 0.93029 h -0.54562 v 1.14227 h -1.18937 l -0.008,-1.14227 h -2.25313 v -0.82431 l 1.51125,-3.61128 1.05591,0.3886 -1.28751,3.1167 h 0.97741 l 0.14523,-1.31106 z"
         id="text118"
         style="font-weight:bold;font-size:7.65435px;line-height:0.9;font-family:'Fira Code';-inkscape-font-specification:'Fira Code, Bold';font-variant-ligatures:no-contextual;letter-spacing:-0.347521px;fill:#66d9ef;stroke-linecap:round;stroke-opacity:0.998262"
         aria-label="-4" />
      <path
         d="m 553.73676,159.95738 v -0.96563 h 3.39932 v 0.96563 z m 5.8427,-3.60343 q 0.58879,0 1.00095,0.19234 0.41608,0.18841 0.63197,0.50636 0.21982,0.31403 0.21982,0.69478 0,0.51814 -0.30617,0.84002 -0.30225,0.31795 -0.80469,0.46318 0.56132,0.0746 0.92245,0.38468 0.36113,0.30618 0.36113,0.96563 0,0.45926 -0.25515,0.83609 -0.25122,0.37683 -0.72226,0.6045 -0.47103,0.22374 -1.12656,0.22374 -0.60842,0 -1.09123,-0.21197 -0.48282,-0.21589 -0.82432,-0.6045 l 0.69871,-0.6516 q 0.23551,0.27085 0.52206,0.39646 0.29047,0.12168 0.61235,0.12168 0.40431,0 0.65945,-0.20411 0.25515,-0.20804 0.25515,-0.59665 0,-0.43178 -0.24337,-0.6202 -0.23945,-0.19234 -0.67908,-0.19234 h -0.49459 l 0.14131,-0.85571 h 0.35328 q 0.36113,0 0.58879,-0.17664 0.2316,-0.17664 0.2316,-0.53384 0,-0.30618 -0.21982,-0.48282 -0.21982,-0.17664 -0.56917,-0.17664 -0.3258,0 -0.59272,0.12561 -0.263,0.12561 -0.49459,0.34543 l -0.6359,-0.65945 q 0.37291,-0.36113 0.83609,-0.54562 0.46319,-0.18841 1.02451,-0.18841 z"
         id="text119"
         style="font-weight:bold;font-size:7.65435px;line-height:0.9;font-family:'Fira Code';-inkscape-font-specification:'Fira Code, Bold';font-variant-ligatures:no-contextual;letter-spacing:-0.347521px;fill:#66d9ef;stroke-linecap:round;stroke-opacity:0.998262"
         aria-label="-3" />
      <path
         d="m 577.15955,159.95738 v -0.96563 h 3.39932 v 0.96563 z m 5.8741,-3.60343 q 0.6202,0 1.03628,0.21589 0.42001,0.21589 0.62805,0.57309 0.21197,0.35328 0.21197,0.76936 0,0.32973 -0.11384,0.64768 -0.10991,0.31402 -0.36505,0.6673 -0.25515,0.34935 -0.67908,0.77721 -0.42001,0.42786 -1.04021,0.98133 h 2.32379 l -0.13346,0.946 h -3.61521 v -0.87927 q 0.67123,-0.64768 1.12264,-1.11479 0.45533,-0.46711 0.72618,-0.80469 0.27477,-0.3415 0.39253,-0.60449 0.11776,-0.263 0.11776,-0.50637 0,-0.32972 -0.19234,-0.52206 -0.18842,-0.19234 -0.53777,-0.19234 -0.3101,0 -0.53777,0.12953 -0.22766,0.12954 -0.43963,0.42001 l -0.76151,-0.5731 q 0.30617,-0.42393 0.75366,-0.67515 0.44748,-0.25514 1.10301,-0.25514 z"
         id="text120"
         style="font-weight:bold;font-size:7.65435px;line-height:0.9;font-family:'Fira Code';-inkscape-font-specification:'Fira Code, Bold';font-variant-ligatures:no-contextual;letter-spacing:-0.347521px;fill:#66d9ef;stroke-linecap:round;stroke-opacity:0.998262"
         aria-label="-2" />
      <path
         d="m 600.73554,159.95738 v -0.96563 h 3.39932 v 0.96563 z m 8.03302,1.03628 v 0.93815 h -3.5367 v -0.93815 h 1.31105 v -3.28156 l -1.11871,0.69871 -0.526,-0.85179 1.75462,-1.06769 h 1.09908 v 4.50233 z"
         id="text121"
         style="font-weight:bold;font-size:7.65435px;line-height:0.9;font-family:'Fira Code';-inkscape-font-specification:'Fira Code, Bold';font-variant-ligatures:no-contextual;letter-spacing:-0.347521px;fill:#66d9ef;stroke-linecap:round;stroke-opacity:0.998262"
         aria-label="-1" />
    </g>
    <path
       d="m 296.5986,265.51379 v -4.63369 h -2.66596 v 4.63369 h -2.60249 V 254.5167 h 2.60249 v 4.22111 h 2.66596 v -4.22111 h 2.60249 v 10.99709 z m 6.8035,-9.14044 v 2.64216 h 3.80852 v 1.82492 h -3.80852 v 2.80878 h 4.59402 v 1.86458 h -7.19651 V 254.5167 h 7.18858 l -0.26184,1.85665 z m 5.04206,-1.85665 h 2.80085 l 1.65829,3.53081 1.69796,-3.53081 h 2.74531 l -2.91986,5.04629 3.18963,5.9508 h -2.80085 l -1.94393,-4.1973 -1.91219,4.1973 h -2.76118 l 3.12616,-5.83972 z m 14.19837,-0.2777 q 1.18223,0 2.00741,0.31737 0.83311,0.30945 1.5234,0.88072 l -1.27744,1.53928 q -0.45226,-0.37292 -0.99973,-0.58715 -0.54748,-0.22216 -1.19016,-0.22216 -0.6903,0 -1.26158,0.39672 -0.57127,0.38879 -0.91245,1.23777 -0.34118,0.84104 -0.34118,2.18989 0,1.98361 0.71409,2.88813 0.72204,0.89659 1.84872,0.89659 0.82518,0 1.37266,-0.30944 0.54747,-0.30945 1.00767,-0.67443 l 1.18222,1.50754 q -0.61888,0.61095 -1.5234,1.04734 -0.90453,0.43639 -2.18197,0.43639 -1.49167,0 -2.65009,-0.65855 -1.15049,-0.66649 -1.80905,-1.95187 -0.65062,-1.29331 -0.65062,-3.1817 0,-1.84078 0.67443,-3.12615 0.68236,-1.28538 1.84871,-1.95187 1.16636,-0.67442 2.61836,-0.67442 z m 9.23143,11.27479 V 260.8801 H 329.208 v 4.63369 h -2.60249 V 254.5167 h 2.60249 v 4.22111 h 2.66596 v -4.22111 h 2.60248 v 10.99709 z m 9.07274,-2.37238 h -3.22137 l -0.57921,2.37238 h -2.72151 l 3.36419,-10.99709 h 3.1579 l 3.36419,10.99709 h -2.78498 z m -2.80878,-1.88839 h 2.38032 l -1.19016,-4.8638 z m 14.19043,-3.39593 q 0,1.18223 -0.64268,1.92013 -0.64269,0.72996 -1.56308,1.09494 l 2.88019,4.64163 h -2.94367 l -2.38032,-4.20523 h -0.7379 v 4.20523 H 344.3384 V 254.5167 h 3.45941 q 2.24543,0 3.38799,0.81725 1.14255,0.81724 1.14255,2.52314 z m -2.68183,0 q 0,-0.79344 -0.46813,-1.15049 -0.46019,-0.36498 -1.37265,-0.36498 h -0.86485 v 3.18169 h 0.968 q 0.84898,0 1.29331,-0.39672 0.44432,-0.39672 0.44432,-1.2695 z m 11.60382,4.44327 q 0,1.02354 -0.53954,1.80904 -0.5316,0.78551 -1.53134,1.22984 -0.99974,0.44432 -2.40413,0.44432 -1.55514,0 -2.61042,-0.45226 -1.04734,-0.46019 -1.73763,-1.13462 l 1.31711,-1.45993 q 0.61095,0.53161 1.34885,0.82518 0.7379,0.28564 1.61862,0.28564 0.81724,0 1.32504,-0.34912 0.50781,-0.35704 0.50781,-0.99973 0,-0.60302 -0.42846,-0.9442 -0.42052,-0.34118 -1.57101,-0.69029 -1.92807,-0.58715 -2.74531,-1.38059 -0.80931,-0.80137 -0.80931,-2.05501 0,-1.00767 0.55541,-1.72177 0.56334,-0.71409 1.50754,-1.08701 0.94419,-0.38085 2.07881,-0.38085 1.27744,0 2.25337,0.37291 0.97594,0.36499 1.69003,1.04735 l -1.22983,1.41232 q -0.55541,-0.46813 -1.1981,-0.69029 -0.64268,-0.2301 -1.30917,-0.2301 -0.74584,0 -1.1981,0.2777 -0.45226,0.26977 -0.45226,0.80138 0,0.34911 0.19836,0.58715 0.19836,0.23803 0.69029,0.45226 0.49194,0.20629 1.36472,0.484 1.03941,0.31737 1.77731,0.7617 0.74583,0.43639 1.13462,1.10288 0.39672,0.66649 0.39672,1.6821 z m 2.28088,5.1653 v -15.01191 h 4.8876 v 1.87253 h -2.52314 v 11.28273 h 2.52314 v 1.85665 z m 7.66835,-5.94287 v -1.95187 h 6.8712 v 1.95187 z m 15.66624,-7.00609 -0.2777,1.79318 h -4.02275 v 2.37239 q 0.40465,-0.19043 0.83311,-0.26977 0.42846,-0.0794 0.79344,-0.0794 0.84899,0 1.54721,0.42846 0.70617,0.42846 1.11876,1.22983 0.42052,0.80138 0.42052,1.9122 0,1.11081 -0.54748,1.99153 -0.53954,0.88072 -1.50753,1.38853 -0.968,0.49986 -2.26131,0.49986 -1.1981,0 -2.11849,-0.44432 -0.92039,-0.45226 -1.53134,-1.1981 l 1.44406,-1.31711 q 0.39672,0.5078 0.91246,0.77757 0.52367,0.26184 1.09495,0.26184 0.87278,0 1.39646,-0.53161 0.5316,-0.5316 0.5316,-1.38852 0,-1.01561 -0.41259,-1.44406 -0.40465,-0.4364 -1.07114,-0.4364 -0.30151,0 -0.64269,0.0793 -0.34118,0.0793 -0.70616,0.28564 h -1.69003 v -5.91114 z m 3.73288,4.11003 q 0,-0.45227 0.22217,-0.82518 0.23009,-0.38085 0.61095,-0.61095 0.38085,-0.2301 0.84104,-0.2301 0.69823,0 1.1743,0.49987 0.484,0.49193 0.484,1.16636 0,0.67442 -0.484,1.16635 -0.47607,0.49194 -1.1743,0.49194 -0.69822,0 -1.19016,-0.49194 -0.484,-0.49193 -0.484,-1.16635 z m 0,5.48267 q 0,-0.67442 0.484,-1.15842 0.49194,-0.484 1.19016,-0.484 0.69823,0 1.1743,0.484 0.484,0.484 0.484,1.15842 0,0.68236 -0.484,1.18223 -0.47607,0.49193 -1.1743,0.49193 -0.69822,0 -1.19016,-0.49193 -0.484,-0.49987 -0.484,-1.18223 z m 12.77811,-11.65565 v 15.01191 h -4.88759 v -1.87252 h 2.52314 v -11.26686 h -2.52314 v -1.87253 z m 16.39198,3.872 v 3.26104 h 3.19757 v 1.936 h -3.19757 v 3.26104 h -2.09468 v -3.26104 h -3.1817 v -1.936 h 3.1817 v -3.26104 z m 17.93125,9.18804 v -4.63369 h -2.66597 v 4.63369 h -2.60248 V 254.5167 h 2.60248 v 4.22111 h 2.66597 v -4.22111 h 2.60248 v 10.99709 z m 6.8035,-9.14044 v 2.64216 h 3.80852 v 1.82492 h -3.80852 v 2.80878 h 4.59403 v 1.86458 h -7.19651 V 254.5167 h 7.18857 l -0.26183,1.85665 z m 5.04206,-1.85665 h 2.80084 l 1.6583,3.53081 1.69796,-3.53081 h 2.74531 l -2.91987,5.04629 3.18964,5.9508 h -2.80085 l -1.94393,-4.1973 -1.91219,4.1973 h -2.76118 l 3.12616,-5.83972 z m 14.19838,-0.2777 q 1.18222,0 2.0074,0.31737 0.83311,0.30945 1.52341,0.88072 l -1.27744,1.53928 q -0.45226,-0.37292 -0.99974,-0.58715 -0.54747,-0.22216 -1.19016,-0.22216 -0.69029,0 -1.26157,0.39672 -0.57128,0.38879 -0.91246,1.23777 -0.34118,0.84104 -0.34118,2.18989 0,1.98361 0.7141,2.88813 0.72203,0.89659 1.84872,0.89659 0.82518,0 1.37265,-0.30944 0.54747,-0.30945 1.00767,-0.67443 l 1.18223,1.50754 q -0.61889,0.61095 -1.52341,1.04734 -0.90452,0.43639 -2.18196,0.43639 -1.49167,0 -2.6501,-0.65855 -1.15049,-0.66649 -1.80904,-1.95187 -0.65062,-1.29331 -0.65062,-3.1817 0,-1.84078 0.67442,-3.12615 0.68236,-1.28538 1.84872,-1.95187 1.16636,-0.67442 2.61836,-0.67442 z m 9.23142,11.27479 v -4.63369 h -2.66597 v 4.63369 h -2.60248 V 254.5167 h 2.60248 v 4.22111 h 2.66597 v -4.22111 h 2.60248 v 10.99709 z m 9.07275,-2.37238 h -3.22138 l -0.57921,2.37238 h -2.7215 l 3.36419,-10.99709 h 3.1579 l 3.36419,10.99709 h -2.78498 z m -2.80879,-1.88839 h 2.38033 l -1.19016,-4.8638 z m 14.19043,-3.39593 q 0,1.18223 -0.64268,1.92013 -0.64269,0.72996 -1.56308,1.09494 l 2.88019,4.64163 h -2.94367 l -2.38032,-4.20523 h -0.7379 v 4.20523 h -2.60249 V 254.5167 h 3.4594 q 2.24544,0 3.388,0.81725 1.14255,0.81724 1.14255,2.52314 z m -2.68183,0 q 0,-0.79344 -0.46813,-1.15049 -0.46019,-0.36498 -1.37265,-0.36498 h -0.86485 v 3.18169 h 0.968 q 0.84898,0 1.2933,-0.39672 0.44433,-0.39672 0.44433,-1.2695 z m 11.60383,4.44327 q 0,1.02354 -0.53954,1.80904 -0.53161,0.78551 -1.53134,1.22984 -0.99974,0.44432 -2.40413,0.44432 -1.55514,0 -2.61042,-0.45226 -1.04734,-0.46019 -1.73764,-1.13462 l 1.31712,-1.45993 q 0.61094,0.53161 1.34885,0.82518 0.7379,0.28564 1.61861,0.28564 0.81725,0 1.32505,-0.34912 0.5078,-0.35704 0.5078,-0.99973 0,-0.60302 -0.42845,-0.9442 -0.42053,-0.34118 -1.57102,-0.69029 -1.92806,-0.58715 -2.7453,-1.38059 -0.80931,-0.80137 -0.80931,-2.05501 0,-1.00767 0.55541,-1.72177 0.56334,-0.71409 1.50753,-1.08701 0.9442,-0.38085 2.07882,-0.38085 1.27744,0 2.25337,0.37291 0.97593,0.36499 1.69003,1.04735 l -1.22983,1.41232 q -0.55541,-0.46813 -1.1981,-0.69029 -0.64269,-0.2301 -1.30918,-0.2301 -0.74583,0 -1.19809,0.2777 -0.45226,0.26977 -0.45226,0.80138 0,0.34911 0.19836,0.58715 0.19836,0.23803 0.69029,0.45226 0.49193,0.20629 1.36472,0.484 1.03941,0.31737 1.77731,0.7617 0.74583,0.43639 1.13462,1.10288 0.39672,0.66649 0.39672,1.6821 z m 2.28088,5.1653 v -15.01191 h 4.88759 v 1.87253 h -2.52314 v 11.28273 h 2.52314 v 1.85665 z m 7.66834,-5.94287 v -1.95187 h 6.8712 v 1.95187 z m 13.05582,-7.28379 q 0.72997,0 1.32505,0.19042 0.60301,0.19043 1.06321,0.51574 l -0.95213,1.52341 q -0.31738,-0.2301 -0.68236,-0.33325 -0.35705,-0.11108 -0.70616,-0.11108 -0.89659,0 -1.50754,0.80137 -0.60302,0.80138 -0.69823,2.31685 0.49194,-0.51573 1.10288,-0.75377 0.61889,-0.24596 1.20604,-0.24596 0.85691,0 1.55514,0.42845 0.69823,0.42053 1.11082,1.23777 0.41259,0.80931 0.41259,1.97567 0,1.10288 -0.47607,2.01534 -0.47606,0.90452 -1.35678,1.44406 -0.87279,0.53954 -2.07088,0.53954 -1.09495,0 -1.87252,-0.41259 -0.77758,-0.42052 -1.26951,-1.14255 -0.49193,-0.72997 -0.72203,-1.67416 -0.2301,-0.95213 -0.2301,-2.01534 0,-1.85665 0.57128,-3.27691 0.57921,-1.42026 1.64242,-2.22164 1.07115,-0.80137 2.55488,-0.80137 z m -0.49987,5.63343 q -0.92832,0 -1.65829,0.84105 0.0238,1.65035 0.34912,2.4676 0.32531,0.80931 1.16635,0.80931 0.70617,0 1.03148,-0.60302 0.33324,-0.60301 0.33324,-1.45993 0,-1.12669 -0.32531,-1.58688 -0.31737,-0.46813 -0.89659,-0.46813 z m 6.84317,-1.2457 q 0,-0.45227 0.22216,-0.82518 0.2301,-0.38085 0.61095,-0.61095 0.38085,-0.2301 0.84105,-0.2301 0.69823,0 1.17429,0.49987 0.484,0.49193 0.484,1.16636 0,0.67442 -0.484,1.16635 -0.47606,0.49194 -1.17429,0.49194 -0.69823,0 -1.19016,-0.49194 -0.484,-0.49193 -0.484,-1.16635 z m 0,5.48267 q 0,-0.67442 0.484,-1.15842 0.49193,-0.484 1.19016,-0.484 0.69823,0 1.17429,0.484 0.484,0.484 0.484,1.15842 0,0.68236 -0.484,1.18223 -0.47606,0.49193 -1.17429,0.49193 -0.69823,0 -1.19016,-0.49193 -0.484,-0.49987 -0.484,-1.18223 z m 8.81885,-5.48267 q 0,-0.45227 0.22216,-0.82518 0.2301,-0.38085 0.61095,-0.61095 0.38085,-0.2301 0.84105,-0.2301 0.69822,0 1.17429,0.49987 0.484,0.49193 0.484,1.16636 0,0.67442 -0.484,1.16635 -0.47607,0.49194 -1.17429,0.49194 -0.69823,0 -1.19017,-0.49194 -0.48399,-0.49193 -0.48399,-1.16635 z m 0,5.48267 q 0,-0.67442 0.48399,-1.15842 0.49194,-0.484 1.19017,-0.484 0.69822,0 1.17429,0.484 0.484,0.484 0.484,1.15842 0,0.68236 -0.484,1.18223 -0.47607,0.49193 -1.17429,0.49193 -0.69823,0 -1.19017,-0.49193 -0.48399,-0.49987 -0.48399,-1.18223 z m 7.05739,-2.58661 v -1.95187 h 6.8712 v 1.95187 z m 11.81012,-7.28379 q 1.19016,0 2.02327,0.38878 0.84105,0.38085 1.27744,1.02354 0.44433,0.63475 0.44433,1.40439 0,1.04734 -0.61888,1.69797 -0.61095,0.64268 -1.62656,0.93626 1.13462,0.15075 1.86459,0.77757 0.72996,0.61888 0.72996,1.95186 0,0.92833 -0.51573,1.69003 -0.5078,0.76171 -1.45993,1.2219 -0.95213,0.45226 -2.27718,0.45226 -1.22983,0 -2.20577,-0.42845 -0.97593,-0.4364 -1.66622,-1.2219 l 1.41232,-1.31712 q 0.47607,0.54748 1.05528,0.80138 0.58715,0.24597 1.23777,0.24597 0.81724,0 1.33298,-0.41259 0.51574,-0.42053 0.51574,-1.20603 0,-0.87279 -0.49194,-1.25364 -0.484,-0.38879 -1.37265,-0.38879 h -0.99974 l 0.28564,-1.7297 h 0.7141 q 0.72997,0 1.19016,-0.35705 0.46813,-0.35704 0.46813,-1.07908 0,-0.61888 -0.44433,-0.97593 -0.44432,-0.35705 -1.15049,-0.35705 -0.65855,0 -1.19809,0.2539 -0.53161,0.25391 -0.99974,0.69823 l -1.28537,-1.33298 q 0.75377,-0.72996 1.69003,-1.10288 0.93626,-0.38085 2.07088,-0.38085 z m 11.54828,-1.78525 v 15.01191 h -4.88759 v -1.87252 h 2.52314 v -11.26686 h -2.52314 v -1.87253 z"
       id="text122"
       style="font-weight:bold;font-size:15.4721px;line-height:0.9;font-family:'Fira Code';-inkscape-font-specification:'Fira Code, Bold';font-variant-ligatures:no-contextual;letter-spacing:-0.70246px;fill:#f8f8f2;stroke-width:0.999999;stroke-linecap:round;stroke-opacity:0.998262"
       aria-label="HEXCHARS[-5:] + HEXCHARS[-6::-3]" />
    <g
       id="g130"
       class="fragment"
       data-fragment-index="3">
      <path
         id="path128"
         style="fill:none;fill-opacity:1;stroke:#ae81ff;stroke-width:1.4;stroke-linecap:round;stroke-linejoin:bevel;stroke-dasharray:none;stroke-opacity:0.998262"
         d="m 419.85415,201.66145 -0.62566,49.55168 m -75.16623,-34.40791 75.79189,-15.14377 80.934,15.29508"
         sodipodi:nodetypes="ccccc" />
      <path
         d="m 374.52687,190.70956 -0.30151,-4.43534 h 2.37239 l -0.29357,4.43534 z m 3.03094,0 -0.29357,-4.43534 h 2.38826 l -0.30151,4.43534 z m 12.50041,4.11796 q 0,0.95213 -0.36498,1.57895 -0.36499,0.62681 -0.99974,0.98386 -0.63475,0.35705 -1.452,0.50781 -0.80931,0.15075 -1.70589,0.15075 h -3.64983 V 187.0518 h 3.4832 q 1.13462,0 2.08675,0.2539 0.96007,0.2539 1.53928,0.87278 0.58714,0.61095 0.58714,1.6821 0,0.98386 -0.60301,1.57101 -0.60302,0.58715 -1.41233,0.79344 0.58715,0.0952 1.15843,0.37292 0.57921,0.26977 0.95213,0.80931 0.38085,0.53954 0.38085,1.42026 z m -3.09442,-4.70511 q 0,-0.65062 -0.41259,-0.93626 -0.40465,-0.29357 -1.26157,-0.29357 h -0.80138 v 2.54695 h 0.88072 q 0.84105,0 1.21397,-0.30945 0.38085,-0.30944 0.38085,-1.00767 z m 0.41259,4.60196 q 0,-0.87278 -0.49987,-1.20603 -0.49193,-0.33324 -1.31711,-0.33324 h -1.07115 v 2.96747 h 0.96007 q 0.5078,0 0.94419,-0.10315 0.44433,-0.11108 0.7141,-0.42053 0.26977,-0.30944 0.26977,-0.90452 z m 8.12061,-7.95028 q 1.18223,0 2.00741,0.31738 0.83311,0.30944 1.5234,0.88072 l -1.27744,1.53927 q -0.45226,-0.37291 -0.99973,-0.58714 -0.54748,-0.22217 -1.19017,-0.22217 -0.69029,0 -1.26157,0.39672 -0.57127,0.38879 -0.91245,1.23777 -0.34118,0.84105 -0.34118,2.1899 0,1.9836 0.71409,2.88812 0.72204,0.89659 1.84872,0.89659 0.82518,0 1.37265,-0.30944 0.54748,-0.30944 1.00767,-0.67442 l 1.18223,1.50753 q -0.61888,0.61095 -1.52341,1.04735 -0.90452,0.43639 -2.18196,0.43639 -1.49167,0 -2.65009,-0.65856 -1.15049,-0.66649 -1.80905,-1.95186 -0.65062,-1.29331 -0.65062,-3.1817 0,-1.84078 0.67443,-3.12616 0.68236,-1.28537 1.84871,-1.95186 1.16636,-0.67443 2.61836,-0.67443 z m 12.25444,5.72071 q 0,1.67416 -0.44433,2.76118 -0.43639,1.08701 -1.19016,1.69796 -0.75377,0.60302 -1.71383,0.84898 -0.95213,0.24597 -1.97567,0.24597 h -2.96747 V 187.0518 h 2.77704 q 1.05528,0 2.03915,0.22216 0.9918,0.21423 1.76937,0.80138 0.78551,0.57921 1.2457,1.65035 0.4602,1.06321 0.4602,2.76911 z m -2.6977,0 q 0,-1.48373 -0.32531,-2.24544 -0.31738,-0.7617 -0.87279,-1.03147 -0.54747,-0.2777 -1.23776,-0.2777 h -0.55541 v 7.22824 h 0.55541 q 0.72203,0 1.2695,-0.30944 0.54748,-0.31737 0.85692,-1.11875 0.30944,-0.80138 0.30944,-2.24544 z m 6.47819,-3.58635 v 2.64216 h 3.80851 v 1.82491 h -3.80851 v 2.80878 h 4.59402 v 1.86459 h -7.19651 V 187.0518 h 7.18858 l -0.26184,1.85665 z m 9.0648,0 v 2.91193 h 3.85613 v 1.86458 h -3.85613 v 4.36393 h -2.61042 V 187.0518 h 7.22825 l -0.26977,1.85665 z m 10.84212,6.76805 h -3.22137 l -0.57921,2.37239 h -2.72151 l 3.36419,-10.99709 h 3.1579 l 3.36419,10.99709 h -2.78498 z m -2.80878,-1.88839 h 2.38032 l -1.19016,-4.86379 z m 9.46946,4.51468 -2.38032,-0.7379 4.10209,-8.6247 h -4.83206 v -1.88839 h 7.37107 v 1.69796 z m 12.30998,-7.09336 v 2.65009 h 1.10288 v 1.88046 h -1.10288 v 2.30891 h -2.40413 l -0.0159,-2.30891 h -4.55435 v -1.66623 l 3.05475,-7.29966 2.13435,0.78551 -2.60248,6.29992 h 1.97566 l 0.29358,-2.65009 z m 9.88205,4.94314 v 1.89632 h -7.14891 v -1.89632 h 2.6501 v -6.63317 l -2.26131,1.41232 -1.06321,-1.72176 3.54668,-2.15816 h 2.22163 v 9.10077 z m 2.4237,-5.44301 -0.30151,-4.43534 h 2.37239 l -0.29357,4.43534 z m 3.03095,0 -0.29358,-4.43534 h 2.38826 l -0.30151,4.43534 z"
         id="text125"
         style="font-weight:bold;font-size:15.4721px;line-height:0.9;font-family:'Fira Code';-inkscape-font-specification:'Fira Code, Bold';font-variant-ligatures:no-contextual;letter-spacing:-0.70246px;fill:#f92672;stroke-width:0.999999;stroke-linecap:round;stroke-opacity:0.998262"
         aria-label="&quot;BCDEFA741&quot;" />
    </g>
    <g
       id="g128"
       class="fragment"
       data-fragment-index="1">
      <path
         d="m 317.29368,224.65393 -0.3015,-4.43534 h 2.37239 l -0.29358,4.43534 z m 3.03095,0 -0.29357,-4.43534 h 2.38825 l -0.3015,4.43534 z m 12.5004,4.11795 q 0,0.95213 -0.36498,1.57895 -0.36498,0.62682 -0.99973,0.98387 -0.63476,0.35705 -1.452,0.5078 -0.80931,0.15076 -1.7059,0.15076 h -3.64983 v -10.9971 h 3.48321 q 1.13462,0 2.08675,0.2539 0.96006,0.25391 1.53927,0.87279 0.58715,0.61095 0.58715,1.68209 0,0.98387 -0.60302,1.57102 -0.60301,0.58714 -1.41232,0.79344 0.58715,0.0952 1.15842,0.37292 0.57922,0.26977 0.95213,0.80931 0.38085,0.53954 0.38085,1.42025 z m -3.09442,-4.7051 q 0,-0.65062 -0.41258,-0.93626 -0.40466,-0.29357 -1.26158,-0.29357 h -0.80137 v 2.54694 h 0.88072 q 0.84105,0 1.21396,-0.30944 0.38085,-0.30944 0.38085,-1.00767 z m 0.41259,4.60196 q 0,-0.87279 -0.49986,-1.20603 -0.49194,-0.33325 -1.31712,-0.33325 h -1.07114 v 2.96747 h 0.96006 q 0.5078,0 0.9442,-0.10315 0.44432,-0.11108 0.71409,-0.42052 0.26977,-0.30944 0.26977,-0.90452 z m 8.12061,-7.95028 q 1.18223,0 2.00741,0.31737 0.83311,0.30945 1.52341,0.88072 l -1.27744,1.53928 q -0.45226,-0.37292 -0.99974,-0.58715 -0.54747,-0.22216 -1.19016,-0.22216 -0.69029,0 -1.26157,0.39672 -0.57128,0.38879 -0.91246,1.23777 -0.34118,0.84105 -0.34118,2.1899 0,1.9836 0.7141,2.88812 0.72203,0.89659 1.84872,0.89659 0.82518,0 1.37265,-0.30944 0.54747,-0.30944 1.00767,-0.67443 l 1.18223,1.50754 q -0.61889,0.61095 -1.52341,1.04734 -0.90452,0.4364 -2.18196,0.4364 -1.49167,0 -2.6501,-0.65856 -1.15049,-0.66649 -1.80904,-1.95187 -0.65062,-1.2933 -0.65062,-3.18169 0,-1.84079 0.67442,-3.12616 0.68236,-1.28538 1.84872,-1.95187 1.16636,-0.67442 2.61835,-0.67442 z m 12.25444,5.72071 q 0,1.67416 -0.44432,2.76117 -0.43639,1.08702 -1.19016,1.69797 -0.75377,0.60301 -1.71384,0.84898 -0.95213,0.24597 -1.97566,0.24597 h -2.96747 v -10.9971 h 2.77704 q 1.05528,0 2.03914,0.22217 0.9918,0.21423 1.76938,0.80137 0.7855,0.57921 1.2457,1.65036 0.46019,1.06321 0.46019,2.76911 z m -2.69769,0 q 0,-1.48374 -0.32532,-2.24544 -0.31737,-0.7617 -0.87278,-1.03147 -0.54748,-0.27771 -1.23777,-0.27771 h -0.55541 v 7.22825 h 0.55541 q 0.72203,0 1.26951,-0.30944 0.54747,-0.31738 0.85691,-1.11875 0.30945,-0.80138 0.30945,-2.24544 z m 6.47818,-3.58636 v 2.64216 h 3.80852 v 1.82492 h -3.80852 v 2.80878 h 4.59403 v 1.86459 h -7.19651 v -10.9971 h 7.18857 l -0.26183,1.85665 z m 9.06481,0 v 2.91193 h 3.85612 v 1.86459 h -3.85612 v 4.36393 h -2.61042 v -10.9971 h 7.22825 l -0.26977,1.85665 z m 6.84317,1.80112 -0.30151,-4.43534 h 2.37239 l -0.29357,4.43534 z m 3.03095,0 -0.29358,-4.43534 h 2.38826 l -0.30151,4.43534 z"
         id="text123"
         style="font-weight:bold;font-size:15.4721px;line-height:0.9;font-family:'Fira Code';-inkscape-font-specification:'Fira Code, Bold';font-variant-ligatures:no-contextual;letter-spacing:-0.70246px;fill:#a6e22e;stroke-width:0.999999;stroke-linecap:round;stroke-opacity:0.998262"
         aria-label="&quot;BCDEF&quot;" />
      <path
         style="fill:none;fill-opacity:1;stroke:#ae81ff;stroke-width:1.4;stroke-linecap:round;stroke-linejoin:bevel;stroke-dasharray:none;stroke-opacity:0.998262"
         d="m 344.76226,236.63179 v 13.88134"
         id="path125" />
    </g>
    <g
       id="g129"
       class="fragment"
       data-fragment-index="2">
      <path
         d="m 476.32899,224.65393 -0.3015,-4.43534 h 2.37238 l -0.29357,4.43534 z m 3.03095,0 -0.29358,-4.43534 h 2.38826 l -0.30151,4.43534 z m 9.78684,4.96694 h -3.22138 l -0.57921,2.37239 h -2.7215 l 3.36419,-10.9971 h 3.1579 l 3.36419,10.9971 h -2.78498 z m -2.80879,-1.88839 h 2.38033 l -1.19016,-4.8638 z m 9.46946,4.51468 -2.38032,-0.7379 4.10209,-8.62471 h -4.83205 v -1.88839 h 7.37106 v 1.69797 z m 12.30999,-7.09337 v 2.6501 h 1.10288 v 1.88045 h -1.10288 v 2.30892 h -2.40413 l -0.0159,-2.30892 h -4.55435 v -1.66622 l 3.05475,-7.29966 2.13435,0.78551 -2.60248,6.29992 h 1.97566 l 0.29358,-2.6501 z m 9.88204,4.94314 v 1.89633 h -7.1489 v -1.89633 h 2.65009 v -6.63317 l -2.2613,1.41233 -1.06321,-1.72177 3.54668,-2.15816 h 2.22163 v 9.10077 z m 2.42371,-5.443 -0.30151,-4.43534 h 2.37239 l -0.29357,4.43534 z m 3.03094,0 -0.29357,-4.43534 h 2.38826 l -0.30151,4.43534 z"
         id="text124"
         style="font-weight:bold;font-size:15.4721px;line-height:0.9;font-family:'Fira Code';-inkscape-font-specification:'Fira Code, Bold';font-variant-ligatures:no-contextual;letter-spacing:-0.70246px;fill:#a6e22e;stroke-width:0.999999;stroke-linecap:round;stroke-opacity:0.998262"
         aria-label="&quot;A741&quot;" />
      <path
         style="fill:none;fill-opacity:1;stroke:#ae81ff;stroke-width:1.4;stroke-linecap:round;stroke-linejoin:bevel;stroke-dasharray:none;stroke-opacity:0.998262"
         d="m 500.78815,236.63179 v 13.88134"
         id="path126" />
    </g>
    <g
       id="g131"
       class="fragment fade-in-then-out"
       data-fragment-index="1">
      <rect
         style="fill:none;fill-opacity:1;stroke:#fd971f;stroke-width:3;stroke-linecap:round;stroke-linejoin:bevel;stroke-dasharray:none;stroke-opacity:0.998262"
         id="rect130"
         width="116.36514"
         height="23.273031"
         x="499.38815"
         y="119.03864"
         ry="1.1110742" />
      <g
         id="path130">
        <path
           style="color:#000000;fill:#fd971f;stroke-linecap:round;stroke-linejoin:bevel;-inkscape-stroke:none"
           d="m 525.54881,103.27315 55.29493,0.028"
           id="path147" />
        <path
           style="color:#000000;fill:#fd971f;fill-opacity:0.998262;stroke-linecap:round;stroke-linejoin:bevel;-inkscape-stroke:none"
           d="m 525.54883,101.77344 a 1.5,1.5 0 0 0 -1.5,1.49804 1.5,1.5 0 0 0 1.5,1.50196 l 55.29492,0.0273 a 1.5,1.5 0 0 0 1.5,-1.49805 1.5,1.5 0 0 0 -1.5,-1.50195 z"
           id="path148" />
        <g
           id="g144">
          <g
             id="path144">
            <path
               style="color:#000000;fill:#fd971f;fill-rule:evenodd;-inkscape-stroke:none"
               d="m 589.49874,103.30553 -12.9788,7.49343 0.008,-14.999997 z"
               id="path145" />
            <path
               style="color:#000000;fill:#fd971f;fill-rule:evenodd;-inkscape-stroke:none"
               d="m 575.5293,94.064453 -0.01,18.466797 15.97656,-9.22461 L 590,102.43945 Z m 1.99804,3.466797 9.97266,5.77344 -9.98047,5.76172 z"
               id="path146" />
          </g>
        </g>
      </g>
    </g>
    <g
       id="g136"
       class="fragment fade-in-then-out"
       data-fragment-index="2">
      <rect
         style="fill:none;fill-opacity:1;stroke:#fd971f;stroke-width:3;stroke-linecap:round;stroke-linejoin:bevel;stroke-dasharray:none;stroke-opacity:0.998262"
         id="rect131"
         width="23.273029"
         height="23.273031"
         x="476.11511"
         y="119.03864"
         ry="1.1110742" />
      <rect
         style="fill:none;fill-opacity:1;stroke:#fd971f;stroke-width:3;stroke-linecap:round;stroke-linejoin:bevel;stroke-dasharray:none;stroke-opacity:0.998262"
         id="rect132"
         width="23.273029"
         height="23.273031"
         x="406.29602"
         y="119.03864"
         ry="1.1110742" />
      <rect
         style="fill:none;fill-opacity:1;stroke:#fd971f;stroke-width:3;stroke-linecap:round;stroke-linejoin:bevel;stroke-dasharray:none;stroke-opacity:0.998262"
         id="rect133"
         width="23.273026"
         height="23.273031"
         x="336.47693"
         y="119.03864"
         ry="1.1110742" />
      <rect
         style="fill:none;fill-opacity:1;stroke:#fd971f;stroke-width:3;stroke-linecap:round;stroke-linejoin:bevel;stroke-dasharray:none;stroke-opacity:0.998262"
         id="rect134"
         width="23.273026"
         height="23.273031"
         x="266.65787"
         y="119.03864"
         ry="1.1110742" />
      <g
         id="path134">
        <path
           style="color:#000000;fill:#fd971f;fill-opacity:0.998262;stroke-linecap:round;stroke-linejoin:bevel;-inkscape-stroke:none"
           d="m 280.26367,102.50195 a 1.5,1.5 0 0 0 -1.50195,1.5 1.5,1.5 0 0 0 1.5,1.5 l 195.62305,0.18164 a 1.5,1.5 0 0 0 1.50195,-1.49804 1.5,1.5 0 0 0 -1.5,-1.50196 z"
           id="path143" />
        <g
           id="g140">
          <g
             id="path140">
            <path
               style="color:#000000;fill:#fd971f;fill-rule:evenodd;-inkscape-stroke:none"
               d="m 271.60761,103.99483 12.98194,-7.48799 -0.0139,14.99999 z"
               id="path141" />
            <path
               style="color:#000000;fill:#fd971f;fill-rule:evenodd;-inkscape-stroke:none"
               d="m 285.5918,94.775391 -15.98243,9.216799 1.4961,0.86719 14.46875,8.38085 z m -2.00391,3.46289 -0.01,11.535159 -9.9707,-5.77735 z"
               id="path142" />
          </g>
        </g>
      </g>
    </g>
  </g>
</svg>
