<?xml version="1.0" encoding="UTF-8" standalone="no"?>
<!-- Created with Inkscape (http://www.inkscape.org/) -->

<svg
   width="210.92963mm"
   height="126.55191mm"
   viewBox="0 0 210.92963 126.55191"
   version="1.1"
   id="svg1"
   inkscape:version="1.3 (0e150ed6c4, 2023-07-21)"
   sodipodi:docname="exam2_p1b.svg"
   xmlns:inkscape="http://www.inkscape.org/namespaces/inkscape"
   xmlns:sodipodi="http://sodipodi.sourceforge.net/DTD/sodipodi-0.dtd"
   xmlns="http://www.w3.org/2000/svg"
   xmlns:svg="http://www.w3.org/2000/svg">
  <sodipodi:namedview
     id="namedview1"
     pagecolor="#555555"
     bordercolor="#000000"
     borderopacity="0.25"
     inkscape:showpageshadow="2"
     inkscape:pageopacity="0.0"
     inkscape:pagecheckerboard="0"
     inkscape:deskcolor="#d1d1d1"
     inkscape:document-units="mm"
     inkscape:zoom="1.4929298"
     inkscape:cx="485.28738"
     inkscape:cy="237.45255"
     inkscape:window-width="2560"
     inkscape:window-height="1413"
     inkscape:window-x="1080"
     inkscape:window-y="27"
     inkscape:window-maximized="1"
     inkscape:current-layer="layer1" />
  <defs
     id="defs1" />
  <g
     inkscape:label="Layer 1"
     inkscape:groupmode="layer"
     id="layer1"
     transform="translate(-246.93235,-142.61425)">
    <text
       xml:space="preserve"
       style="font-style:normal;font-variant:normal;font-weight:bold;font-stretch:normal;font-size:15.4721px;line-height:0.9;font-family:'Fira Code';-inkscape-font-specification:'Fira Code, Bold';font-variant-ligatures:no-contextual;font-variant-caps:normal;font-variant-numeric:normal;font-variant-east-asian:normal;letter-spacing:-0.70246px;fill:#272822;fill-opacity:1;stroke-width:0.999999;stroke-linecap:round;stroke-opacity:0.998262"
       x="209.05731"
       y="127.01831"
       id="text2"><tspan
         sodipodi:role="line"
         id="tspan2"
         style="font-style:normal;font-variant:normal;font-weight:bold;font-stretch:normal;font-size:15.4721px;font-family:'Fira Code';-inkscape-font-specification:'Fira Code, Bold';font-variant-ligatures:no-contextual;font-variant-caps:normal;font-variant-numeric:normal;font-variant-east-asian:normal;fill:#272822;fill-opacity:1;stroke-width:0.999999"
         x="209.05731"
         y="127.01831">1</tspan></text>
    <path
       d="m 250.04264,268.944 -2.38032,-0.73791 4.10209,-8.6247 h -4.83206 V 257.693 h 7.37107 v 1.69797 z m 20.77177,-9.97356 1.09495,1.7297 -5.14943,3.00714 5.14943,2.9516 -1.13462,1.78525 -6.18091,-3.84026 v -1.77731 z m 15.01139,-1.55514 q 1.34885,0 2.24544,0.55541 0.89659,0.5554 1.34885,1.54721 0.45226,0.98386 0.45226,2.28511 0,2.11055 -0.7141,3.57841 -0.7141,1.45994 -2.19783,2.38826 -1.48374,0.92039 -3.79265,1.39646 l -0.51574,-1.76144 q 1.94394,-0.49193 3.04682,-1.30124 1.10288,-0.80931 1.4758,-2.11056 -0.484,0.42846 -1.02354,0.66649 -0.53161,0.2301 -1.2219,0.2301 -0.86485,0 -1.57101,-0.43639 -0.70617,-0.43639 -1.12669,-1.22983 -0.41259,-0.79345 -0.41259,-1.85666 0,-1.19016 0.52367,-2.07881 0.53161,-0.88866 1.43613,-1.38059 0.91246,-0.49193 2.04708,-0.49193 z m -1.48374,3.87992 q 0,1.01561 0.39672,1.4282 0.40466,0.41259 0.968,0.41259 0.45226,0 0.83312,-0.15869 0.38085,-0.16662 0.74583,-0.484 0.0159,-1.66623 -0.26184,-2.47554 -0.26977,-0.81724 -1.21396,-0.81724 -0.67442,0 -1.07115,0.5078 -0.39672,0.5078 -0.39672,1.58688 z m 15.74929,3.40387 v -1.95187 h 6.8712 v 1.95187 z m 24.48508,-7.00609 -0.27771,1.79318 h -4.02274 v 2.37239 q 0.40465,-0.19043 0.83311,-0.26977 0.42846,-0.0793 0.79344,-0.0793 0.84898,0 1.54721,0.42846 0.70616,0.42846 1.11875,1.22983 0.42053,0.80138 0.42053,1.9122 0,1.11081 -0.54748,1.99153 -0.53954,0.88072 -1.50754,1.38853 -0.96799,0.49986 -2.2613,0.49986 -1.1981,0 -2.11849,-0.44432 -0.92039,-0.45226 -1.53134,-1.1981 l 1.44406,-1.31711 q 0.39672,0.5078 0.91246,0.77757 0.52367,0.26184 1.09495,0.26184 0.87278,0 1.39645,-0.53161 0.53161,-0.5316 0.53161,-1.38852 0,-1.01561 -0.41259,-1.44406 -0.40466,-0.4364 -1.07115,-0.4364 -0.3015,0 -0.64268,0.0793 -0.34118,0.0793 -0.70617,0.28564 h -1.69003 V 257.693 Z m 17.66941,8.56916 q 0,0.47607 0.12696,0.6903 0.13488,0.21423 0.42845,0.32531 l -0.51573,1.65036 q -0.74584,-0.0714 -1.26157,-0.32531 -0.50781,-0.26184 -0.80138,-0.78551 -0.484,0.57921 -1.23777,0.86485 -0.75377,0.2777 -1.53927,0.2777 -1.30125,0 -2.07882,-0.7379 -0.76964,-0.74583 -0.76964,-1.91219 0,-1.37265 1.07115,-2.11849 1.07908,-0.74583 3.03094,-0.74583 h 1.13462 v -0.31738 q 0,-1.29331 -1.66622,-1.29331 -0.40466,0 -1.03941,0.11902 -0.63475,0.11108 -1.26951,0.32531 l -0.57921,-1.66623 q 0.81725,-0.30944 1.69797,-0.46813 0.88865,-0.15868 1.58688,-0.15868 1.88045,0 2.77704,0.76963 0.90452,0.76171 0.90452,2.20577 z m -3.93546,0.90453 q 0.40465,0 0.84898,-0.23804 0.44433,-0.24596 0.67442,-0.69029 v -1.36472 h -0.61888 q -1.04734,0 -1.53928,0.32531 -0.49193,0.31738 -0.49193,0.93626 0,0.484 0.29357,0.76171 0.30151,0.26977 0.83312,0.26977 z m 5.66094,1.5234 v -8.42634 h 2.1899 l 0.17456,0.97593 q 0.56334,-0.63475 1.19016,-0.94419 0.62682,-0.30944 1.42819,-0.30944 1.07908,0 1.69797,0.65855 0.61888,0.65856 0.61888,1.85665 v 6.18884 h -2.50727 v -5.4668 q 0,-0.77758 -0.17456,-1.07908 -0.16662,-0.30945 -0.63475,-0.30945 -0.39672,0 -0.76171,0.2539 -0.35705,0.25391 -0.71409,0.70617 v 5.89526 z m 13.61123,-12.0365 2.50727,0.26184 v 11.77466 h -2.22164 l -0.12695,-0.92832 q -0.34911,0.49193 -0.92832,0.84898 -0.57921,0.34911 -1.40439,0.34911 -1.04735,0 -1.73764,-0.56334 -0.68236,-0.56334 -1.02354,-1.57101 -0.33324,-1.01561 -0.33324,-2.37239 0,-1.30124 0.40465,-2.30891 0.40466,-1.00767 1.15843,-1.57895 0.75376,-0.57921 1.79317,-0.57921 1.13462,0 1.9122,0.77757 z m -1.23777,5.1653 q -0.65062,0 -1.04734,0.61889 -0.39673,0.61095 -0.39673,2.03121 0,1.03941 0.16663,1.61862 0.16662,0.57127 0.46019,0.80137 0.29358,0.2301 0.67443,0.2301 0.42052,0 0.7617,-0.26183 0.34912,-0.26184 0.61889,-0.7141 v -3.63396 q -0.26184,-0.32531 -0.55541,-0.5078 -0.29358,-0.1825 -0.68236,-0.1825 z m 17.28856,-4.40359 q 1.19017,0 2.02328,0.38878 0.84105,0.38085 1.27744,1.02354 0.44433,0.63475 0.44433,1.40439 0,1.04734 -0.61889,1.69797 -0.61095,0.64268 -1.62655,0.93626 1.13462,0.15075 1.86458,0.77757 0.72997,0.61888 0.72997,1.95186 0,0.92833 -0.51574,1.69003 -0.5078,0.76171 -1.45993,1.2219 -0.95213,0.45226 -2.27717,0.45226 -1.22984,0 -2.20577,-0.42845 -0.97593,-0.4364 -1.66623,-1.2219 l 1.41233,-1.31712 q 0.47606,0.54748 1.05527,0.80138 0.58715,0.24597 1.23777,0.24597 0.81725,0 1.33298,-0.41259 0.51574,-0.42053 0.51574,-1.20603 0,-0.87279 -0.49193,-1.25364 -0.484,-0.38879 -1.37266,-0.38879 h -0.99973 l 0.28564,-1.7297 h 0.71409 q 0.72997,0 1.19017,-0.35705 0.46813,-0.35704 0.46813,-1.07908 0,-0.61888 -0.44433,-0.97593 -0.44433,-0.35705 -1.15049,-0.35705 -0.65856,0 -1.1981,0.2539 -0.5316,0.25391 -0.99973,0.69823 l -1.28538,-1.33298 q 0.75377,-0.72996 1.69003,-1.10288 0.93626,-0.38085 2.07088,-0.38085 z m 20.06561,-0.0873 1.34091,0.55541 -5.4192,11.26686 -1.32505,-0.55541 z m -4.41947,0.0873 q 1.06321,0 1.65829,0.68236 0.59508,0.67442 0.59508,1.80904 0,1.12669 -0.59508,1.80111 -0.59508,0.67443 -1.65829,0.67443 -1.07115,0 -1.67416,-0.67443 -0.59508,-0.67442 -0.59508,-1.80111 0,-1.08701 0.59508,-1.78524 0.60301,-0.70616 1.67416,-0.70616 z m 0,1.22983 q -0.38879,0 -0.51574,0.34118 -0.11901,0.33325 -0.11901,0.92039 0,0.56334 0.13488,0.90452 0.13489,0.34118 0.49987,0.34118 0.39672,0 0.51574,-0.32531 0.11901,-0.33324 0.11901,-0.92039 0,-0.63475 -0.11901,-0.94419 -0.11902,-0.31738 -0.51574,-0.31738 z m 4.87173,5.17324 q 1.06321,0 1.65829,0.68236 0.59508,0.67442 0.59508,1.80904 0,1.12669 -0.59508,1.80111 -0.59508,0.67443 -1.65829,0.67443 -1.07115,0 -1.67416,-0.67443 -0.59508,-0.67442 -0.59508,-1.80111 0,-1.08701 0.59508,-1.78524 0.60301,-0.70616 1.67416,-0.70616 z m 0,1.22983 q -0.38879,0 -0.51574,0.34118 -0.11902,0.33324 -0.11902,0.92039 0,0.56334 0.13489,0.90452 0.13488,0.34118 0.49987,0.34118 0.39672,0 0.51573,-0.32531 0.11902,-0.33324 0.11902,-0.92039 0,-0.63475 -0.11902,-0.94419 -0.11901,-0.31738 -0.51573,-0.31738 z m 15.20181,-7.6329 q 1.96774,0 2.96747,1.5234 1.00767,1.51548 1.00767,4.22904 0,2.72151 -1.00767,4.26078 -0.99973,1.53134 -2.96747,1.53134 -1.9836,0 -2.98334,-1.53134 -0.9918,-1.53927 -0.9918,-4.26078 0,-2.71356 0.9918,-4.22904 0.99974,-1.5234 2.98334,-1.5234 z m 0,1.81698 q -0.84104,0 -1.22983,0.90452 -0.38879,0.89659 -0.38879,3.03094 0,0.69823 0.0238,1.24571 0.0238,0.53954 0.0714,0.96006 l 2.68183,-5.60963 q -0.19043,-0.30151 -0.47607,-0.41259 -0.2777,-0.11901 -0.68236,-0.11901 z m 1.60275,3.93546 q 0,-0.91245 -0.0397,-1.53927 l -2.53108,5.22878 q 0.17456,0.16662 0.41259,0.23009 0.24597,0.0635 0.55541,0.0635 0.56335,0 0.91246,-0.38085 0.35705,-0.38086 0.52367,-1.25364 0.16662,-0.88072 0.16662,-2.34859 z m 19.63716,-2.06294 v 1.9598 h -7.20445 v -1.9598 z m 0,3.34038 v 1.94393 h -7.20445 v -1.94393 z m 8.81884,-3.34038 v 1.9598 h -7.20444 v -1.9598 z m 0,3.34038 v 1.94393 h -7.20444 v -1.94393 z m 13.59113,-7.02988 q 1.19017,0 2.02328,0.38878 0.84105,0.38085 1.27744,1.02354 0.44433,0.63475 0.44433,1.40439 0,1.04734 -0.61889,1.69797 -0.61095,0.64268 -1.62655,0.93626 1.13462,0.15075 1.86458,0.77757 0.72997,0.61888 0.72997,1.95186 0,0.92833 -0.51574,1.69003 -0.5078,0.76171 -1.45993,1.2219 -0.95213,0.45226 -2.27717,0.45226 -1.22984,0 -2.20577,-0.42845 -0.97593,-0.4364 -1.66623,-1.2219 l 1.41233,-1.31712 q 0.47606,0.54748 1.05527,0.80138 0.58715,0.24597 1.23777,0.24597 0.81725,0 1.33298,-0.41259 0.51574,-0.42053 0.51574,-1.20603 0,-0.87279 -0.49193,-1.25364 -0.484,-0.38879 -1.37266,-0.38879 h -0.99973 l 0.28564,-1.7297 h 0.71409 q 0.72997,0 1.19017,-0.35705 0.46813,-0.35704 0.46813,-1.07908 0,-0.61888 -0.44433,-0.97593 -0.44433,-0.35705 -1.15049,-0.35705 -0.65856,0 -1.1981,0.2539 -0.5316,0.25391 -0.99973,0.69823 l -1.28538,-1.33298 q 0.75377,-0.72996 1.69003,-1.10288 0.93626,-0.38085 2.07088,-0.38085 z"
       id="text1"
       style="font-weight:bold;font-size:15.4721px;line-height:0.9;font-family:'Fira Code';-inkscape-font-specification:'Fira Code, Bold';font-variant-ligatures:no-contextual;letter-spacing:-0.70246px;fill:#f8f8f2;stroke-width:0.999999;stroke-linecap:round;stroke-opacity:0.998262"
       aria-label="7 &lt; 9 - 5 and 3 % 0 == 3" />
    <g
       id="g31"
       class="fragment">
      <path
         d="m 306.28134,230.8999 v 2.6501 h 1.10288 v 1.88045 h -1.10288 v 2.30891 h -2.40413 l -0.0159,-2.30891 h -4.55435 v -1.66622 l 3.05475,-7.29966 2.13436,0.7855 -2.60249,6.29993 h 1.97567 l 0.29357,-2.6501 z"
         id="text22"
         style="font-weight:bold;font-size:15.4721px;line-height:0.9;font-family:'Fira Code';-inkscape-font-specification:'Fira Code, Bold';font-variant-ligatures:no-contextual;letter-spacing:-0.70246px;fill:#66d9ef;stroke-width:0.999999;stroke-linecap:round;stroke-opacity:0.998262"
         aria-label="4" />
      <path
         id="path27"
         style="fill:none;fill-opacity:1;stroke:#ae81ff;stroke-width:1.5;stroke-linecap:round;stroke-linejoin:bevel;stroke-dasharray:none;stroke-opacity:0.998262"
         d="m 303.34561,240.58817 0.16425,17.47014 m -17.11131,-3.30884 16.94706,-14.1613 17.27556,14.44522" />
    </g>
    <g
       id="g32"
       class="fragment">
      <path
         d="m 259.56456,194.10285 v 2.91192 h 3.85613 v 1.86459 h -3.85613 v 4.36393 h -2.61042 v -10.9971 h 7.22825 l -0.26977,1.85666 z m 12.69877,6.71251 q 0,0.47606 0.12695,0.69029 0.13489,0.21423 0.42846,0.32531 l -0.51574,1.65036 q -0.74583,-0.0714 -1.26157,-0.32531 -0.5078,-0.26184 -0.80137,-0.78551 -0.484,0.57921 -1.23777,0.86485 -0.75377,0.27771 -1.53928,0.27771 -1.30124,0 -2.07881,-0.7379 -0.76964,-0.74584 -0.76964,-1.9122 0,-1.37265 1.07114,-2.11848 1.07908,-0.74584 3.03095,-0.74584 h 1.13462 v -0.31738 q 0,-1.2933 -1.66623,-1.2933 -0.40465,0 -1.0394,0.11901 -0.63476,0.11108 -1.26951,0.32531 l -0.57921,-1.66622 q 0.81724,-0.30945 1.69796,-0.46813 0.88866,-0.15869 1.58688,-0.15869 1.88046,0 2.77705,0.76964 0.90452,0.7617 0.90452,2.20576 z m -3.93547,0.90452 q 0.40466,0 0.84898,-0.23803 0.44433,-0.24597 0.67443,-0.6903 v -1.36472 h -0.61888 q -1.04735,0 -1.53928,0.32532 -0.49193,0.31737 -0.49193,0.93626 0,0.484 0.29357,0.7617 0.30151,0.26977 0.83311,0.26977 z m 10.05661,-10.25126 v 9.12457 q 0,0.50781 0.28564,0.72997 0.29357,0.21423 0.80137,0.21423 0.32531,0 0.62682,-0.0714 0.30151,-0.0794 0.56335,-0.18249 l 0.60301,1.67416 q -0.42846,0.22216 -1.03147,0.38878 -0.60302,0.16663 -1.40439,0.16663 -1.52341,0 -2.23751,-0.87279 -0.71409,-0.88072 -0.71409,-2.35652 v -7.1013 h -2.48347 v -1.71383 z m 7.80324,10.25126 q 0.62681,0 1.00767,-0.19836 0.38878,-0.19836 0.38878,-0.59508 0,-0.26977 -0.15075,-0.45226 -0.15076,-0.18249 -0.57921,-0.34912 -0.42846,-0.16662 -1.26951,-0.39672 -1.15842,-0.30944 -1.88839,-0.88865 -0.72203,-0.57921 -0.72203,-1.69797 0,-1.12668 0.93626,-1.86458 0.94419,-0.7379 2.7215,-0.7379 1.12669,0 1.9598,0.29357 0.84105,0.28564 1.452,0.72997 l -0.99974,1.4758 q -0.52367,-0.32531 -1.12668,-0.51574 -0.60302,-0.19836 -1.21397,-0.19836 -1.20603,0 -1.20603,0.65062 0,0.21423 0.15076,0.37292 0.15868,0.15075 0.58714,0.31738 0.42846,0.15868 1.25364,0.39672 0.81724,0.23009 1.42026,0.5316 0.61095,0.30151 0.94419,0.80931 0.33325,0.49987 0.33325,1.32505 0,0.92039 -0.54748,1.54721 -0.54747,0.61888 -1.45199,0.92832 -0.90453,0.30945 -1.98361,0.30945 -1.2219,0 -2.15816,-0.34912 -0.93626,-0.34911 -1.59481,-0.92039 l 1.26157,-1.41232 q 0.49193,0.38085 1.11082,0.63475 0.62681,0.2539 1.36472,0.2539 z m 7.6128,-1.9598 q 0.12695,1.03147 0.67443,1.48373 0.54747,0.44433 1.34885,0.44433 0.57921,0 1.11875,-0.19042 0.53954,-0.19043 1.03941,-0.50781 l 1.00767,1.36472 q -0.59508,0.5078 -1.44407,0.83312 -0.84104,0.32531 -1.92012,0.32531 -1.44407,0 -2.42,-0.57128 -0.97593,-0.57921 -1.46786,-1.58688 -0.49194,-1.00767 -0.49194,-2.31685 0,-1.2457 0.47607,-2.26131 0.47606,-1.02354 1.38852,-1.62655 0.92039,-0.61095 2.24544,-0.61095 1.20603,0 2.08675,0.51573 0.88865,0.51574 1.37265,1.48374 0.49193,0.968 0.49193,2.32478 0,0.21423 -0.0159,0.4602 -0.008,0.24596 -0.0317,0.43639 z m 1.55515,-3.53875 q -0.67443,0 -1.08702,0.484 -0.41259,0.484 -0.49986,1.54721 h 3.09442 q -0.008,-0.92039 -0.35705,-1.4758 -0.34912,-0.55541 -1.15049,-0.55541 z"
         id="text23"
         style="font-weight:bold;font-size:15.4721px;line-height:0.9;font-family:'Fira Code';-inkscape-font-specification:'Fira Code, Bold';font-variant-ligatures:no-contextual;letter-spacing:-0.70246px;fill:#ffe792;stroke-width:0.999999;stroke-linecap:round;stroke-opacity:0.998262"
         aria-label="False" />
      <path
         id="path29"
         style="fill:none;fill-opacity:1;stroke:#ae81ff;stroke-width:1.5;stroke-linecap:round;stroke-linejoin:bevel;stroke-dasharray:none;stroke-opacity:0.998262"
         d="m 278.13057,206.09115 -7.81768,49.82689 m -19.15684,-0.75 26.97452,-49.07689 25.21504,17.78942" />
    </g>
    <g
       id="g33"
       class="fragment">
      <path
         d="m 312.27228,145.24848 v 2.91192 h 3.85613 v 1.86459 h -3.85613 v 4.36393 h -2.61042 v -10.9971 h 7.22825 l -0.26977,1.85666 z m 12.69877,6.71251 q 0,0.47606 0.12695,0.69029 0.13488,0.21423 0.42846,0.32531 l -0.51574,1.65036 q -0.74583,-0.0714 -1.26157,-0.32531 -0.5078,-0.26184 -0.80138,-0.78551 -0.484,0.57921 -1.23776,0.86485 -0.75377,0.27771 -1.53928,0.27771 -1.30124,0 -2.07882,-0.7379 -0.76963,-0.74584 -0.76963,-1.9122 0,-1.37265 1.07114,-2.11848 1.07908,-0.74584 3.03095,-0.74584 h 1.13462 v -0.31738 q 0,-1.2933 -1.66623,-1.2933 -0.40465,0 -1.03941,0.11901 -0.63475,0.11108 -1.2695,0.32531 l -0.57921,-1.66622 q 0.81724,-0.30945 1.69796,-0.46813 0.88865,-0.15869 1.58688,-0.15869 1.88046,0 2.77705,0.76964 0.90452,0.7617 0.90452,2.20576 z m -3.93547,0.90452 q 0.40466,0 0.84898,-0.23803 0.44433,-0.24597 0.67443,-0.6903 v -1.36472 h -0.61889 q -1.04734,0 -1.53927,0.32532 -0.49194,0.31737 -0.49194,0.93626 0,0.48399 0.29358,0.7617 0.3015,0.26977 0.83311,0.26977 z m 10.05661,-10.25126 v 9.12457 q 0,0.50781 0.28564,0.72997 0.29357,0.21423 0.80137,0.21423 0.32531,0 0.62682,-0.0714 0.30151,-0.0794 0.56334,-0.18249 l 0.60302,1.67416 q -0.42846,0.22216 -1.03147,0.38878 -0.60302,0.16663 -1.4044,0.16663 -1.5234,0 -2.2375,-0.87279 -0.7141,-0.88072 -0.7141,-2.35652 v -7.1013 h -2.48347 v -1.71383 z m 7.80323,10.25126 q 0.62682,0 1.00767,-0.19836 0.38879,-0.19836 0.38879,-0.59508 0,-0.26977 -0.15075,-0.45226 -0.15076,-0.18249 -0.57922,-0.34912 -0.42845,-0.16662 -1.2695,-0.39672 -1.15843,-0.30944 -1.88839,-0.88865 -0.72203,-0.57921 -0.72203,-1.69797 0,-1.12668 0.93626,-1.86458 0.94419,-0.7379 2.7215,-0.7379 1.12669,0 1.9598,0.29357 0.84105,0.28564 1.452,0.72997 l -0.99974,1.4758 q -0.52367,-0.32531 -1.12669,-0.51574 -0.60301,-0.19836 -1.21396,-0.19836 -1.20603,0 -1.20603,0.65062 0,0.21423 0.15075,0.37292 0.15869,0.15075 0.58715,0.31738 0.42846,0.15868 1.25364,0.39672 0.81724,0.23009 1.42026,0.5316 0.61095,0.30151 0.94419,0.80931 0.33325,0.49987 0.33325,1.32505 0,0.92039 -0.54748,1.54721 -0.54747,0.61888 -1.452,0.92832 -0.90452,0.30945 -1.9836,0.30945 -1.2219,0 -2.15816,-0.34912 -0.93626,-0.34911 -1.59481,-0.92039 l 1.26157,-1.41232 q 0.49193,0.38085 1.11081,0.63475 0.62682,0.2539 1.36472,0.2539 z m 7.61281,-1.9598 q 0.12695,1.03147 0.67443,1.48373 0.54747,0.44433 1.34885,0.44433 0.57921,0 1.11875,-0.19042 0.53954,-0.19043 1.03941,-0.50781 l 1.00767,1.36472 q -0.59509,0.5078 -1.44407,0.83312 -0.84105,0.32531 -1.92012,0.32531 -1.44407,0 -2.42,-0.57128 -0.97593,-0.57921 -1.46787,-1.58688 -0.49193,-1.00767 -0.49193,-2.31685 0,-1.2457 0.47607,-2.26131 0.47606,-1.02354 1.38852,-1.62655 0.92039,-0.61095 2.24544,-0.61095 1.20603,0 2.08675,0.51573 0.88865,0.51574 1.37265,1.48374 0.49193,0.968 0.49193,2.32478 0,0.21423 -0.0159,0.4602 -0.008,0.24596 -0.0317,0.43639 z m 1.55515,-3.53875 q -0.67443,0 -1.08702,0.484 -0.41259,0.484 -0.49987,1.54721 h 3.09442 q -0.008,-0.92039 -0.35705,-1.4758 -0.34911,-0.55541 -1.15048,-0.55541 z"
         id="text24"
         style="font-weight:bold;font-size:15.4721px;line-height:0.9;font-family:'Fira Code';-inkscape-font-specification:'Fira Code, Bold';font-variant-ligatures:no-contextual;letter-spacing:-0.70246px;fill:#f92672;stroke-width:0.999999;stroke-linecap:round;stroke-opacity:0.998262"
         aria-label="False" />
      <path
         style="fill:none;fill-opacity:1;stroke:#ae81ff;stroke-width:1.5;stroke-linecap:round;stroke-linejoin:bevel;stroke-dasharray:none;stroke-opacity:0.998262"
         d="m 278.13057,188.45969 52.70772,-30.45983 16.6948,97.46847"
         id="path30" />
    </g>
    <g
       id="g34"
       class="fragment">
      <g
         id="text25"
         style="font-weight:bold;font-size:15.4721px;line-height:0.9;font-family:'Fira Code';-inkscape-font-specification:'Fira Code, Bold';font-variant-ligatures:no-contextual;text-align:center;letter-spacing:-0.70246px;text-anchor:middle;fill:#fd971f;stroke-width:0.999999;stroke-linecap:round;stroke-opacity:0.998262"
         aria-label="Never&#10;checked">
        <path
           d="m 396.0397,226.39351 -2.89606,-8.84687 q 0.0714,0.46813 0.16663,1.20603 0.0952,0.72997 0.15869,1.62656 0.0714,0.89658 0.0714,1.86458 v 4.1497 h -2.2137 v -10.99709 h 3.24518 l 2.80878,8.79926 q -0.12695,-0.75377 -0.26184,-1.92806 -0.13488,-1.1743 -0.13488,-2.65803 v -4.21317 h 2.2137 v 10.99709 z m 6.56547,-3.48321 q 0.12695,1.03148 0.67443,1.48374 0.54747,0.44432 1.34885,0.44432 0.57921,0 1.11875,-0.19042 0.53954,-0.19043 1.03941,-0.5078 l 1.00767,1.36471 q -0.59509,0.50781 -1.44407,0.83312 -0.84105,0.32531 -1.92012,0.32531 -1.44407,0 -2.42,-0.57128 -0.97593,-0.57921 -1.46787,-1.58688 -0.49193,-1.00767 -0.49193,-2.31685 0,-1.2457 0.47607,-2.26131 0.47606,-1.02353 1.38852,-1.62655 0.92039,-0.61095 2.24544,-0.61095 1.20603,0 2.08675,0.51574 0.88865,0.51573 1.37265,1.48373 0.49193,0.968 0.49193,2.32478 0,0.21423 -0.0159,0.4602 -0.008,0.24597 -0.0317,0.43639 z m 1.55515,-3.53874 q -0.67443,0 -1.08702,0.48399 -0.41259,0.484 -0.49987,1.54721 h 3.09442 q -0.008,-0.92039 -0.35705,-1.4758 -0.34911,-0.5554 -1.15048,-0.5554 z m 13.03994,-1.40439 -2.80878,8.42634 h -2.9516 l -2.84052,-8.42634 h 2.70563 l 1.64243,6.50621 1.71383,-6.50621 z m 3.04259,4.94313 q 0.12695,1.03148 0.67442,1.48374 0.54748,0.44432 1.34885,0.44432 0.57922,0 1.11876,-0.19042 0.53954,-0.19043 1.0394,-0.5078 l 1.00767,1.36471 q -0.59508,0.50781 -1.44406,0.83312 -0.84105,0.32531 -1.92013,0.32531 -1.44406,0 -2.41999,-0.57128 -0.97593,-0.57921 -1.46787,-1.58688 -0.49193,-1.00767 -0.49193,-2.31685 0,-1.2457 0.47606,-2.26131 0.47607,-1.02353 1.38853,-1.62655 0.92039,-0.61095 2.24543,-0.61095 1.20603,0 2.08675,0.51574 0.88866,0.51573 1.37266,1.48373 0.49193,0.968 0.49193,2.32478 0,0.21423 -0.0159,0.4602 -0.008,0.24597 -0.0317,0.43639 z m 1.55514,-3.53874 q -0.67442,0 -1.08701,0.48399 -0.41259,0.484 -0.49987,1.54721 h 3.09442 q -0.008,-0.92039 -0.35705,-1.4758 -0.34911,-0.5554 -1.15049,-0.5554 z m 5.16901,7.02195 v -1.6821 h 1.11082 v -5.07802 H 426.967 v -1.66622 h 3.02301 l 0.4602,1.89632 q 0.45226,-1.08702 1.15049,-1.61862 0.70616,-0.53161 1.72177,-0.53161 0.42845,0 0.7617,0.0714 0.33324,0.0635 0.62682,0.1825 l -0.46813,3.52287 h -1.57102 v -1.55514 q -0.71409,0.12695 -1.25363,0.77757 -0.53954,0.64269 -0.83312,1.58688 v 2.41206 h 1.66623 v 1.6821 z"
           id="path34" />
        <path
           d="m 386.90931,238.6125 q 0.51573,0 0.968,-0.19836 0.46019,-0.20629 0.91245,-0.52367 l 1.11875,1.58688 q -0.5554,0.47607 -1.35678,0.79344 -0.79344,0.31738 -1.77731,0.31738 -1.35678,0 -2.33271,-0.55541 -0.97594,-0.56334 -1.49961,-1.55514 -0.52367,-0.99974 -0.52367,-2.31685 0,-1.31711 0.53161,-2.34065 0.53954,-1.03148 1.5234,-1.61862 0.9918,-0.58715 2.34859,-0.58715 0.96006,0 1.7059,0.26977 0.75377,0.26184 1.38058,0.78551 l -1.08701,1.50754 q -0.42846,-0.30151 -0.90452,-0.46814 -0.47607,-0.16662 -0.9918,-0.16662 -0.84899,0 -1.37266,0.60302 -0.51573,0.59508 -0.51573,2.01534 0,0.92832 0.24596,1.46786 0.24597,0.53161 0.66649,0.76171 0.42846,0.22216 0.96007,0.22216 z m 6.85904,-10.31473 v 4.4274 q 1.05527,-1.11082 2.47553,-1.11082 1.12669,0 1.72177,0.65856 0.59508,0.65855 0.59508,1.85665 v 6.18884 h -2.50727 v -5.49061 q 0,-0.76171 -0.17456,-1.06321 -0.16662,-0.30151 -0.63475,-0.30151 -0.39672,0 -0.76171,0.2777 -0.35704,0.26977 -0.71409,0.74584 v 5.83179 h -2.50728 v -11.77467 z m 8.48559,8.53742 q 0.12695,1.03148 0.67443,1.48374 0.54747,0.44432 1.34885,0.44432 0.57921,0 1.11875,-0.19042 0.53954,-0.19043 1.0394,-0.5078 l 1.00767,1.36471 q -0.59508,0.50781 -1.44406,0.83312 -0.84105,0.32531 -1.92013,0.32531 -1.44406,0 -2.41999,-0.57128 -0.97593,-0.57921 -1.46787,-1.58688 -0.49193,-1.00767 -0.49193,-2.31685 0,-1.2457 0.47607,-2.26131 0.47606,-1.02353 1.38852,-1.62655 0.92039,-0.61095 2.24543,-0.61095 1.20604,0 2.08675,0.51574 0.88866,0.51573 1.37266,1.48373 0.49193,0.968 0.49193,2.32478 0,0.21423 -0.0159,0.4602 -0.008,0.24597 -0.0317,0.43639 z m 1.55514,-3.53874 q -0.67442,0 -1.08701,0.48399 -0.41259,0.484 -0.49987,1.54721 h 3.09442 q -0.008,-0.92039 -0.35705,-1.4758 -0.34911,-0.5554 -1.15049,-0.5554 z m 9.55675,5.31605 q 0.51573,0 0.96799,-0.19836 0.4602,-0.20629 0.91246,-0.52367 l 1.11875,1.58688 q -0.55541,0.47607 -1.35678,0.79344 -0.79344,0.31738 -1.77731,0.31738 -1.35678,0 -2.33272,-0.55541 -0.97593,-0.56334 -1.4996,-1.55514 -0.52367,-0.99974 -0.52367,-2.31685 0,-1.31711 0.5316,-2.34065 0.53954,-1.03148 1.52341,-1.61862 0.9918,-0.58715 2.34859,-0.58715 0.96006,0 1.70589,0.26977 0.75377,0.26184 1.38059,0.78551 l -1.08701,1.50754 q -0.42846,-0.30151 -0.90452,-0.46814 -0.47607,-0.16662 -0.99181,-0.16662 -0.84898,0 -1.37265,0.60302 -0.51574,0.59508 -0.51574,2.01534 0,0.92832 0.24597,1.46786 0.24597,0.53161 0.66649,0.76171 0.42846,0.22216 0.96007,0.22216 z m 6.85903,-10.3306 v 12.0365 h -2.50727 v -11.77467 z m 5.49062,3.61015 -2.76911,3.72918 2.9992,4.69717 h -2.85638 l -2.76911,-4.61783 2.76911,-3.80852 z m 2.99498,4.94314 q 0.12695,1.03148 0.67442,1.48374 0.54748,0.44432 1.34885,0.44432 0.57922,0 1.11876,-0.19042 0.53954,-0.19043 1.0394,-0.5078 l 1.00767,1.36471 q -0.59508,0.50781 -1.44406,0.83312 -0.84105,0.32531 -1.92013,0.32531 -1.44406,0 -2.41999,-0.57128 -0.97593,-0.57921 -1.46787,-1.58688 -0.49193,-1.00767 -0.49193,-2.31685 0,-1.2457 0.47606,-2.26131 0.47607,-1.02353 1.38853,-1.62655 0.92039,-0.61095 2.24543,-0.61095 1.20603,0 2.08675,0.51574 0.88866,0.51573 1.37266,1.48373 0.49193,0.968 0.49193,2.32478 0,0.21423 -0.0159,0.4602 -0.008,0.24597 -0.0317,0.43639 z m 1.55514,-3.53874 q -0.67442,0 -1.08701,0.48399 -0.41259,0.484 -0.49987,1.54721 h 3.09442 q -0.008,-0.92039 -0.35705,-1.4758 -0.34911,-0.5554 -1.15049,-0.5554 z m 9.88205,-5.01455 2.50728,0.26183 v 11.77467 h -2.22164 l -0.12695,-0.92833 q -0.34911,0.49194 -0.92832,0.84898 -0.57922,0.34912 -1.40439,0.34912 -1.04735,0 -1.73764,-0.56334 -0.68236,-0.56335 -1.02354,-1.57102 -0.33324,-1.0156 -0.33324,-2.37239 0,-1.30124 0.40465,-2.30891 0.40466,-1.00767 1.15842,-1.57895 0.75377,-0.57921 1.79318,-0.57921 1.13462,0 1.91219,0.77757 z m -1.23776,5.1653 q -0.65063,0 -1.04735,0.61888 -0.39672,0.61095 -0.39672,2.03121 0,1.03941 0.16663,1.61862 0.16662,0.57128 0.46019,0.80138 0.29358,0.2301 0.67443,0.2301 0.42052,0 0.7617,-0.26184 0.34911,-0.26184 0.61888,-0.7141 v -3.63396 q -0.26183,-0.32531 -0.5554,-0.5078 -0.29358,-0.18249 -0.68236,-0.18249 z"
           id="path35" />
      </g>
      <g
         id="path31">
        <path
           style="color:#000000;fill:#fd971f;fill-opacity:0.998262;stroke-linecap:round;stroke-linejoin:bevel;-inkscape-stroke:none"
           d="m 457.0957,244.13867 -86.77539,0.21485 a 0.75,0.75 0 0 0 -0.74804,0.75195 0.75,0.75 0 0 0 0.75195,0.74805 l 86.77539,-0.21485 a 0.75,0.75 0 0 0 0.74805,-0.75195 0.75,0.75 0 0 0 -0.75196,-0.74805 z"
           id="path38" />
        <g
           id="g36">
          <path
             style="color:#000000;fill:#fd971f;-inkscape-stroke:none"
             d="m 457.83203,238.88672 -1.5,0.004 0.0293,12 1.5,-0.004 z"
             id="path37" />
          <path
             style="color:#000000;fill:#fd971f;-inkscape-stroke:none"
             d="m 371.05664,239.10156 -1.5,0.004 0.0312,12 1.5,-0.004 z"
             id="path36" />
        </g>
      </g>
    </g>
  </g>
</svg>
