<?xml version="1.0" encoding="UTF-8" standalone="no"?>
<!-- Created with Inkscape (http://www.inkscape.org/) -->

<svg
   width="173.98294mm"
   height="173.98294mm"
   viewBox="0 0 173.98294 173.98294"
   version="1.1"
   id="svg1"
   inkscape:version="1.3 (0e150ed6c4, 2023-07-21)"
   sodipodi:docname="tictactoe.svg"
   xmlns:inkscape="http://www.inkscape.org/namespaces/inkscape"
   xmlns:sodipodi="http://sodipodi.sourceforge.net/DTD/sodipodi-0.dtd"
   xmlns="http://www.w3.org/2000/svg"
   xmlns:svg="http://www.w3.org/2000/svg">
  <sodipodi:namedview
     id="namedview1"
     pagecolor="#373737"
     bordercolor="#000000"
     borderopacity="0.25"
     inkscape:showpageshadow="2"
     inkscape:pageopacity="0.0"
     inkscape:pagecheckerboard="0"
     inkscape:deskcolor="#d1d1d1"
     inkscape:document-units="mm"
     inkscape:zoom="1.4075477"
     inkscape:cx="167.6675"
     inkscape:cy="164.11522"
     inkscape:window-width="1680"
     inkscape:window-height="1020"
     inkscape:window-x="0"
     inkscape:window-y="30"
     inkscape:window-maximized="1"
     inkscape:current-layer="layer1" />
  <defs
     id="defs1" />
  <g
     inkscape:label="Layer 1"
     inkscape:groupmode="layer"
     id="layer1"
     transform="translate(-246.2955,-34.945209)">
    <g
       inkscape:label="GridCartesian:X5:Y5"
       transform="matrix(6.9090348,0,0,6.9090348,246.92403,35.573741)"
       id="g94"
       style="stroke-width:0.687668;stroke:#75715e"
       class="fragment"
       data-fragment-index="2">
      <g
         inkscape:label="MajorXGridlines"
         id="g59"
         style="stroke-width:0.687668;stroke:#75715e">
        <path
           style="fill:none;stroke:#75715e;stroke-width:0.181945"
           d="M 5,0 V 25"
           inkscape:label="MajorXDiv1"
           id="path56" />
        <path
           style="fill:none;stroke:#75715e;stroke-width:0.181945"
           d="M 10,0 V 25"
           inkscape:label="MajorXDiv2"
           id="path57" />
        <path
           style="fill:none;stroke:#75715e;stroke-width:0.181945"
           d="M 15,0 V 25"
           inkscape:label="MajorXDiv3"
           id="path58" />
        <path
           style="fill:none;stroke:#75715e;stroke-width:0.181945"
           d="M 20,0 V 25"
           inkscape:label="MajorXDiv4"
           id="path59" />
      </g>
      <g
         inkscape:label="MajorYGridlines"
         id="g63"
         style="stroke-width:0.687668;stroke:#75715e">
        <path
           style="fill:none;stroke:#75715e;stroke-width:0.181945"
           d="M 0,5 H 25"
           inkscape:label="MajorYDiv1"
           id="path60" />
        <path
           style="fill:none;stroke:#75715e;stroke-width:0.181945"
           d="M 0,10 H 25"
           inkscape:label="MajorYDiv2"
           id="path61" />
        <path
           style="fill:none;stroke:#75715e;stroke-width:0.181945"
           d="M 0,15 H 25"
           inkscape:label="MajorYDiv3"
           id="path62" />
        <path
           style="fill:none;stroke:#75715e;stroke-width:0.181945"
           d="M 0,20 H 25"
           inkscape:label="MajorYDiv4"
           id="path63" />
      </g>
      <g
         inkscape:label="SubMinorXGridlines"
         id="g78"
         style="stroke-width:0.687668;stroke:#75715e">
        <path
           style="fill:none;stroke:#75715e;stroke-width:0.0545837"
           d="M 1.25,0 V 25"
           inkscape:label="SubminorXDiv0:0:1"
           id="path64" />
        <path
           style="fill:none;stroke:#75715e;stroke-width:0.0545837"
           d="M 2.5,0 V 25"
           inkscape:label="SubminorXDiv0:0:2"
           id="path65" />
        <path
           style="fill:none;stroke:#75715e;stroke-width:0.0545837"
           d="M 3.75,0 V 25"
           inkscape:label="SubminorXDiv0:0:3"
           id="path66" />
        <path
           style="fill:none;stroke:#75715e;stroke-width:0.0545837"
           d="M 6.25,0 V 25"
           inkscape:label="SubminorXDiv1:0:1"
           id="path67" />
        <path
           style="fill:none;stroke:#75715e;stroke-width:0.0545837"
           d="M 7.5,0 V 25"
           inkscape:label="SubminorXDiv1:0:2"
           id="path68" />
        <path
           style="fill:none;stroke:#75715e;stroke-width:0.0545837"
           d="M 8.75,0 V 25"
           inkscape:label="SubminorXDiv1:0:3"
           id="path69" />
        <path
           style="fill:none;stroke:#75715e;stroke-width:0.0545837"
           d="M 11.25,0 V 25"
           inkscape:label="SubminorXDiv2:0:1"
           id="path70" />
        <path
           style="fill:none;stroke:#75715e;stroke-width:0.0545837"
           d="M 12.5,0 V 25"
           inkscape:label="SubminorXDiv2:0:2"
           id="path71" />
        <path
           style="fill:none;stroke:#75715e;stroke-width:0.0545837"
           d="M 13.75,0 V 25"
           inkscape:label="SubminorXDiv2:0:3"
           id="path72" />
        <path
           style="fill:none;stroke:#75715e;stroke-width:0.0545837"
           d="M 16.25,0 V 25"
           inkscape:label="SubminorXDiv3:0:1"
           id="path73" />
        <path
           style="fill:none;stroke:#75715e;stroke-width:0.0545837"
           d="M 17.5,0 V 25"
           inkscape:label="SubminorXDiv3:0:2"
           id="path74" />
        <path
           style="fill:none;stroke:#75715e;stroke-width:0.0545837"
           d="M 18.75,0 V 25"
           inkscape:label="SubminorXDiv3:0:3"
           id="path75" />
        <path
           style="fill:none;stroke:#75715e;stroke-width:0.0545837"
           d="M 21.25,0 V 25"
           inkscape:label="SubminorXDiv4:0:1"
           id="path76" />
        <path
           style="fill:none;stroke:#75715e;stroke-width:0.0545837"
           d="M 22.5,0 V 25"
           inkscape:label="SubminorXDiv4:0:2"
           id="path77" />
        <path
           style="fill:none;stroke:#75715e;stroke-width:0.0545837"
           d="M 23.75,0 V 25"
           inkscape:label="SubminorXDiv4:0:3"
           id="path78" />
      </g>
      <g
         inkscape:label="SubMinorYGridlines"
         id="g93"
         style="stroke-width:0.687668;stroke:#75715e">
        <path
           style="fill:none;stroke:#75715e;stroke-width:0.0545837"
           d="M 0,1.25 H 25"
           inkscape:label="SubminorXDiv0:0:1"
           id="path79" />
        <path
           style="fill:none;stroke:#75715e;stroke-width:0.0545837"
           d="M 0,2.5 H 25"
           inkscape:label="SubminorXDiv0:0:2"
           id="path80" />
        <path
           style="fill:none;stroke:#75715e;stroke-width:0.0545837"
           d="M 0,3.75 H 25"
           inkscape:label="SubminorXDiv0:0:3"
           id="path81" />
        <path
           style="fill:none;stroke:#75715e;stroke-width:0.0545837"
           d="M 0,6.25 H 25"
           inkscape:label="SubminorXDiv1:0:1"
           id="path82" />
        <path
           style="fill:none;stroke:#75715e;stroke-width:0.0545837"
           d="M 0,7.5 H 25"
           inkscape:label="SubminorXDiv1:0:2"
           id="path83" />
        <path
           style="fill:none;stroke:#75715e;stroke-width:0.0545837"
           d="M 0,8.75 H 25"
           inkscape:label="SubminorXDiv1:0:3"
           id="path84" />
        <path
           style="fill:none;stroke:#75715e;stroke-width:0.0545837"
           d="M 0,11.25 H 25"
           inkscape:label="SubminorXDiv2:0:1"
           id="path85" />
        <path
           style="fill:none;stroke:#75715e;stroke-width:0.0545837"
           d="M 0,12.5 H 25"
           inkscape:label="SubminorXDiv2:0:2"
           id="path86" />
        <path
           style="fill:none;stroke:#75715e;stroke-width:0.0545837"
           d="M 0,13.75 H 25"
           inkscape:label="SubminorXDiv2:0:3"
           id="path87" />
        <path
           style="fill:none;stroke:#75715e;stroke-width:0.0545837"
           d="M 0,16.25 H 25"
           inkscape:label="SubminorXDiv3:0:1"
           id="path88" />
        <path
           style="fill:none;stroke:#75715e;stroke-width:0.0545837"
           d="M 0,17.5 H 25"
           inkscape:label="SubminorXDiv3:0:2"
           id="path89" />
        <path
           style="fill:none;stroke:#75715e;stroke-width:0.0545837"
           d="M 0,18.75 H 25"
           inkscape:label="SubminorXDiv3:0:3"
           id="path90" />
        <path
           style="fill:none;stroke:#75715e;stroke-width:0.0545837"
           d="M 0,21.25 H 25"
           inkscape:label="SubminorXDiv4:0:1"
           id="path91" />
        <path
           style="fill:none;stroke:#75715e;stroke-width:0.0545837"
           d="M 0,22.5 H 25"
           inkscape:label="SubminorXDiv4:0:2"
           id="path92" />
        <path
           style="fill:none;stroke:#75715e;stroke-width:0.0545837"
           d="M 0,23.75 H 25"
           inkscape:label="SubminorXDiv4:0:3"
           id="path93" />
      </g>
      <rect
         x="0"
         y="0"
         width="25"
         height="25"
         style="fill:none;stroke:#75715e;stroke-width:0.181945"
         inkscape:label="Border"
         id="rect93" />
    </g>
    <g
       id="g100"
       transform="matrix(1.4041929,0,0,1.397251,193.83313,-57.993238)"
       style="stroke-width:0.71392"
       class="fragment"
       data-fragment-index="3">
      <path
         style="fill:none;stroke:#f8f8f2;stroke-width:2.35593;stroke-linecap:round;stroke-linejoin:round;stroke-dasharray:none"
         d="M 81.399648,76.758481 81.052978,180.49541"
         id="path94" />
      <path
         style="fill:none;stroke:#f8f8f2;stroke-width:2.35593;stroke-linecap:round;stroke-linejoin:round;stroke-dasharray:none"
         d="M 117.64314,76.758481 117.29647,180.49541"
         id="path95" />
      <path
         style="fill:none;stroke:#f8f8f2;stroke-width:2.35593;stroke-linecap:round;stroke-linejoin:round;stroke-dasharray:none"
         d="M 150.81926,111.48696 47.082331,111.14029"
         id="path96" />
      <path
         style="fill:none;stroke:#f8f8f2;stroke-width:2.35593;stroke-linecap:round;stroke-linejoin:round;stroke-dasharray:none"
         d="M 150.81926,146.21386 47.082331,145.86719"
         id="path97" />
    </g>
    <g
       id="g101"
       class="fragment"
       data-fragment-index="4">
      <path
         d="m 321.49947,133.1209 q -0.87049,-0.42741 -1.17634,-1.35279 -0.30585,-0.92931 -0.0353,-2.32131 0.27056,-1.39592 0.93715,-2.32131 0.66659,-0.92931 1.70177,-1.35671 l -0.0745,0.38427 q -0.68228,0.41564 -1.094,1.17242 -0.40779,0.75286 -0.67443,2.12133 -0.26664,1.36455 -0.15292,2.12133 0.11763,0.75286 0.64306,1.1685 z m 5.25431,-2.50168 q -0.28232,0.66659 -0.78815,1.01557 -0.5019,0.34898 -1.19202,0.34898 -0.9097,0 -1.34495,-0.59993 -0.30192,-0.41956 -0.30192,-1.02342 0,-0.27056 0.0588,-0.5764 0.19606,-0.99989 0.86265,-1.5959 0.67052,-0.59994 1.58022,-0.59994 0.39603,0 0.76854,0.0941 0.37643,0.0902 0.73325,0.2784 l -0.2039,1.06655 h -0.41956 q 0,-0.0549 0,-0.10195 0,-0.47054 -0.2039,-0.69796 -0.22742,-0.25095 -0.74109,-0.25095 -0.58425,0 -0.97244,0.45485 -0.38427,0.45093 -0.56072,1.35279 -0.0784,0.41171 -0.0784,0.73325 0,0.37643 0.1098,0.62346 0.20782,0.45485 0.79598,0.45485 0.46662,0 0.79207,-0.24311 0.32546,-0.24311 0.52543,-0.73325 z m 1.04302,1.25084 h -0.49014 l 1.83901,-1.99978 -0.92539,-1.74882 h -0.51366 l 0.0784,-0.41956 h 1.0587 l 0.86657,1.62334 1.49395,-1.62334 h 0.49014 l -1.80372,1.96056 0.95284,1.79196 h 0.54503 l -0.0784,0.41564 h -1.09399 l -0.88618,-1.66256 z m 4.17208,0.7803 q 0.42348,-0.27056 0.66659,-0.63914 0.24311,-0.36467 0.34506,-0.88618 l 0.0274,-0.14508 h 0.77246 q -0.16076,0.67051 -0.54111,1.14889 -0.37643,0.4823 -1.01558,0.8352 z m 6.36399,-2.03114 q -0.28232,0.66659 -0.78815,1.01557 -0.5019,0.34898 -1.19202,0.34898 -0.9097,0 -1.34495,-0.59993 -0.30192,-0.41956 -0.30192,-1.02342 0,-0.27056 0.0588,-0.5764 0.19606,-0.99989 0.86265,-1.5959 0.67052,-0.59994 1.58022,-0.59994 0.39603,0 0.76854,0.0941 0.37643,0.0902 0.73325,0.2784 l -0.2039,1.06655 h -0.41956 q 0,-0.0549 0,-0.10195 0,-0.47054 -0.2039,-0.69796 -0.22742,-0.25095 -0.74109,-0.25095 -0.58425,0 -0.97244,0.45485 -0.38427,0.45093 -0.56072,1.35279 -0.0784,0.41171 -0.0784,0.73325 0,0.37643 0.1098,0.62346 0.20782,0.45485 0.79599,0.45485 0.46661,0 0.79206,-0.24311 0.32546,-0.24311 0.52543,-0.73325 z m 5.14844,-2.88203 q -0.38819,2.24288 -1.07046,3.42706 -0.99989,1.73706 -1.80372,2.25857 -0.35683,0.23135 -1.2979,0.23135 -0.18429,0 -0.3725,-0.0314 -0.1843,-0.0314 -0.37251,-0.0902 l 0.15684,-0.79598 h 0.36859 q -0.008,0.0627 -0.008,0.12155 0,0.16469 0.0706,0.25879 0.098,0.13332 0.3529,0.13332 0.69012,0 1.29005,-0.59993 l -0.9842,-4.5289 h -0.47446 l 0.0823,-0.41956 h 1.07831 l 0.92539,4.13679 q 0.6313,-0.94499 0.78423,-1.33319 0.49406,-1.21947 0.59209,-2.34875 h -0.47446 l 0.0823,-0.41956 z m -0.2235,5.38371 0.0745,-0.38427 q 0.68228,-0.41564 1.094,-1.1685 0.41171,-0.75678 0.67835,-2.12133 0.26664,-1.36847 0.149,-2.12133 -0.11763,-0.75678 -0.64306,-1.17242 l 0.0745,-0.38427 q 0.87441,0.4274 1.18026,1.35671 0.30585,0.92539 0.0353,2.32131 -0.27056,1.392 -0.93715,2.32131 -0.66659,0.92538 -1.70569,1.35279 z"
         id="text100"
         style="font-style:italic;font-size:8.03047px;font-family:'DejaVu Serif';-inkscape-font-specification:'DejaVu Serif Italic';fill:#f92672;stroke-width:3.29999;stroke-linecap:round;stroke-linejoin:round"
         aria-label="(cx,cy)" />
      <circle
         style="fill:#f92672;stroke:#f92672;stroke-width:3.29999;stroke-linecap:round;stroke-linejoin:round;stroke-dasharray:none"
         id="path100"
         cx="333.31662"
         cy="121.74031"
         r="1.9063908" />
    </g>
    <g
       id="g105"
       class="fragment"
       data-fragment-index="6">
      <g
         id="path102">
        <path
           style="color:#000000;fill:#f92672;stroke-linecap:round;stroke-linejoin:round;-inkscape-stroke:none"
           d="m 308.17158,44.185299 h 25.35301"
           id="path110" />
        <path
           style="color:#000000;fill:#fd971f;stroke-linecap:round;stroke-linejoin:round;-inkscape-stroke:none"
           d="m 308.17187,43.685547 a 0.5,0.5 0 0 0 -0.5,0.5 0.5,0.5 0 0 0 0.5,0.5 h 25.35352 a 0.5,0.5 0 0 0 0.5,-0.5 0.5,0.5 0 0 0 -0.5,-0.5 z"
           id="path111" />
        <g
           id="g108">
          <path
             style="color:#000000;fill:#fd971f;-inkscape-stroke:none"
             d="m 331.12891,40.832031 -0.70704,0.707031 2.64649,2.646485 -2.64649,2.646484 0.70704,0.707031 3.35351,-3.353515 z"
             id="path109" />
          <path
             style="color:#000000;fill:#fd971f;-inkscape-stroke:none"
             d="m 310.56836,40.832031 -3.35352,3.353516 3.35352,3.353515 0.70703,-0.707031 -2.64648,-2.646484 2.64648,-2.646485 z"
             id="path108" />
        </g>
      </g>
      <path
         d="m 308.21944,39.665073 q 0.2327,0 0.37409,-0.07364 0.14433,-0.07363 0.14433,-0.22091 0,-0.100141 -0.0559,-0.167892 -0.0559,-0.06774 -0.21502,-0.129596 -0.15906,-0.06185 -0.47128,-0.147274 -0.43003,-0.114875 -0.70102,-0.329893 -0.26804,-0.215018 -0.26804,-0.630331 0,-0.418256 0.34756,-0.692185 0.35052,-0.273929 1.0103,-0.273929 0.41826,0 0.72753,0.108988 0.31223,0.106043 0.53902,0.270983 l -0.37112,0.547858 q -0.19441,-0.120764 -0.41826,-0.191456 -0.22386,-0.07363 -0.45066,-0.07363 -0.44771,0 -0.44771,0.241528 0,0.07953 0.0559,0.138437 0.0589,0.05597 0.21796,0.11782 0.15905,0.05891 0.46539,0.147273 0.30339,0.08542 0.52724,0.197347 0.2268,0.111932 0.35051,0.300438 0.12366,0.185564 0.12366,0.491893 0,0.341675 -0.20325,0.574367 -0.20324,0.229747 -0.53902,0.34462 -0.33578,0.114876 -0.73636,0.114876 -0.4536,0 -0.80117,-0.129597 -0.34757,-0.129596 -0.59204,-0.341675 l 0.46833,-0.524293 q 0.18262,0.141383 0.41237,0.235637 0.23268,0.09425 0.50661,0.09425 z m 3.62883,-4.20024 q 0.24153,0 0.39469,0.150219 0.15317,0.150219 0.15317,0.374074 0,0.223856 -0.15317,0.37702 -0.15316,0.150219 -0.39469,0.150219 -0.24448,0 -0.40058,-0.150219 -0.15317,-0.153164 -0.15317,-0.37702 0,-0.223855 0.15317,-0.374074 0.1561,-0.150219 0.40058,-0.150219 z m 0.56259,1.63768 v 2.491868 h 0.79528 v 0.636222 h -2.61263 v -0.636222 h 0.88658 v -1.855646 h -0.85713 v -0.636222 z m 2.73339,2.424123 h 1.56699 l -0.0883,0.703967 h -2.57728 v -0.65684 l 1.55225,-1.770227 h -1.42265 v -0.701023 h 2.50659 v 0.653895 z m 3.23119,-0.589094 q 0.0471,0.382911 0.25036,0.550803 0.20324,0.164946 0.50074,0.164946 0.21501,0 0.41531,-0.07069 0.20028,-0.07069 0.38585,-0.18851 l 0.37408,0.506622 q -0.22091,0.18851 -0.53608,0.309274 -0.31222,0.120764 -0.71281,0.120764 -0.53606,0 -0.89837,-0.212074 -0.36229,-0.215019 -0.54491,-0.589093 -0.18262,-0.374076 -0.18262,-0.860077 0,-0.462439 0.17673,-0.83946 0.17673,-0.379965 0.51546,-0.603821 0.34168,-0.226802 0.83357,-0.226802 0.44771,0 0.77466,0.191456 0.3299,0.191455 0.50957,0.550803 0.18262,0.359347 0.18262,0.863023 0,0.07953 -0.005,0.170837 -0.003,0.09131 -0.012,0.162001 z m 0.57731,-1.31368 q -0.25036,0 -0.40352,0.179674 -0.15317,0.179673 -0.18558,0.574367 h 1.14874 q -0.003,-0.341675 -0.13262,-0.547859 -0.12954,-0.206182 -0.42709,-0.206182 z m 6.16781,3.266526 -0.72753,-0.332839 2.47715,-5.139844 0.72164,0.332838 z m 8.2385,-4.845298 q 0.27098,0 0.49188,0.07069 0.22387,0.07069 0.3947,0.191456 l -0.35345,0.56553 q -0.11777,-0.08542 -0.25332,-0.123708 -0.13249,-0.04123 -0.26215,-0.04123 -0.33284,0 -0.55963,0.297493 -0.22386,0.297492 -0.25921,0.860077 0.18262,-0.191456 0.40943,-0.27982 0.22974,-0.09131 0.44771,-0.09131 0.3181,0 0.57731,0.159056 0.25919,0.156109 0.41237,0.459492 0.15316,0.300438 0.15316,0.733422 0,0.40942 -0.17673,0.74815 -0.17673,0.335784 -0.50367,0.536075 -0.32401,0.200292 -0.76878,0.200292 -0.40647,0 -0.69513,-0.153164 -0.28865,-0.15611 -0.47126,-0.424148 -0.18262,-0.270983 -0.26804,-0.621494 -0.0854,-0.353456 -0.0854,-0.74815 0,-0.68924 0.21207,-1.216478 0.21502,-0.527239 0.60971,-0.824731 0.39763,-0.297493 0.94845,-0.297493 z m -0.18557,2.091283 q -0.34462,0 -0.61561,0.31222 0.009,0.612658 0.12955,0.916042 0.12071,0.300438 0.43299,0.300438 0.26215,0 0.38291,-0.223856 0.12366,-0.223856 0.12366,-0.541967 0,-0.418256 -0.12071,-0.589094 -0.11777,-0.173783 -0.33284,-0.173783 z"
         id="text105"
         style="font-weight:bold;font-size:4.29191px;font-family:'Fira Code';-inkscape-font-specification:'Fira Code, Bold';fill:#fd971f;stroke-width:1;stroke-linecap:round;stroke-linejoin:round"
         aria-label="size / 6" />
    </g>
    <g
       id="g106"
       class="fragment"
       data-fragment-index="7">
      <g
         id="path101">
        <path
           style="color:#000000;fill:#f92672;stroke-linecap:round;stroke-linejoin:round;-inkscape-stroke:none"
           d="M 302.67277,48.743801 V 121.98385"
           id="path114" />
        <path
           style="color:#000000;fill:#fd971f;stroke-linecap:round;stroke-linejoin:round;-inkscape-stroke:none"
           d="m 302.67187,48.244141 a 0.5,0.5 0 0 0 -0.5,0.5 v 73.240239 a 0.5,0.5 0 0 0 0.5,0.5 0.5,0.5 0 0 0 0.5,-0.5 V 48.744141 a 0.5,0.5 0 0 0 -0.5,-0.5 z"
           id="path115" />
        <g
           id="g112">
          <path
             style="color:#000000;fill:#fd971f;-inkscape-stroke:none"
             d="m 300.02539,118.88086 -0.70703,0.70703 3.35351,3.35352 3.35352,-3.35352 -0.70703,-0.70703 -2.64649,2.64648 z"
             id="path113" />
          <path
             style="color:#000000;fill:#fd971f;-inkscape-stroke:none"
             d="m 302.67187,47.787109 -3.35351,3.353516 0.70703,0.707031 2.64648,-2.646484 2.64649,2.646484 0.70703,-0.707031 z"
             id="path112" />
        </g>
      </g>
      <path
         d="m 271.71648,85.851317 q 0.25133,0 0.40403,-0.07951 0.15588,-0.07951 0.15588,-0.238603 0,-0.108148 -0.0604,-0.181339 -0.0604,-0.0731 -0.23224,-0.139977 -0.17179,-0.06682 -0.50901,-0.159068 -0.46448,-0.1241 -0.75715,-0.356309 -0.2895,-0.232235 -0.2895,-0.680803 0,-0.451758 0.37539,-0.747612 0.37858,-0.295867 1.09119,-0.295867 0.45176,0 0.7858,0.117693 0.33722,0.114554 0.58219,0.29269 l -0.40085,0.591721 q -0.20998,-0.13043 -0.45176,-0.206786 -0.24178,-0.07951 -0.48674,-0.07951 -0.48356,0 -0.48356,0.260873 0,0.08591 0.0604,0.149522 0.0635,0.06042 0.23541,0.127253 0.17179,0.06368 0.50265,0.159068 0.32769,0.0922 0.56947,0.213143 0.24496,0.120833 0.37858,0.324505 0.13361,0.200419 0.13361,0.53128 0,0.369033 -0.21952,0.62036 -0.21951,0.248149 -0.58218,0.372211 -0.36267,0.1241 -0.79533,0.1241 -0.48992,0 -0.86532,-0.139977 -0.3754,-0.139976 -0.63946,-0.369033 l 0.50584,-0.566274 q 0.19724,0.152701 0.44539,0.254505 0.25132,0.101867 0.54719,0.101867 z m 3.9194,-4.536584 q 0.26087,0 0.4263,0.162246 0.16544,0.162247 0.16544,0.404028 0,0.241781 -0.16544,0.407205 -0.16543,0.162259 -0.4263,0.162259 -0.26405,0 -0.43266,-0.162259 -0.16543,-0.165424 -0.16543,-0.407205 0,-0.241781 0.16543,-0.404028 0.16861,-0.162246 0.43266,-0.162246 z m 0.60764,1.768822 v 2.691405 h 0.85896 v 0.687171 h -2.82185 V 85.77496 h 0.95758 v -2.004247 h -0.92576 v -0.687158 z m 2.95228,2.618239 h 1.69246 l -0.0955,0.760337 H 278.0091 V 85.75269 l 1.67656,-1.911976 h -1.53659 v -0.757159 h 2.70732 v 0.70625 z m 3.48992,-0.636274 q 0.0509,0.413573 0.27042,0.594912 0.21951,0.178148 0.54083,0.178148 0.23223,0 0.44857,-0.07637 0.21633,-0.07637 0.41675,-0.203609 l 0.40402,0.547194 q -0.2386,0.203597 -0.57899,0.33404 -0.33723,0.13043 -0.76989,0.13043 -0.57901,0 -0.97031,-0.229057 -0.3913,-0.232235 -0.58854,-0.636262 -0.19724,-0.404027 -0.19724,-0.928951 0,-0.499476 0.19088,-0.906682 0.19087,-0.410395 0.55673,-0.652176 0.36903,-0.244959 0.90031,-0.244959 0.48356,0 0.83669,0.206787 0.35631,0.206787 0.55038,0.594912 0.19724,0.388126 0.19724,0.93213 0,0.08591 -0.006,0.184516 -0.003,0.0986 -0.0127,0.174971 z m 0.62354,-1.418869 q -0.27041,0 -0.43584,0.194063 -0.16543,0.19405 -0.20042,0.62036 h 1.24072 q -0.003,-0.369046 -0.14316,-0.591734 -0.13998,-0.222689 -0.4613,-0.222689 z m 6.66173,3.528098 -0.7858,-0.359499 2.6755,-5.551426 0.77943,0.3595 z m 8.42417,-5.2333 q 0.50265,0 0.83988,0.17497 0.3404,0.174983 0.50901,0.464482 0.17179,0.286321 0.17179,0.623538 0,0.267229 -0.0922,0.524924 -0.0891,0.254505 -0.29587,0.540826 -0.20679,0.283143 -0.55037,0.629906 -0.34041,0.346763 -0.84305,0.795331 h 1.88335 l -0.10815,0.766705 h -2.93001 v -0.712619 q 0.54401,-0.524924 0.90986,-0.903503 0.36904,-0.378579 0.58855,-0.652176 0.22269,-0.276775 0.31814,-0.489918 0.0955,-0.213155 0.0955,-0.410395 0,-0.267229 -0.15589,-0.42312 -0.1527,-0.155878 -0.43585,-0.155878 -0.25132,0 -0.43584,0.105007 -0.18452,0.105008 -0.35631,0.340395 l -0.61718,-0.464469 q 0.24815,-0.343586 0.61082,-0.547194 0.36267,-0.206787 0.89395,-0.206787 z"
         id="text106"
         style="font-weight:bold;font-size:4.9389px;font-family:'Fira Code';-inkscape-font-specification:'Fira Code, Bold';fill:#fd971f;stroke-width:1;stroke-linecap:round;stroke-linejoin:round"
         aria-label="size / 2" />
    </g>
  </g>
</svg>
